<?xml version="1.0" standalone="no"?>
<!DOCTYPE svg PUBLIC "-//W3C//DTD SVG 20010904//EN"
 "http://www.w3.org/TR/2001/REC-SVG-20010904/DTD/svg10.dtd">
<svg version="1.0" xmlns="http://www.w3.org/2000/svg"
 width="710.000000pt" height="412.000000pt" viewBox="0 0 710.000000 412.000000"
 preserveAspectRatio="xMidYMid meet">

<g transform="translate(0.000000,412.000000) scale(0.100000,-0.100000)"
fill="#0C324A" stroke="none">
<path d="M3550 3259 c-70 -28 -110 -106 -90 -178 13 -51 57 -87 128 -107 182
-50 192 -54 213 -87 26 -41 18 -83 -21 -119 -82 -75 -240 -33 -271 73 -11 35
-15 39 -46 39 -28 0 -33 -4 -33 -22 1 -37 35 -102 69 -131 37 -31 117 -57 176
-57 142 0 232 89 210 206 -14 78 -61 112 -199 144 -48 11 -100 27 -116 35
-110 57 -21 182 112 160 49 -9 104 -55 113 -95 6 -26 11 -30 42 -30 34 0 34 1
28 33 -23 103 -89 147 -217 146 -40 0 -84 -5 -98 -10z"/>
<path d="M720 2670 l0 -590 336 0 337 0 -6 -73 c-7 -102 -33 -199 -74 -285
-81 -165 -260 -265 -520 -288 l-73 -7 0 -245 0 -245 98 6 c493 31 853 281 992
689 70 208 80 333 80 1051 l0 577 -585 0 -585 0 0 -590z"/>
<path d="M2470 2970 l0 -290 210 0 210 0 0 35 0 35 -172 2 -173 3 -3 98 -3 97
156 0 155 0 0 35 0 35 -155 0 -156 0 3 88 3 87 168 3 167 2 0 30 0 30 -205 0
-205 0 0 -290z"/>
<path d="M2970 2970 l0 -290 208 2 207 3 3 33 3 32 -175 0 -176 0 0 100 0 99
153 3 152 3 0 30 0 30 -152 3 -153 3 0 89 0 90 170 0 170 0 0 30 0 30 -205 0
-205 0 0 -290z"/>
<path d="M3920 3230 l0 -29 98 -3 97 -3 3 -257 2 -258 35 0 35 0 0 260 0 260
95 0 95 0 0 30 0 30 -230 0 -230 0 0 -30z"/>
<path d="M4452 2973 l3 -288 35 0 35 0 3 288 2 287 -40 0 -40 0 2 -287z"/>
<path d="M2470 2100 l0 -290 35 0 35 0 0 98 0 98 50 49 c27 27 51 47 53 44 2
-2 50 -68 107 -146 l104 -143 44 0 c34 0 42 3 34 13 -5 6 -62 84 -126 172
l-116 160 117 117 118 118 -50 0 -50 0 -142 -142 -143 -143 0 143 0 142 -35 0
-35 0 0 -290z"/>
<path d="M3000 2100 l0 -290 210 0 210 0 0 35 0 35 -170 0 -170 0 0 100 0 100
150 0 150 0 0 30 0 30 -150 0 -150 0 0 95 0 95 165 0 165 0 0 30 0 30 -205 0
-205 0 0 -290z"/>
<path d="M3500 2100 l0 -290 210 0 210 0 0 35 0 35 -175 0 -175 0 0 100 0 100
155 0 155 0 0 30 0 29 -152 3 -153 3 0 90 0 90 168 3 167 2 0 30 0 30 -205 0
-205 0 0 -290z"/>
<path d="M4000 2100 l0 -290 185 0 185 0 0 35 0 35 -150 0 -150 0 0 255 0 255
-35 0 -35 0 0 -290z"/>
<path d="M4450 2100 l0 -290 205 0 205 0 0 35 0 35 -170 0 -170 0 0 100 0 100
150 0 150 0 0 30 0 30 -150 0 -150 0 0 95 0 95 165 0 165 0 0 30 0 30 -200 0
-200 0 0 -290z"/>
<path d="M3369 1520 c-58 -10 -80 -22 -113 -61 -21 -24 -26 -41 -26 -82 0 -97
38 -130 191 -168 96 -24 132 -40 153 -71 55 -78 -36 -170 -151 -154 -70 9
-104 34 -133 93 -23 48 -28 53 -59 53 -32 0 -33 -1 -27 -31 25 -128 143 -197
295 -171 106 18 161 75 161 167 0 98 -59 147 -218 180 -103 22 -146 53 -144
104 0 18 8 42 18 52 37 41 148 48 202 13 13 -9 33 -36 43 -60 17 -38 24 -44
49 -44 33 0 38 17 19 67 -33 87 -138 133 -260 113z"/>
<path d="M2470 1219 l0 -290 38 3 37 3 3 288 2 287 -40 0 -40 0 0 -291z"/>
<path d="M2662 1223 l3 -288 32 -3 33 -3 2 236 3 236 155 -236 155 -235 37 0
38 0 0 290 0 290 -35 0 -35 0 0 -232 c-1 -186 -3 -230 -13 -216 -7 10 -75 114
-152 233 l-140 215 -43 0 -42 0 2 -287z"/>
<path d="M3690 1480 l0 -30 100 0 100 0 0 -260 0 -260 35 0 35 0 0 260 0 260
95 0 95 0 0 30 0 30 -230 0 -230 0 0 -30z"/>
<path d="M4230 1220 l0 -290 35 0 35 0 0 290 0 290 -35 0 -35 0 0 -290z"/>
<path d="M4370 1480 l0 -30 95 0 95 0 2 -257 3 -258 35 0 35 0 3 258 2 257 95
0 95 0 0 30 0 30 -230 0 -230 0 0 -30z"/>
<path d="M4900 1283 c0 -217 1 -230 23 -267 34 -61 91 -86 191 -86 116 1 187
37 215 113 7 17 11 117 11 248 l0 219 -35 0 -35 0 0 -205 c0 -231 -6 -261 -62
-295 -44 -27 -131 -27 -175 0 -59 35 -63 56 -63 290 l0 210 -35 0 -35 0 0
-227z"/>
<path d="M5450 1288 c0 -201 2 -226 20 -262 33 -68 76 -89 186 -94 116 -5 170
16 209 82 25 42 25 46 25 269 l0 227 -35 0 -35 0 0 -214 c0 -205 -1 -214 -23
-247 -12 -18 -34 -39 -47 -46 -40 -20 -130 -16 -168 7 -56 34 -62 64 -62 295
l0 205 -35 0 -35 0 0 -222z"/>
<path d="M5960 1480 l0 -30 95 0 95 0 2 -257 3 -258 35 0 35 0 3 258 2 257 95
0 95 0 0 30 0 30 -230 0 -230 0 0 -30z"/>
</g>
</svg>
