<svg width="148" height="55" viewBox="0 0 148 55" fill="none" xmlns="http://www.w3.org/2000/svg">
<path d="M62.1077 14.4654V18.3456H62.5076C62.9905 18.3456 63.4537 18.5374 63.7952 18.8789C64.1367 19.2204 64.3285 19.6836 64.3285 20.1665V20.7962C64.3262 20.9179 64.3484 21.0388 64.3937 21.1518C64.4389 21.2648 64.5064 21.3676 64.5921 21.4541C64.6778 21.5405 64.7799 21.6089 64.8925 21.6552C65.0051 21.7016 65.1258 21.7248 65.2475 21.7237H71.2889V18.7625C70.84 18.7046 70.4274 18.4853 70.1284 18.1455C69.8293 17.8058 69.6641 17.3687 69.6637 16.9161V15.6567C69.6637 15.431 69.574 15.2146 69.4145 15.055C69.2549 14.8955 69.0385 14.8058 68.8128 14.8058H65.2475C64.748 14.8036 64.2697 14.6035 63.9173 14.2495C63.5649 13.8955 63.367 13.4163 63.367 12.9168V10.9172C63.367 10.6915 63.2774 10.4751 63.1178 10.3155C62.9582 10.1559 62.7418 10.0663 62.5161 10.0663H57.0278V12.619H60.2272C60.7194 12.6211 61.1914 12.8152 61.5426 13.1601C61.8939 13.505 62.0966 13.9733 62.1077 14.4654Z" fill="#397DBF"/>
<path d="M60.1421 21.5874V19.2729H57.0278V22.4468H59.2912C59.5169 22.4468 59.7333 22.3571 59.8929 22.1976C60.0524 22.038 60.1421 21.8216 60.1421 21.5959" fill="#397DBF"/>
<path d="M61.0781 14.4654C61.0781 14.2398 60.9884 14.0233 60.8289 13.8638C60.6693 13.7042 60.4528 13.6145 60.2272 13.6145H57.0278V18.3456H61.0781V14.4654Z" fill="#003F86"/>
<path d="M66.209 28.0798V29.9092C66.2196 30.1005 66.3015 30.2809 66.4385 30.4148C66.5755 30.5487 66.7578 30.6264 66.9493 30.6325H71.2889V22.6425H65.2475C64.7623 22.6425 64.297 22.4498 63.9539 22.1067C63.6108 21.7636 63.4181 21.2983 63.4181 20.8131V20.1834C63.4158 19.9426 63.3192 19.7123 63.1489 19.542C62.9787 19.3718 62.7484 19.2751 62.5076 19.2729H61.1632V21.5874C61.1588 22.0833 60.9604 22.5578 60.6105 22.9092C60.2606 23.2607 59.7871 23.4612 59.2912 23.4679H57.0278V26.0631H64.2179C64.4816 26.0631 64.7426 26.1154 64.9858 26.2171C65.2291 26.3188 65.4497 26.4677 65.6349 26.6553C65.8202 26.8429 65.9663 27.0654 66.0649 27.31C66.1634 27.5545 66.2124 27.8162 66.209 28.0798Z" fill="#0065B1"/>
<path d="M80.7681 9.24932H77.7644V12.3126C77.7621 12.8114 77.5636 13.2893 77.2116 13.6429C76.8597 13.9964 76.3827 14.1971 75.8839 14.2016H75.1861V17.0181H78.4706C78.667 17.0181 78.8552 16.9401 78.9941 16.8013C79.1329 16.6624 79.2109 16.4741 79.2109 16.2778V14.4654C79.2132 13.9365 79.4248 13.4301 79.7996 13.0569C80.1743 12.6838 80.6817 12.4742 81.2105 12.4743H83.6016C83.7987 12.472 83.987 12.3921 84.1256 12.2519C84.2641 12.1118 84.3419 11.9226 84.3419 11.7255V0H82.64V7.36883C82.6356 7.86765 82.4348 8.34466 82.0813 8.6966C81.7278 9.04854 81.2499 9.24711 80.751 9.24932" fill="#ADE1F9"/>
<path d="M70.4553 7.41137C70.681 7.41137 70.8974 7.32172 71.057 7.16215C71.2166 7.00257 71.3062 6.78614 71.3062 6.56047V0H68.4897V7.41137H70.4553Z" fill="#ADE1F9"/>
<path d="M59.9379 6.87525C59.9379 6.64958 59.8482 6.43314 59.6886 6.27357C59.5291 6.11399 59.3126 6.02435 59.087 6.02435H57.0278V9.02804H59.9379V6.87525Z" fill="#ADE1F9"/>
<path d="M60.9929 6.8753V9.02809H62.5331C63.0289 9.03698 63.5016 9.23965 63.8499 9.59271C64.1982 9.94577 64.3944 10.4212 64.3966 10.9171V12.8827C64.3966 13.1084 64.4862 13.3248 64.6458 13.4844C64.8054 13.6439 65.0218 13.7336 65.2475 13.7336H68.8128C69.3108 13.7381 69.7869 13.9391 70.1375 14.2928C70.4881 14.6466 70.6848 15.1245 70.6847 15.6226V16.8819C70.6847 17.1076 70.7744 17.324 70.934 17.4836C71.0935 17.6432 71.31 17.7328 71.5356 17.7328H73.9352V13.1124C73.9308 12.8257 73.8143 12.5522 73.6108 12.3502C73.4072 12.1483 73.1328 12.034 72.846 12.0318H69.5786C68.958 12.0318 68.3628 11.7852 67.9239 11.3464C67.4851 10.9076 67.2386 10.3124 67.2386 9.69179V5.71807H63.5457C63.0469 5.71807 62.5686 5.51995 62.2159 5.16729C61.8633 4.81463 61.6652 4.33632 61.6652 3.83758V0H58.4402C58.0776 0.00223173 57.7304 0.147282 57.474 0.403717C57.2176 0.660151 57.0725 1.00731 57.0703 1.36996V4.9948H59.121C59.6182 4.99706 60.0944 5.19617 60.4452 5.54859C60.796 5.90101 60.993 6.37803 60.9929 6.8753Z" fill="#64B4E4"/>
<path d="M80.7681 8.21973C80.9938 8.21973 81.2102 8.13008 81.3698 7.97051C81.5294 7.81093 81.619 7.5945 81.619 7.36883V0H77.7644V8.21973H80.7681Z" fill="#64B4E4"/>
<path d="M87.0051 6.2116H85.6011V9.7003H90.4768C90.6372 9.69985 90.7942 9.65408 90.9297 9.56826C91.0652 9.48245 91.1737 9.36009 91.2426 9.21529V1.36996C91.2426 1.19005 91.2072 1.01191 91.1383 0.845696C91.0695 0.679485 90.9686 0.528463 90.8414 0.401251C90.7142 0.274038 90.5631 0.173128 90.3969 0.104282C90.2307 0.0354349 90.0526 0 89.8727 0L88.8856 0V4.3311C88.8856 4.82984 88.6875 5.30815 88.3348 5.66081C87.9822 6.01347 87.5039 6.2116 87.0051 6.2116Z" fill="#397DBF"/>
<path d="M70.4553 8.44097H68.4897V9.69179C68.4941 9.97929 68.6103 10.2538 68.8136 10.4571C69.0169 10.6604 69.2914 10.7766 69.5789 10.781H72.8463C73.4655 10.7809 74.0594 11.0263 74.498 11.4633C74.9366 11.9003 75.1841 12.4933 75.1863 13.1124V13.172H75.8841C76.1097 13.172 76.3262 13.0823 76.4858 12.9228C76.6453 12.7632 76.735 12.5468 76.735 12.3211V0H72.3358V6.55196C72.3336 7.0508 72.135 7.52871 71.7831 7.88224C71.4311 8.23577 70.9541 8.4365 70.4553 8.44097Z" fill="#64B4E4"/>
<path d="M85.6014 10.7301V11.7426C85.6014 12.273 85.3907 12.7816 85.0157 13.1566C84.6407 13.5316 84.1321 13.7423 83.6017 13.7423H81.2107C81.0142 13.7444 80.8263 13.8228 80.6866 13.961C80.5469 14.0991 80.4663 14.2861 80.4619 14.4825V16.3035C80.4619 16.8323 80.2524 17.3397 79.8792 17.7144C79.5061 18.0892 78.9997 18.3009 78.4708 18.3031H75.2799V20.7027H81.3298C81.524 20.6983 81.7089 20.6186 81.8454 20.4805C81.9819 20.3423 82.0595 20.1566 82.0616 19.9624V18.1329C82.0683 17.6078 82.2823 17.1066 82.6568 16.7385C83.0313 16.3703 83.5361 16.165 84.0612 16.1673H91.2429V10.5684C91.0016 10.6749 90.7408 10.73 90.4771 10.7301H85.6014Z" fill="#0065B1"/>
<path d="M84.461 25.9696V25.8845C84.461 25.6589 84.3714 25.4424 84.2118 25.2829C84.0522 25.1233 83.8358 25.0336 83.6101 25.0336H80.632C80.4063 25.0336 80.1899 25.1233 80.0303 25.2829C79.8707 25.4424 79.7811 25.6589 79.7811 25.8845V26.5738C79.7811 27.0725 79.5829 27.5508 79.2303 27.9035C78.8776 28.2562 78.3993 28.4543 77.9006 28.4543H75.8499V32.8449C75.8499 33.2083 75.9942 33.5567 76.2511 33.8136C76.5081 34.0706 76.8565 34.2149 77.2198 34.2149H89.8728C90.2361 34.2149 90.5846 34.0706 90.8415 33.8136C91.0984 33.5567 91.2427 33.2083 91.2427 32.8449V27.8501H86.3415C85.8427 27.8457 85.3657 27.6449 85.0138 27.2914C84.6618 26.9379 84.4633 26.46 84.461 25.9611" fill="#003F86"/>
<path d="M87.1923 19.3836C87.1923 19.6093 87.2819 19.8257 87.4415 19.9853C87.6011 20.1449 87.8175 20.2345 88.0432 20.2345H91.2341V17.3925H87.1838V19.3836" fill="#397DBF"/>
<path d="M87.0051 5.19051C87.2308 5.19051 87.4472 5.10086 87.6068 4.94129C87.7664 4.78171 87.856 4.56528 87.856 4.33961V0H85.6011V5.19051H87.0051Z" fill="#64B4E4"/>
<path d="M71.2889 32.8449V31.8748H66.9493C66.4205 31.8749 65.9131 31.6653 65.5384 31.2922C65.1636 30.919 64.9519 30.4126 64.9497 29.8837V28.0798C64.9475 27.8842 64.8688 27.6972 64.7304 27.5588C64.5921 27.4204 64.4051 27.3417 64.2094 27.3395H57.0278V32.8704C57.0322 33.0514 57.0722 33.2298 57.1456 33.3954C57.219 33.561 57.3243 33.7104 57.4555 33.8353C57.5866 33.9601 57.7411 34.0579 57.9101 34.123C58.0791 34.1882 58.2592 34.2194 58.4403 34.2148H69.919C70.2823 34.2148 70.6308 34.0705 70.8877 33.8136C71.1446 33.5567 71.2889 33.2082 71.2889 32.8449Z" fill="#003F86"/>
<path d="M63.5458 4.69699H67.2557V0H62.6949V3.83758C62.6949 4.06325 62.7845 4.27968 62.9441 4.43926C63.1037 4.59883 63.3201 4.68848 63.5458 4.68848" fill="#64B4E4"/>
<path d="M86.1713 19.3836V17.3925H84.0611C83.8655 17.3947 83.6784 17.4734 83.5401 17.6118C83.4017 17.7501 83.323 17.9371 83.3208 18.1328V19.9622C83.3186 20.4911 83.1069 20.9975 82.7321 21.3707C82.3574 21.7438 81.8501 21.9534 81.3212 21.9533H75.8499V27.4332H77.9006C78.1262 27.4332 78.3427 27.3435 78.5022 27.1839C78.6618 27.0244 78.7515 26.8079 78.7515 26.5823V25.9015C78.7537 25.4027 78.9523 24.9248 79.3042 24.5713C79.6561 24.2177 80.1331 24.017 80.632 24.0125H83.6016C84.1011 24.0148 84.5794 24.2148 84.9319 24.5688C85.2843 24.9228 85.4821 25.402 85.4821 25.9015V25.9781C85.4821 26.2038 85.5718 26.4202 85.7313 26.5798C85.8909 26.7394 86.1073 26.829 86.333 26.829H91.2342V21.2726H88.0518C87.5523 21.2704 87.074 21.0704 86.7216 20.7164C86.3692 20.3623 86.1713 19.8831 86.1713 19.3836Z" fill="#0065B1"/>
<path d="M0.578979 42.8514H7.53937V44.2128H2.1021V47.9313H7.14796V49.2927H2.1021V53.309H7.55639V54.6704H0.578979V42.8514Z" fill="#0C3984"/>
<path d="M11.1216 49.6842H14.8401V48.978C14.8401 47.7697 14.4317 47.089 13.0277 47.089C11.6237 47.089 11.1216 47.7697 11.1216 48.978V49.6842ZM13.1893 53.6069C14.1062 53.5722 15.0151 53.4236 15.8952 53.1644L16.0909 54.3557C15.1063 54.6854 14.0745 54.8521 13.0362 54.8492C10.4835 54.8492 9.63257 53.6239 9.63257 51.6754V49.1226C9.63257 47.3272 10.4835 45.8892 13.0362 45.8892C15.5889 45.8892 16.2866 47.3698 16.2866 49.1567V50.9691H11.1216V51.7009C11.1216 53.0198 11.496 53.6069 13.1893 53.6069Z" fill="#0C3984"/>
<path d="M21.0006 54.8492C20.0632 54.8415 19.1329 54.6864 18.2437 54.3897L18.4479 53.2155C19.2522 53.4377 20.0812 53.5578 20.9155 53.5729C22.2855 53.5729 22.5152 53.3261 22.5152 52.3986C22.5152 51.4711 22.4471 51.369 20.7028 50.9436C18.5585 50.416 18.3628 49.965 18.3628 48.1781C18.3628 46.5784 19.0691 45.8467 21.341 45.8467C22.1675 45.844 22.9911 45.947 23.7916 46.153L23.6895 47.3783C22.8985 47.2255 22.0955 47.1429 21.2899 47.1315C20.0136 47.1315 19.8349 47.4293 19.8349 48.2122C19.8349 49.1737 19.8349 49.3439 21.3069 49.7012C23.7916 50.3224 23.9873 50.6287 23.9873 52.3476C23.9873 54.0664 23.4767 54.8492 21.0091 54.8492" fill="#0C3984"/>
<path d="M30.9221 54.5345C30.3406 54.743 29.7274 54.8496 29.1097 54.8493C27.6546 54.8493 26.9654 54.3217 26.9654 52.8837V47.2677H25.4337V46.0254H26.9569V43.8982L28.4459 43.6854V46.0254H30.8966L30.7689 47.2677H28.4545V52.6284C28.4545 53.2751 28.5481 53.59 29.3054 53.59C29.775 53.5796 30.2412 53.5081 30.6923 53.3772L30.888 54.5345" fill="#0C3984"/>
<path d="M34.4535 54.6705H32.9644V46.0254H34.4535V54.6705ZM34.4535 44.6469H32.9644V42.4941H34.4535V44.6469Z" fill="#0C3984"/>
<path d="M44.8259 48.6546L49.5143 54.6704H47.6849L43.1241 48.6546L47.3786 42.8514H49.174L44.8259 48.6546ZM42.7326 54.6704H41.201V42.8514H42.7326V54.6704Z" fill="#0C3984"/>
<path d="M52.1267 49.6844H55.8366V48.9781C55.8366 47.7698 55.4282 47.0891 54.0242 47.0891C52.6202 47.0891 52.1267 47.7698 52.1267 48.9781V49.6844ZM54.1859 53.607C55.1098 53.5855 56.0274 53.4483 56.9173 53.1986L57.113 54.3899C56.1284 54.7195 55.0965 54.8862 54.0582 54.8834C51.5055 54.8834 50.6546 53.6581 50.6546 51.7095V49.1568C50.6546 47.3614 51.5055 45.9234 54.0582 45.9234C56.6109 45.9234 57.3087 47.4039 57.3087 49.1908V51.0033H52.2032V51.735C52.1267 53.0199 52.484 53.607 54.1859 53.607Z" fill="#0C3984"/>
<path d="M60.6611 49.6844H64.3966V48.9781C64.3966 47.7698 63.9882 47.0891 62.5927 47.0891C61.1972 47.0891 60.6867 47.7698 60.6867 48.9781V49.6844H60.6611ZM62.6948 53.607C63.6215 53.5854 64.542 53.4482 65.4347 53.1986L65.6304 54.3899C64.6458 54.7195 63.614 54.8862 62.5757 54.8834C60.023 54.8834 59.1721 53.6581 59.1721 51.7095V49.1568C59.1721 47.3614 60.023 45.9234 62.5757 45.9234C65.1284 45.9234 65.8176 47.4039 65.8176 49.1908V51.0033H60.7122V51.735C60.6611 53.0199 61.0355 53.607 62.6948 53.607Z" fill="#0C3984"/>
<path d="M68.1579 54.6706V42.4942L69.647 42.2814V54.6706H68.1579Z" fill="#0C3984"/>
<path d="M73.5355 49.6844H77.2455V48.9781C77.2455 47.7698 76.837 47.0891 75.4331 47.0891C74.0291 47.0891 73.5355 47.7698 73.5355 48.9781V49.6844ZM75.5947 53.607C76.5187 53.5855 77.4363 53.4483 78.3261 53.1986L78.5218 54.3899C77.5374 54.7203 76.5055 54.887 75.4671 54.8834C72.9144 54.8834 72.0635 53.6581 72.0635 51.7095V49.1568C72.0635 47.3614 72.9144 45.9234 75.4671 45.9234C78.0198 45.9234 78.7175 47.4039 78.7175 49.1908V51.0033H73.5355V51.735C73.5355 53.0199 73.9099 53.607 75.5947 53.607Z" fill="#0C3984"/>
<path d="M86.554 42.8514H85.0224V54.679H86.554V42.8514Z" fill="#0C3984"/>
<path d="M94.7908 54.6705V48.0675C94.7908 47.4974 94.5015 47.2676 93.9399 47.2676C92.9301 47.364 91.9481 47.6528 91.0468 48.1185V54.6449H89.5493V46.0253H90.7746L90.9192 46.7741C92.0087 46.2438 93.1905 45.9288 94.3994 45.8466C95.7864 45.8466 96.2799 46.6975 96.2799 48.0504V54.6705H94.7908Z" fill="#0C3984"/>
<path d="M101.428 54.8492C100.493 54.8414 99.5659 54.6864 98.6796 54.3897L98.8753 53.2155C99.6794 53.4389 100.509 53.559 101.343 53.5728C102.704 53.5728 102.934 53.3261 102.934 52.3986C102.934 51.4711 102.866 51.369 101.13 50.9435C98.9774 50.416 98.7817 49.965 98.7817 48.1781C98.7817 46.5784 99.4965 45.8466 101.768 45.8466C102.595 45.8446 103.418 45.9475 104.219 46.153L104.108 47.3783C103.32 47.2257 102.52 47.1431 101.717 47.1315C100.432 47.1315 100.262 47.4293 100.262 48.2121C100.262 49.1737 100.262 49.3438 101.734 49.7012C104.219 50.3224 104.415 50.6287 104.415 52.3475C104.415 54.0664 103.896 54.8492 101.428 54.8492Z" fill="#0C3984"/>
<path d="M111.341 54.5345C110.759 54.7422 110.146 54.8487 109.528 54.8493C108.073 54.8493 107.376 54.3217 107.376 52.8837V47.2677H105.853V46.0254H107.376V43.8982L108.865 43.6854V46.0254H111.315L111.196 47.2677H108.865V52.6284C108.865 53.2751 108.958 53.59 109.716 53.59C110.185 53.5796 110.652 53.5081 111.103 53.3772L111.298 54.5345" fill="#0C3984"/>
<path d="M114.873 54.6705H113.375V46.0254H114.873V54.6705ZM114.873 44.6469H113.375V42.4941H114.873V44.6469Z" fill="#0C3984"/>
<path d="M122.258 54.5345C121.677 54.7422 121.063 54.8487 120.446 54.8493C118.991 54.8493 118.293 54.3217 118.293 52.8837V47.2677H116.77V46.0254H118.293V43.8982L119.791 43.6854V46.0254H122.233L122.114 47.2677H119.791V52.6284C119.791 53.2751 119.876 53.59 120.642 53.59C121.111 53.5796 121.577 53.5081 122.028 53.3772L122.224 54.5345" fill="#0C3984"/>
<path d="M125.662 46.0252V52.6283C125.662 53.1984 125.951 53.4281 126.513 53.4281C127.525 53.3287 128.509 53.0401 129.414 52.5772V46.0252H130.904V54.6704H129.695L129.551 53.9301C128.461 54.4587 127.279 54.7708 126.07 54.8491C124.692 54.8491 124.19 53.9982 124.19 52.6538V46.0252H125.662Z" fill="#0C3984"/>
<path d="M135.133 46.0252V52.6283C135.133 53.1984 135.413 53.4281 135.983 53.4281C136.992 53.3273 137.974 53.0387 138.877 52.5772V46.0252H140.366V54.6704H139.157L139.013 53.9301C137.923 54.4587 136.741 54.7708 135.532 54.8491C134.154 54.8491 133.652 53.9982 133.652 52.6538V46.0252H135.15" fill="#0C3984"/>
<path d="M147.7 54.5345C147.119 54.7422 146.506 54.8487 145.888 54.8493C144.433 54.8493 143.744 54.3217 143.744 52.8837V47.2677H142.212V46.0254H143.744V43.8982L145.233 43.6854V46.0254H147.683L147.556 47.2677H145.233V52.6284C145.233 53.2751 145.318 53.59 146.084 53.59C146.553 53.5796 147.019 53.5081 147.471 53.3772L147.666 54.5345" fill="#0C3984"/>
</svg>
