<svg width="117" height="65" viewBox="0 0 117 65" fill="none" xmlns="http://www.w3.org/2000/svg">
<path d="M14.876 50.127V45.6099H18.1402V46.1446H15.4746V47.5253H17.9726V48.06H15.4746V49.5923H18.2519V50.127H14.876Z" fill="#1A1A18"/>
<path d="M21.1488 50.127V49.6481C21.0378 49.8213 20.8839 49.963 20.7022 50.0595C20.5205 50.1559 20.317 50.2039 20.1113 50.1988C19.9252 50.2014 19.7406 50.1661 19.5686 50.0951C19.4221 50.035 19.2931 49.9389 19.1935 49.8157C19.1092 49.6907 19.0521 49.5493 19.0259 49.4007C19.0096 49.2282 19.0096 49.0545 19.0259 48.882V46.8549H19.5766V48.6825C19.5629 48.8764 19.5629 49.0711 19.5766 49.2651C19.6108 49.4011 19.6894 49.5219 19.8 49.6082C19.9241 49.6942 20.0721 49.7389 20.223 49.7359C20.3858 49.7341 20.5452 49.6901 20.6859 49.6082C20.8273 49.5309 20.9373 49.4067 20.9972 49.2571C21.0708 49.0526 21.1033 48.8357 21.0929 48.6186V46.8629H21.6436V50.135L21.1488 50.127Z" fill="#1A1A18"/>
<path d="M22.5054 50.127V46.8549H23.0082V47.3497C23.0889 47.1732 23.2091 47.0175 23.3594 46.8948C23.4622 46.8225 23.5848 46.7835 23.7105 46.783C23.9149 46.7854 24.1143 46.8464 24.2851 46.9586L24.0936 47.4774C23.9712 47.4015 23.8306 47.3601 23.6866 47.3576C23.5691 47.3553 23.4541 47.3918 23.3594 47.4614C23.2616 47.5396 23.1894 47.6452 23.1519 47.7647C23.0888 47.9769 23.0592 48.1977 23.0641 48.4191V50.127H22.5054Z" fill="#1A1A18"/>
<path d="M24.4049 48.491C24.3843 48.2423 24.4194 47.9922 24.5078 47.7588C24.5962 47.5255 24.7355 47.3148 24.9157 47.1422C25.2028 46.8997 25.5695 46.7718 25.9452 46.7831C26.1492 46.7757 26.3525 46.8109 26.5421 46.8865C26.7318 46.962 26.9035 47.0763 27.0465 47.222C27.1943 47.3874 27.3078 47.5805 27.3804 47.7901C27.453 47.9997 27.4833 48.2217 27.4695 48.4431C27.4948 48.7987 27.4317 49.1551 27.2859 49.4806C27.163 49.7181 26.971 49.9129 26.7353 50.0392C26.4913 50.1743 26.2161 50.2431 25.9372 50.2387C25.7306 50.2479 25.5244 50.2136 25.3319 50.1379C25.1395 50.0623 24.965 49.9471 24.8199 49.7998C24.5193 49.4479 24.3676 48.9927 24.3969 48.5309L24.4049 48.491ZM24.9795 48.491C24.9518 48.8275 25.0483 49.1625 25.2509 49.4327C25.337 49.531 25.4432 49.6098 25.5622 49.6638C25.6813 49.7178 25.8105 49.7457 25.9412 49.7457C26.0719 49.7457 26.2011 49.7178 26.3202 49.6638C26.4392 49.6098 26.5454 49.531 26.6315 49.4327C26.8352 49.1569 26.9316 48.8166 26.9029 48.475C26.9284 48.1461 26.8318 47.8193 26.6315 47.5572C26.5482 47.4562 26.4433 47.3751 26.3245 47.3198C26.2058 47.2646 26.0762 47.2366 25.9452 47.238C25.8136 47.235 25.683 47.2614 25.5629 47.3153C25.4428 47.3691 25.3362 47.449 25.2509 47.5492C25.0496 47.8201 24.9532 48.1546 24.9795 48.491Z" fill="#1A1A18"/>
<path d="M27.9323 48.4909C27.9123 48.243 27.947 47.9937 28.0339 47.7607C28.1208 47.5277 28.2577 47.3165 28.4351 47.1422C28.7255 46.9053 29.0899 46.7782 29.4646 46.783C29.6699 46.775 29.8746 46.8099 30.0656 46.8855C30.2566 46.9611 30.4297 47.0757 30.5739 47.222C30.8694 47.5579 31.0213 47.9963 30.9969 48.443C31.013 48.7997 30.9447 49.1552 30.7974 49.4805C30.6736 49.7201 30.4784 49.9154 30.2387 50.0392C29.9947 50.1743 29.7195 50.2431 29.4407 50.2387C29.2354 50.2467 29.0307 50.2118 28.8397 50.1363C28.6487 50.0607 28.4755 49.9461 28.3313 49.7997C28.1818 49.6187 28.0695 49.4098 28.001 49.1852C27.9325 48.9606 27.9092 48.7246 27.9323 48.4909ZM28.4989 48.4909C28.4597 48.8225 28.5419 49.157 28.7304 49.4326C28.8165 49.531 28.9227 49.6097 29.0417 49.6637C29.1608 49.7177 29.29 49.7456 29.4207 49.7456C29.5514 49.7456 29.6806 49.7177 29.7997 49.6637C29.9187 49.6097 30.0249 49.531 30.111 49.4326C30.3108 49.155 30.4069 48.8161 30.3824 48.475C30.4057 48.145 30.3062 47.8182 30.1031 47.5572C30.0209 47.4548 29.9162 47.3727 29.7972 47.3173C29.6782 47.262 29.548 47.2348 29.4167 47.2379C29.2865 47.2362 29.1574 47.2631 29.0388 47.3169C28.9202 47.3707 28.8149 47.45 28.7304 47.5492C28.5376 47.8233 28.4498 48.1575 28.483 48.4909H28.4989Z" fill="#1A1A18"/>
<path d="M31.6356 51.38V46.8549H32.1383V47.2779C32.2453 47.127 32.3843 47.0016 32.5454 46.9108C32.7111 46.8191 32.8989 46.7749 33.088 46.7831C33.349 46.7743 33.6062 46.8463 33.8247 46.9891C34.0432 47.1319 34.2124 47.3387 34.3091 47.5811C34.5428 48.1458 34.5428 48.7802 34.3091 49.3449C34.2019 49.5847 34.0269 49.788 33.8057 49.9298C33.5846 50.0715 33.3268 50.1456 33.0641 50.143C32.8923 50.1486 32.722 50.1101 32.5693 50.0312C32.4276 49.9596 32.3025 49.859 32.2022 49.7359V51.3321L31.6356 51.38ZM32.1383 48.5149C32.1038 48.8571 32.1945 49.2002 32.3937 49.4806C32.468 49.5721 32.5616 49.6461 32.6679 49.6971C32.7741 49.7482 32.8904 49.7751 33.0082 49.7758C33.1315 49.7768 33.2532 49.7492 33.364 49.6952C33.4748 49.6412 33.5715 49.5622 33.6467 49.4646C33.8449 49.1835 33.9381 48.8417 33.9101 48.4989C33.9358 48.1638 33.8425 47.8304 33.6467 47.5572C33.574 47.4627 33.4811 47.3857 33.3748 47.3319C33.2684 47.278 33.1514 47.2486 33.0322 47.246C32.9096 47.2502 32.7898 47.2827 32.6818 47.3409C32.5738 47.399 32.4807 47.4812 32.4097 47.5811C32.2158 47.8525 32.1201 48.1819 32.1383 48.5149Z" fill="#1A1A18"/>
<path d="M37.2778 49.728C37.1003 49.879 36.9012 50.0028 36.6872 50.0951C36.4903 50.1662 36.2821 50.2014 36.0727 50.1989C35.7835 50.2111 35.4998 50.1175 35.2747 49.9355C35.1811 49.8512 35.107 49.7476 35.0573 49.6319C35.0077 49.5161 34.9839 49.391 34.9873 49.2651C34.9814 49.1111 35.0202 48.9586 35.0991 48.8262C35.1661 48.697 35.265 48.5871 35.3864 48.5069C35.5072 48.4221 35.6424 48.36 35.7854 48.3234C35.9461 48.2876 36.1086 48.261 36.2722 48.2436C36.6074 48.2108 36.9387 48.1467 37.2618 48.052C37.2643 48.0042 37.2643 47.9562 37.2618 47.9084C37.2712 47.8218 37.2618 47.7342 37.2342 47.6516C37.2067 47.569 37.1617 47.4932 37.1022 47.4296C36.923 47.2899 36.6984 47.2216 36.4718 47.238C36.2672 47.2228 36.0632 47.2731 35.8892 47.3817C35.7448 47.5041 35.6486 47.6738 35.6178 47.8605L35.0751 47.7887C35.1108 47.5865 35.1928 47.3953 35.3146 47.23C35.4465 47.076 35.6174 46.9603 35.8094 46.8948C36.0491 46.8179 36.2998 46.7801 36.5516 46.7831C36.7815 46.7758 37.011 46.8082 37.2299 46.8789C37.3755 46.9296 37.5069 47.0144 37.613 47.1263C37.7029 47.2371 37.7633 47.3689 37.7886 47.5094C37.8022 47.6793 37.8022 47.8501 37.7886 48.0201V48.7543C37.7687 49.0813 37.7687 49.4091 37.7886 49.736C37.8137 49.8736 37.8623 50.0059 37.9322 50.127H37.3496C37.289 50.0017 37.2512 49.8666 37.2379 49.728H37.2778ZM37.2299 48.483C36.9386 48.5893 36.636 48.6616 36.3281 48.6985C36.1613 48.7123 35.9974 48.75 35.8413 48.8102C35.752 48.8433 35.6763 48.9051 35.6258 48.9858C35.5722 49.063 35.5442 49.1552 35.546 49.2492C35.5449 49.3201 35.5593 49.3905 35.5883 49.4552C35.6172 49.52 35.66 49.5777 35.7136 49.6242C35.8564 49.729 36.0317 49.7799 36.2084 49.7679C36.4066 49.7708 36.6021 49.7212 36.775 49.6242C36.9375 49.5422 37.067 49.407 37.1421 49.2412C37.2124 49.0665 37.2424 48.8783 37.2299 48.6905V48.483Z" fill="#1A1A18"/>
<path d="M40.454 50.127V45.6099H41.0525V49.5923H43.2712V50.127H40.454Z" fill="#1A1A18"/>
<path d="M43.894 46.2883V45.6498H44.4526V46.2883H43.894ZM43.894 50.1669V46.8948H44.4526V50.1669H43.894Z" fill="#1A1A18"/>
<path d="M45.3226 46.2883V45.6498H45.8732V46.2883H45.3226ZM45.3226 50.1669V46.8948H45.8732V50.1669H45.3226Z" fill="#1A1A18"/>
<path d="M47.9322 49.6321L48.012 50.119C47.8731 50.1512 47.7315 50.1699 47.589 50.1748C47.429 50.1831 47.2696 50.1502 47.1261 50.0791C47.0214 50.0213 46.9375 49.9319 46.8867 49.8237C46.8324 49.61 46.8109 49.3894 46.8228 49.1693V47.2858H46.4158V46.8549H46.8228V46.0568L47.3735 45.7216V46.8628H47.9322V47.2938H47.3735V49.2092C47.3541 49.3093 47.3541 49.4123 47.3735 49.5124C47.3913 49.5598 47.4252 49.5993 47.4693 49.6242C47.5295 49.6397 47.5926 49.6397 47.6528 49.6242L47.9322 49.6321Z" fill="#1A1A18"/>
<path d="M4.88409 56.5675V52.0504H8.14821V52.5851H5.48265V53.9658H7.98061V54.5005H5.48265V56.0328H8.25994V56.5675H4.88409Z" fill="#1A1A18"/>
<path d="M11.1728 56.5674V56.0886C11.0612 56.2613 10.9073 56.4025 10.7257 56.4989C10.5441 56.5953 10.3409 56.6436 10.1353 56.6393C9.94925 56.6418 9.76462 56.6065 9.59262 56.5355C9.44609 56.4754 9.31708 56.3794 9.21753 56.2562C9.13323 56.1311 9.07613 55.9897 9.04993 55.8412C9.03361 55.6687 9.03361 55.495 9.04993 55.3225V53.2954H9.57666V55.115C9.5589 55.3088 9.5589 55.5038 9.57666 55.6976C9.60911 55.8344 9.6881 55.9557 9.80012 56.0407C9.92419 56.1267 10.0722 56.1713 10.2231 56.1684C10.3857 56.1655 10.5449 56.1216 10.686 56.0407C10.8253 55.9609 10.9347 55.8375 10.9972 55.6896C11.0675 55.4844 11.0973 55.2676 11.085 55.0511V53.2954H11.6437V56.5674H11.1728Z" fill="#1A1A18"/>
<path d="M12.5137 56.5675V53.2954H13.0165V53.7902C13.0972 53.6137 13.2173 53.4581 13.3676 53.3353C13.4705 53.263 13.5931 53.224 13.7188 53.2236C13.9232 53.226 14.1226 53.2869 14.2934 53.3992L14.1019 53.9179C13.9795 53.842 13.8388 53.8007 13.6948 53.7982C13.5773 53.7959 13.4623 53.8324 13.3676 53.902C13.2699 53.9802 13.1977 54.0858 13.1601 54.2052C13.0971 54.4175 13.0674 54.6383 13.0724 54.8596V56.5675H12.5137Z" fill="#1A1A18"/>
<path d="M14.4131 54.9314C14.3925 54.6827 14.4277 54.4326 14.516 54.1993C14.6044 53.9659 14.7438 53.7553 14.9239 53.5826C15.2131 53.3382 15.583 53.2102 15.9614 53.2235C16.1667 53.2155 16.3714 53.2504 16.5624 53.3259C16.7534 53.4015 16.9265 53.5161 17.0707 53.6624C17.2185 53.8279 17.332 54.021 17.4046 54.2306C17.4772 54.4402 17.5075 54.6621 17.4937 54.8835C17.5012 55.2215 17.4331 55.5569 17.2942 55.8651C17.1712 56.1027 16.9793 56.2974 16.7435 56.4238C16.508 56.5702 16.2385 56.6527 15.9614 56.6632C15.7561 56.6712 15.5515 56.6363 15.3604 56.5608C15.1694 56.4852 14.9963 56.3706 14.8521 56.2243C14.5515 55.8724 14.3997 55.4172 14.4291 54.9553L14.4131 54.9314ZM14.9878 54.9314C14.962 55.2652 15.0584 55.5971 15.2591 55.8651C15.3452 55.9635 15.4514 56.0422 15.5705 56.0962C15.6895 56.1502 15.8187 56.1781 15.9494 56.1781C16.0802 56.1781 16.2094 56.1502 16.3284 56.0962C16.4475 56.0422 16.5536 55.9635 16.6398 55.8651C16.8396 55.5875 16.9356 55.2486 16.9111 54.9074C16.9344 54.5775 16.8349 54.2507 16.6318 53.9897C16.5484 53.8886 16.4436 53.8075 16.3248 53.7523C16.206 53.697 16.0764 53.6691 15.9454 53.6704C15.8154 53.6703 15.6869 53.698 15.5685 53.7516C15.4501 53.8053 15.3446 53.8838 15.2591 53.9817C15.056 54.2546 14.9595 54.5923 14.9878 54.9314Z" fill="#1A1A18"/>
<path d="M17.9247 54.9314C17.9047 54.6835 17.9394 54.4342 18.0263 54.2012C18.1131 53.9681 18.2501 53.757 18.4275 53.5826C18.7178 53.3458 19.0823 53.2187 19.457 53.2235C19.6622 53.2155 19.8669 53.2504 20.0579 53.3259C20.249 53.4015 20.4221 53.5161 20.5663 53.6624C20.8618 53.9984 21.0136 54.4368 20.9893 54.8835C21.0033 55.2212 20.9377 55.5575 20.7977 55.8651C20.6792 56.1058 20.486 56.3018 20.2471 56.4238C20.003 56.5589 19.7279 56.6277 19.449 56.6233C19.2475 56.6312 19.0466 56.5977 18.8585 56.525C18.6705 56.4522 18.4993 56.3417 18.3556 56.2003C18.055 55.8484 17.9033 55.3933 17.9327 54.9314H17.9247ZM18.4913 54.9314C18.4678 55.2662 18.5671 55.5982 18.7706 55.8651C18.8551 55.9643 18.9604 56.0436 19.0791 56.0974C19.1977 56.1512 19.3267 56.1781 19.457 56.1764C19.5875 56.1799 19.7171 56.1537 19.836 56.0997C19.9549 56.0458 20.06 55.9656 20.1433 55.8651C20.3498 55.5905 20.4491 55.25 20.4226 54.9074C20.4459 54.5775 20.3464 54.2507 20.1433 53.9897C20.06 53.8886 19.9551 53.8075 19.8363 53.7523C19.7176 53.697 19.5879 53.6691 19.457 53.6704C19.327 53.6703 19.1985 53.698 19.0801 53.7516C18.9617 53.8053 18.8562 53.8838 18.7706 53.9817C18.5647 54.2535 18.4653 54.5913 18.4913 54.9314Z" fill="#1A1A18"/>
<path d="M21.6437 57.8204V53.2954H22.1465V53.7183C22.2534 53.5674 22.3924 53.4421 22.5535 53.3512C22.7192 53.2596 22.907 53.2154 23.0962 53.2235C23.3567 53.2171 23.6129 53.29 23.831 53.4325C24.0491 53.575 24.2187 53.7805 24.3173 54.0216C24.5509 54.5863 24.5509 55.2207 24.3173 55.7853C24.2101 56.0422 24.0261 56.2597 23.7905 56.4078C23.5746 56.5414 23.3262 56.6131 23.0723 56.6153C22.8981 56.6199 22.7254 56.5816 22.5695 56.5036C22.4315 56.4298 22.3095 56.3294 22.2104 56.2083V57.8045L21.6437 57.8204ZM22.1465 54.9554C22.1253 55.2789 22.2154 55.5999 22.4019 55.8652C22.4762 55.9567 22.5698 56.0307 22.676 56.0817C22.7823 56.1328 22.8985 56.1597 23.0164 56.1604C23.1396 56.1614 23.2614 56.1338 23.3722 56.0798C23.483 56.0258 23.5797 55.9468 23.6549 55.8492C23.8562 55.5777 23.9576 55.2451 23.9422 54.9075C23.9679 54.5724 23.8747 54.2389 23.6788 53.9657C23.6061 53.8713 23.5132 53.7943 23.4069 53.7404C23.3005 53.6865 23.1835 53.6572 23.0643 53.6545C22.9418 53.6588 22.8219 53.6913 22.7139 53.7494C22.606 53.8075 22.5128 53.8897 22.4418 53.9897C22.2323 54.2665 22.1277 54.6087 22.1465 54.9554Z" fill="#1A1A18"/>
<path d="M27.2859 56.1685C27.1084 56.3195 26.9093 56.4432 26.6953 56.5356C26.4984 56.6067 26.2902 56.6418 26.0808 56.6393C25.7926 56.6539 25.509 56.5631 25.2827 56.384C25.189 56.2981 25.1148 56.1931 25.0652 56.0761C25.0157 55.959 24.9918 55.8327 24.9954 55.7056C24.9895 55.5516 25.0283 55.3991 25.1072 55.2667C25.1738 55.1397 25.2695 55.0303 25.3865 54.9474C25.5129 54.8675 25.6499 54.8057 25.7935 54.7639C25.9541 54.7281 26.1167 54.7015 26.2803 54.6841C26.6155 54.6513 26.9468 54.5872 27.2699 54.4925C27.2699 54.4127 27.2699 54.3648 27.2699 54.3489C27.2778 54.2624 27.2676 54.1752 27.2401 54.0928C27.2127 54.0104 27.1685 53.9345 27.1103 53.87C26.9311 53.7303 26.7065 53.6621 26.4798 53.6785C26.2753 53.6633 26.0713 53.7136 25.8973 53.8221C25.7529 53.9445 25.6567 54.1142 25.6259 54.301L25.0593 54.2691C25.095 54.0669 25.1769 53.8757 25.2987 53.7104C25.429 53.5546 25.6005 53.4384 25.7935 53.3752C26.033 53.297 26.2838 53.2592 26.5357 53.2635C26.7657 53.2562 26.9951 53.2886 27.2141 53.3593C27.3597 53.41 27.491 53.4948 27.5971 53.6067C27.687 53.7175 27.7474 53.8493 27.7727 53.9897C27.7848 54.1598 27.7848 54.3305 27.7727 54.5005V55.2347C27.7644 55.5625 27.7778 55.8904 27.8126 56.2164C27.8373 56.3529 27.8831 56.4849 27.9483 56.6074H27.3737C27.3131 56.4821 27.2752 56.347 27.262 56.2084L27.2859 56.1685ZM27.238 54.9235C26.9467 55.0298 26.6441 55.1021 26.3362 55.139C26.1694 55.1528 26.0055 55.1904 25.8494 55.2507C25.7601 55.2838 25.6844 55.3455 25.6339 55.4263C25.5802 55.5035 25.5523 55.5956 25.5541 55.6896C25.553 55.7606 25.5674 55.8309 25.5964 55.8957C25.6253 55.9605 25.6681 56.0182 25.7217 56.0647C25.8645 56.1695 26.0398 56.2204 26.2165 56.2084C26.4136 56.2099 26.6081 56.1633 26.7831 56.0727C26.9436 55.9843 27.0721 55.8474 27.1502 55.6816C27.2213 55.5072 27.2513 55.3188 27.238 55.131V54.9235Z" fill="#1A1A18"/>
<path d="M30.1909 55.5939L30.7416 55.5061C30.7489 55.6026 30.7753 55.6967 30.8191 55.783C30.8629 55.8693 30.9234 55.946 30.997 56.0089C31.1665 56.1362 31.376 56.1985 31.5876 56.1844C31.7884 56.2017 31.9889 56.148 32.1542 56.0328C32.2105 55.9894 32.2563 55.9339 32.2881 55.8703C32.3199 55.8067 32.3369 55.7368 32.3378 55.6657C32.3387 55.6069 32.3245 55.5489 32.2965 55.4972C32.2686 55.4455 32.2278 55.4018 32.1781 55.3704C31.9972 55.2871 31.807 55.2255 31.6115 55.1869C31.3214 55.1241 31.0381 55.0332 30.7656 54.9155C30.617 54.8506 30.4918 54.7421 30.4064 54.6043C30.3272 54.4716 30.2858 54.3198 30.2867 54.1653C30.2863 54.024 30.3191 53.8846 30.3825 53.7583C30.453 53.6387 30.545 53.5332 30.6538 53.4471C30.7662 53.3787 30.8869 53.3251 31.013 53.2874C31.1689 53.2445 31.33 53.223 31.4918 53.2236C31.7202 53.2202 31.9473 53.2581 32.1622 53.3353C32.3318 53.3891 32.4818 53.4918 32.5931 53.6306C32.6988 53.7821 32.7647 53.9578 32.7847 54.1414L32.242 54.2132C32.2336 54.1371 32.2102 54.0633 32.1732 53.9962C32.1362 53.9291 32.0864 53.87 32.0265 53.8222C31.8837 53.7174 31.7084 53.6665 31.5317 53.6785C31.3392 53.661 31.1462 53.7057 30.981 53.8062C30.9333 53.8396 30.8941 53.8837 30.8664 53.935C30.8387 53.9862 30.8233 54.0432 30.8214 54.1015C30.822 54.1705 30.8443 54.2375 30.8853 54.293C30.9421 54.3621 31.0165 54.4145 31.1007 54.4447L31.5876 54.5883C31.8597 54.653 32.1265 54.7384 32.3856 54.8437C32.5339 54.9008 32.6617 55.0008 32.7528 55.131C32.8479 55.2721 32.8954 55.4398 32.8884 55.6098C32.8879 55.796 32.8294 55.9773 32.7208 56.1286C32.6092 56.3005 32.4477 56.4341 32.258 56.5117C32.0377 56.6012 31.8014 56.6447 31.5636 56.6393C31.2191 56.6591 30.8775 56.5667 30.59 56.376C30.3681 56.1711 30.2267 55.8938 30.1909 55.5939Z" fill="#1A1A18"/>
<path d="M34.7798 56.0725L34.8596 56.5593C34.7241 56.595 34.5847 56.6138 34.4446 56.6152C34.282 56.6245 34.1198 56.5915 33.9738 56.5194C33.8694 56.4637 33.7876 56.3734 33.7423 56.2641C33.6798 56.0519 33.6555 55.8303 33.6705 55.6096V53.7262H33.2635V53.2952H33.6705V52.4972L34.2212 52.162V53.3032H34.7798V53.7342H34.2212V55.6495C34.2018 55.7497 34.2018 55.8526 34.2212 55.9528C34.239 56.0001 34.2729 56.0397 34.3169 56.0645C34.3736 56.0935 34.4369 56.1073 34.5005 56.1044L34.7798 56.0725Z" fill="#1A1A18"/>
<path d="M35.3146 56.5675V53.2954H35.8174V53.7902C35.8981 53.6137 36.0182 53.4581 36.1685 53.3353C36.2714 53.263 36.394 53.224 36.5197 53.2236C36.7241 53.226 36.9235 53.2869 37.0943 53.3992L36.9028 53.9179C36.7804 53.842 36.6397 53.8007 36.4958 53.7982C36.3782 53.7959 36.2632 53.8324 36.1685 53.902C36.0708 53.9802 35.9986 54.0858 35.961 54.2052C35.898 54.4175 35.8683 54.6383 35.8733 54.8596V56.5675H35.3146Z" fill="#1A1A18"/>
<path d="M39.5683 56.5674V56.0886C39.4573 56.2618 39.3035 56.4035 39.1217 56.4999C38.94 56.5964 38.7365 56.6444 38.5308 56.6393C38.3448 56.6418 38.1601 56.6065 37.9881 56.5355C37.8429 56.4732 37.7144 56.3775 37.613 56.2562C37.5287 56.1311 37.4716 55.9897 37.4454 55.8412C37.4291 55.6687 37.4291 55.495 37.4454 55.3225V53.2954H37.9961V55.115C37.9824 55.3089 37.9824 55.5036 37.9961 55.6976C38.0286 55.8344 38.1076 55.9557 38.2196 56.0407C38.3436 56.1267 38.4916 56.1713 38.6425 56.1684C38.8053 56.1666 38.9648 56.1226 39.1054 56.0407C39.2468 55.9633 39.3568 55.8392 39.4167 55.6896C39.4903 55.4851 39.5228 55.2682 39.5124 55.0511V53.2954H40.0631V56.5674H39.5683Z" fill="#1A1A18"/>
<path d="M40.9331 56.5675V52.0504H41.4918V54.6282L42.8006 53.2954H43.5189L42.2739 54.5085L43.6465 56.5675H42.9602L41.8828 54.8995L41.4918 55.2746V56.5675H40.9331Z" fill="#1A1A18"/>
<path d="M45.2984 56.0725L45.3782 56.5593C45.2428 56.5955 45.1034 56.6143 44.9633 56.6152C44.8007 56.6245 44.6384 56.5915 44.4924 56.5194C44.388 56.4637 44.3062 56.3734 44.2609 56.2641C44.1984 56.0519 44.1741 55.8303 44.1891 55.6096V53.7262H43.7821V53.2952H44.1891V52.4972L44.7398 52.162V53.3032H45.2984V53.7342H44.7398V55.6495C44.7204 55.7497 44.7204 55.8526 44.7398 55.9528C44.7576 56.0001 44.7915 56.0397 44.8356 56.0645C44.8949 56.0942 44.9609 56.1079 45.0271 56.1044L45.2984 56.0725Z" fill="#1A1A18"/>
<path d="M47.9878 56.5674V56.0886C47.8762 56.2613 47.7223 56.4025 47.5407 56.4989C47.3591 56.5953 47.1559 56.6436 46.9503 56.6393C46.7642 56.6427 46.5794 56.6074 46.4076 56.5355C46.2611 56.4754 46.1321 56.3794 46.0325 56.2562C45.9482 56.1311 45.8912 55.9897 45.865 55.8412C45.8477 55.6687 45.8477 55.4949 45.865 55.3225V53.2954H46.4236V55.115C46.4058 55.3088 46.4058 55.5038 46.4236 55.6976C46.456 55.8344 46.535 55.9557 46.6471 56.0407C46.7711 56.1267 46.9191 56.1713 47.07 56.1684C47.2326 56.1655 47.3918 56.1216 47.5329 56.0407C47.6723 55.9609 47.7816 55.8375 47.8442 55.6896C47.9145 55.4844 47.9443 55.2676 47.932 55.0511V53.2954H48.4906V56.5674H47.9878Z" fill="#1A1A18"/>
<path d="M51.4995 56.5674V56.0886C51.3861 56.2614 51.2307 56.4025 51.0478 56.4988C50.865 56.5951 50.6607 56.6435 50.454 56.6393C50.2706 56.6419 50.0885 56.6065 49.9193 56.5355C49.7728 56.4754 49.6438 56.3794 49.5442 56.2562C49.4606 56.1299 49.4011 55.9892 49.3687 55.8412C49.3564 55.6685 49.3564 55.4952 49.3687 55.3225V53.2954H49.9273V55.115C49.9096 55.3088 49.9096 55.5038 49.9273 55.6976C49.9564 55.8358 50.0361 55.9582 50.1508 56.0407C50.2719 56.1266 50.4173 56.1713 50.5658 56.1684C50.7311 56.1669 50.8932 56.1229 51.0366 56.0407C51.1732 55.9575 51.2817 55.8352 51.3479 55.6896C51.4142 55.4835 51.4439 55.2674 51.4357 55.0511V53.2954H51.9943V56.5674H51.4995Z" fill="#1A1A18"/>
<path d="M52.8562 56.5675V53.2954H53.351V53.7902C53.4343 53.6131 53.5571 53.4574 53.7101 53.3353C53.813 53.263 53.9356 53.224 54.0613 53.2236C54.2632 53.2262 54.46 53.2872 54.6279 53.3992L54.4444 53.9179C54.322 53.842 54.1813 53.8007 54.0373 53.7982C53.9197 53.7947 53.8043 53.8312 53.7101 53.902C53.6124 53.9802 53.5402 54.0858 53.5026 54.2052C53.4367 54.417 53.4044 54.6378 53.4069 54.8596V56.5675H52.8562Z" fill="#1A1A18"/>
<path d="M54.9633 52.673V52.0346H55.5219V52.673H54.9633ZM54.9633 56.5517V53.2796H55.5219V56.5517H54.9633Z" fill="#1A1A18"/>
<path d="M57.852 54.6599H56.1441V55.2186H57.852V54.6599Z" fill="#1A1A18"/>
<path d="M1.29279 59.1373V58.4909H1.84346V59.1373H1.29279ZM0.590485 64.2769L0.694234 63.8459C0.78166 63.8572 0.870172 63.8572 0.957598 63.8459C1.00477 63.8484 1.05185 63.8396 1.0949 63.8202C1.13795 63.8007 1.1757 63.7713 1.205 63.7342C1.28167 63.5558 1.31187 63.3608 1.29279 63.1676V59.7359H1.84346V63.1915C1.86081 63.4661 1.80866 63.7405 1.69182 63.9896C1.61701 64.0955 1.51575 64.18 1.39813 64.2346C1.28051 64.2892 1.15064 64.312 1.02144 64.3008C0.877382 64.3133 0.732275 64.3053 0.590485 64.2769Z" fill="#1A1A18"/>
<path d="M4.82825 62.6089C4.65522 62.766 4.45512 62.8904 4.23768 62.9761C4.0414 63.0506 3.83311 63.0885 3.62316 63.0878C3.33415 63.0986 3.05089 63.0051 2.82509 62.8244C2.73133 62.7386 2.65715 62.6336 2.60758 62.5165C2.558 62.3995 2.5342 62.2731 2.53778 62.1461C2.53092 61.9901 2.56396 61.8349 2.63379 61.6953C2.70361 61.5556 2.80791 61.4361 2.93682 61.348C3.06027 61.2679 3.19468 61.206 3.33585 61.1644C3.49908 61.1281 3.6643 61.1015 3.83066 61.0846C4.15371 61.0622 4.47417 61.0115 4.78835 60.933V60.7893C4.79616 60.7028 4.78601 60.6156 4.75855 60.5332C4.73108 60.4508 4.68688 60.375 4.62873 60.3105C4.44702 60.1703 4.2187 60.1047 3.99027 60.1269C3.78906 60.1082 3.58726 60.1559 3.41566 60.2626C3.26668 60.3857 3.16743 60.5587 3.13634 60.7494L2.60163 60.6537C2.63972 60.4508 2.72442 60.2596 2.84903 60.095C2.9763 59.9394 3.14512 59.8232 3.33585 59.7598C3.57563 59.6829 3.82626 59.6451 4.07806 59.6481C4.30804 59.6402 4.53763 59.6726 4.75642 59.7439C4.90338 59.7966 5.03691 59.881 5.14748 59.9913C5.23158 60.1046 5.28888 60.2356 5.31507 60.3743C5.33252 60.5441 5.33252 60.7153 5.31507 60.8851V61.6193C5.29521 61.9462 5.29521 62.2741 5.31507 62.601C5.33891 62.7389 5.38758 62.8714 5.45873 62.992H4.93998C4.87935 62.8667 4.84152 62.7316 4.82825 62.593V62.6089ZM4.82825 61.3639C4.53499 61.4729 4.22942 61.5453 3.91845 61.5794C3.75182 61.5942 3.58802 61.6318 3.43162 61.6912C3.34377 61.7267 3.26867 61.7879 3.21614 61.8667C3.16595 61.9456 3.13834 62.0367 3.13634 62.1301C3.13524 62.2011 3.14968 62.2714 3.17863 62.3362C3.20758 62.401 3.25035 62.4587 3.30393 62.5052C3.44674 62.61 3.62201 62.6609 3.79874 62.6488C3.99606 62.6523 4.19103 62.6057 4.36537 62.5132C4.52919 62.4291 4.65889 62.2909 4.73248 62.1221C4.79329 61.9453 4.81241 61.7569 4.78835 61.5714L4.82825 61.3639Z" fill="#1A1A18"/>
<path d="M7.98062 59.1293V58.4909H8.53129V59.1293H7.98062ZM7.98062 63.0479V59.7758H8.53129V63.0479H7.98062Z" fill="#1A1A18"/>
<path d="M9.36145 63.0477V59.7756H9.85626V60.2464C9.9672 60.0718 10.1223 59.9297 10.3059 59.8344C10.4895 59.7391 10.6951 59.694 10.9017 59.7038C11.0879 59.7003 11.2727 59.7356 11.4444 59.8075C11.5913 59.867 11.7204 59.9632 11.8195 60.0868C11.9024 60.2127 11.9594 60.3537 11.9871 60.5018C12.0046 60.6796 12.0046 60.8587 11.9871 61.0365V63.0477H11.4364V61.0206C11.4446 60.8473 11.4202 60.6741 11.3646 60.5098C11.323 60.3987 11.244 60.3056 11.1412 60.2464C11.0238 60.1743 10.8878 60.1382 10.7501 60.1427C10.5275 60.1412 10.312 60.2206 10.1436 60.3662C10.0424 60.4822 9.96674 60.6181 9.92138 60.7652C9.87602 60.9123 9.86199 61.0673 9.8802 61.2201V63.0477H9.36145Z" fill="#1A1A18"/>
<path d="M13.7826 63.0477L12.5376 59.7756H13.1202L13.8225 61.7389C13.8943 61.9464 13.9661 62.1698 14.03 62.3933C14.0779 62.2257 14.1497 62.0182 14.2375 61.7708L14.9637 59.7756H15.5383L14.2934 63.0477H13.7826Z" fill="#1A1A18"/>
<path d="M18.2677 61.9544L18.8343 62.0262C18.7658 62.3411 18.5911 62.6229 18.3395 62.8243C18.0648 63.0182 17.7339 63.1164 17.3978 63.1036C17.188 63.1135 16.9786 63.0788 16.7832 63.0017C16.5879 62.9247 16.4111 62.8071 16.2645 62.6567C16.1159 62.4886 16.002 62.2928 15.9294 62.0805C15.8568 61.8682 15.8269 61.6436 15.8416 61.4197C15.8138 60.9531 15.9651 60.4936 16.2645 60.1348C16.4055 59.9854 16.5766 59.8676 16.7664 59.7892C16.9563 59.7108 17.1606 59.6735 17.3659 59.6799C17.5669 59.6739 17.7668 59.7106 17.9526 59.7877C18.1383 59.8647 18.3056 59.9803 18.4433 60.1268C18.7357 60.4766 18.884 60.9246 18.8583 61.3798C18.8617 61.4303 18.8617 61.4809 18.8583 61.5314H16.4162C16.4165 61.8255 16.5244 62.1094 16.7194 62.3295C16.8068 62.4234 16.9132 62.4977 17.0316 62.5472C17.15 62.5968 17.2775 62.6205 17.4058 62.6168C17.592 62.6258 17.7756 62.5693 17.9245 62.4572C18.0876 62.3252 18.2071 62.1472 18.2677 61.9464V61.9544ZM16.4401 61.0605H18.2677C18.266 60.8363 18.1934 60.6184 18.0602 60.438C17.9798 60.3471 17.882 60.2732 17.7726 60.2206C17.6633 60.1681 17.5445 60.1379 17.4232 60.132C17.302 60.126 17.1808 60.1444 17.0668 60.186C16.9528 60.2276 16.8483 60.2916 16.7593 60.3742C16.5709 60.5551 16.4571 60.7999 16.4401 61.0605Z" fill="#1A1A18"/>
<path d="M19.3133 62.0342L19.8639 61.9464C19.8694 62.0433 19.895 62.138 19.9389 62.2245C19.9829 62.3111 20.0443 62.3876 20.1193 62.4492C20.2935 62.5557 20.4937 62.612 20.6979 62.612C20.9021 62.612 21.1023 62.5557 21.2765 62.4492C21.3328 62.4058 21.3786 62.3503 21.4104 62.2867C21.4422 62.2231 21.4592 62.1531 21.4601 62.0821C21.461 62.0233 21.4468 61.9653 21.4188 61.9136C21.3909 61.8619 21.3501 61.8182 21.3005 61.7868C21.1195 61.7035 20.9293 61.6419 20.7338 61.6032C20.4437 61.5405 20.1604 61.4496 19.8879 61.3319C19.7393 61.267 19.6141 61.1584 19.5287 61.0206C19.4443 60.8899 19.3999 60.7373 19.401 60.5817C19.4019 60.4419 19.4364 60.3043 19.5017 60.1807C19.567 60.057 19.6611 59.9509 19.7761 59.8714C19.8842 59.7984 20.0025 59.7419 20.1273 59.7038C20.5092 59.6045 20.9121 59.6212 21.2845 59.7517C21.4541 59.8055 21.6041 59.9082 21.7155 60.047C21.8197 60.1992 21.8854 60.3745 21.907 60.5577L21.3643 60.6296C21.3559 60.5534 21.3325 60.4797 21.2955 60.4126C21.2585 60.3455 21.2087 60.2863 21.1488 60.2385C21.0043 60.1372 20.8303 60.0867 20.654 60.0949C20.4615 60.0773 20.2685 60.1221 20.1034 60.2226C20.0556 60.256 20.0164 60.3001 19.9887 60.3513C19.961 60.4026 19.9456 60.4596 19.9437 60.5178C19.9443 60.5868 19.9666 60.6539 20.0076 60.7094C20.0644 60.7785 20.1389 60.8309 20.2231 60.861L20.7099 61.0047C20.9817 61.0706 21.2484 61.1559 21.508 61.2601C21.6562 61.3172 21.784 61.4172 21.8751 61.5474C21.9702 61.6884 22.0177 61.8562 22.0107 62.0262C22.0103 62.2123 21.9517 62.3937 21.8432 62.5449C21.7315 62.7168 21.57 62.8505 21.3803 62.928C21.1604 63.0197 20.9242 63.0658 20.6859 63.0637C20.3406 63.0811 19.9989 62.9859 19.7123 62.7923C19.4932 62.5952 19.3517 62.3264 19.3133 62.0342Z" fill="#1A1A18"/>
<path d="M23.9421 62.5132L24.022 63C23.8838 63.0362 23.7417 63.0549 23.599 63.0559C23.439 63.0642 23.2796 63.0312 23.1361 62.9601C23.0313 62.9024 22.9475 62.813 22.8967 62.7047C22.8424 62.4911 22.8209 62.2704 22.8328 62.0503V60.1669H22.4258V59.7359H22.8328V58.9378L23.3835 58.6026V59.7439H23.9421V60.1748H23.3835V62.0902C23.3641 62.1904 23.3641 62.2933 23.3835 62.3935C23.4013 62.4408 23.4352 62.4804 23.4793 62.5052C23.5395 62.5208 23.6026 62.5208 23.6628 62.5052L23.9421 62.5132Z" fill="#1A1A18"/>
<path d="M26.6794 61.9545L27.254 62.0264C27.1859 62.3434 27.0078 62.6262 26.7512 62.8244C26.4361 63.0318 26.0608 63.1279 25.6849 63.0975C25.3089 63.0672 24.9539 62.9121 24.6762 62.6568C24.3819 62.3144 24.233 61.8705 24.2612 61.4198C24.2293 60.9528 24.3811 60.4917 24.6842 60.1349C24.8242 59.9843 24.9951 59.8657 25.1852 59.7872C25.3753 59.7087 25.58 59.6721 25.7855 59.68C25.9855 59.6731 26.1845 59.7094 26.3691 59.7866C26.5537 59.8637 26.7194 59.9798 26.855 60.1269C27.1531 60.4739 27.3048 60.9232 27.2779 61.3799C27.2779 61.3799 27.2779 61.4677 27.2779 61.5316H24.8279C24.8339 61.826 24.9442 62.1088 25.1391 62.3296C25.2256 62.4226 25.3307 62.4962 25.4476 62.5457C25.5645 62.5952 25.6905 62.6195 25.8175 62.6169C26.0064 62.6279 26.1931 62.5713 26.3442 62.4573C26.507 62.3267 26.6243 62.1479 26.6794 61.9466V61.9545ZM24.8598 61.0607H26.6874C26.6816 60.8372 26.6093 60.6205 26.4799 60.4382C26.3969 60.3367 26.2921 60.2553 26.1732 60.2C26.0544 60.1447 25.9246 60.117 25.7935 60.119C25.6742 60.1167 25.5557 60.138 25.4447 60.1819C25.3337 60.2257 25.2326 60.2911 25.1471 60.3744C24.9728 60.5618 24.871 60.8051 24.8598 61.0607Z" fill="#1A1A18"/>
<path d="M30.191 61.9545L30.7656 62.0264C30.6975 62.3434 30.5194 62.6262 30.2628 62.8244C29.9905 63.0172 29.6625 63.1153 29.3291 63.1038C29.1181 63.1138 28.9074 63.0792 28.7107 63.0021C28.5141 62.9251 28.3359 62.8075 28.1878 62.6568C27.8907 62.3156 27.7388 61.8716 27.7649 61.4198C27.7352 60.9517 27.8899 60.4905 28.1958 60.1349C28.3358 59.9843 28.5067 59.8657 28.6968 59.7872C28.8869 59.7087 29.0917 59.6721 29.2972 59.68C29.4971 59.6731 29.6962 59.7094 29.8807 59.7866C30.0653 59.8637 30.231 59.9798 30.3666 60.1269C30.6626 60.4747 30.8115 60.9242 30.7816 61.3799V61.5316H28.3395C28.3466 61.8244 28.4536 62.1059 28.6427 62.3296C28.7307 62.4228 28.8373 62.4965 28.9555 62.546C29.0737 62.5954 29.201 62.6196 29.3291 62.6169C29.5153 62.626 29.6989 62.5695 29.8478 62.4573C30.0132 62.3275 30.1333 62.1487 30.191 61.9466V61.9545ZM28.3714 61.0607H30.199C30.1932 60.8372 30.121 60.6205 29.9915 60.4382C29.9085 60.3367 29.8037 60.2553 29.6849 60.2C29.566 60.1447 29.4362 60.117 29.3051 60.119C29.1859 60.1167 29.0673 60.138 28.9563 60.1819C28.8454 60.2257 28.7442 60.2911 28.6587 60.3744C28.4787 60.558 28.3759 60.8036 28.3714 61.0607Z" fill="#1A1A18"/>
<path d="M31.46 63.0478V59.7757H31.9229V60.2705C32.0065 60.0958 32.1262 59.9408 32.274 59.8156C32.3802 59.744 32.5051 59.7052 32.6332 59.7039C32.8348 59.7078 33.0312 59.7687 33.1998 59.8795L33.0083 60.3982C32.8859 60.3223 32.7452 60.2809 32.6012 60.2785C32.4839 60.2773 32.3693 60.3137 32.274 60.3822C32.1767 60.4627 32.107 60.5715 32.0745 60.6935C32.008 60.9024 31.9756 61.1207 31.9787 61.3399V63.0478H31.46Z" fill="#1A1A18"/>
<path d="M33.5668 59.1293V58.4909H34.1255V59.1293H33.5668ZM33.5668 63.008V59.7359H34.1255V63.0479L33.5668 63.008Z" fill="#1A1A18"/>
<path d="M34.9634 63.0479V59.7758H35.4582V60.2386C35.5637 60.0774 35.7059 59.9434 35.8732 59.8476C36.0515 59.7497 36.2524 59.7001 36.4558 59.7039C36.6634 59.6937 36.8693 59.7466 37.0463 59.8556C37.2038 59.9534 37.3223 60.1029 37.3815 60.2785C37.4845 60.1034 37.6315 59.9583 37.8079 59.8575C37.9843 59.7567 38.1839 59.7037 38.3871 59.7039C38.5242 59.6941 38.6618 59.7132 38.791 59.76C38.9202 59.8067 39.0382 59.8801 39.1373 59.9753C39.3234 60.1981 39.4176 60.4835 39.4007 60.7734V63.0479H38.85V60.9489C38.8596 60.7873 38.8407 60.6252 38.7941 60.4701C38.7539 60.374 38.6875 60.291 38.6026 60.2307C38.5008 60.1718 38.385 60.1415 38.2674 60.1429C38.161 60.1412 38.0554 60.1608 37.9567 60.2006C37.858 60.2403 37.7683 60.2994 37.6928 60.3743C37.5221 60.5791 37.4389 60.8429 37.4613 61.1085V63.0479H36.9107V60.8851C36.9227 60.6895 36.8754 60.4947 36.775 60.3264C36.7206 60.2624 36.6516 60.2123 36.5738 60.1804C36.4961 60.1485 36.4118 60.1356 36.3281 60.1429C36.1752 60.1433 36.0256 60.1876 35.8971 60.2706C35.7606 60.351 35.6583 60.4788 35.6098 60.6297C35.5395 60.8513 35.5097 61.0838 35.522 61.316V63.0479H34.9634Z" fill="#1A1A18"/>
<path d="M40.2228 59.1293V58.4909H40.7814V59.1293H40.2228ZM40.2228 63.008V59.7359H40.7814V63.0479L40.2228 63.008Z" fill="#1A1A18"/>
<path d="M41.404 62.0343L41.9546 61.9465C41.9601 62.0434 41.9857 62.1381 42.0296 62.2246C42.0736 62.3112 42.135 62.3877 42.21 62.4493C42.3842 62.5558 42.5844 62.6121 42.7886 62.6121C42.9928 62.6121 43.193 62.5558 43.3672 62.4493C43.4235 62.4059 43.4693 62.3503 43.5011 62.2868C43.5329 62.2232 43.5499 62.1532 43.5508 62.0822C43.5517 62.0225 43.5366 61.9636 43.5071 61.9117C43.4777 61.8598 43.4349 61.8167 43.3832 61.7869C43.2033 61.7008 43.0127 61.639 42.8165 61.6033C42.5271 61.538 42.244 61.4472 41.9706 61.332C41.825 61.2658 41.7027 61.1573 41.6194 61.0207C41.535 60.89 41.4906 60.7374 41.4917 60.5818C41.4926 60.442 41.5271 60.3044 41.5924 60.1808C41.6577 60.0571 41.7518 59.951 41.8668 59.8715C41.9749 59.7984 42.0932 59.742 42.218 59.7039C42.3742 59.6621 42.5351 59.6406 42.6968 59.6401C42.9278 59.6361 43.1577 59.6739 43.3752 59.7518C43.5438 59.8076 43.6932 59.91 43.8062 60.0471C43.9104 60.1993 43.9761 60.3746 43.9977 60.5578L43.455 60.6297C43.4466 60.5535 43.4232 60.4798 43.3862 60.4127C43.3492 60.3456 43.2994 60.2864 43.2395 60.2386C43.0928 60.1356 42.9157 60.085 42.7367 60.095C42.5468 60.0774 42.3563 60.1223 42.1941 60.2227C42.1449 60.2546 42.1046 60.2984 42.0767 60.35C42.0488 60.4016 42.0343 60.4593 42.0344 60.5179C42.0311 60.5875 42.0539 60.6558 42.0983 60.7095C42.1551 60.7786 42.2296 60.831 42.3138 60.8611L42.8006 61.0048C43.0724 61.0707 43.3391 61.156 43.5987 61.2601C43.7588 61.3182 43.8947 61.4286 43.9845 61.5734C44.0742 61.7181 44.1126 61.8889 44.0935 62.0582C44.0958 62.2436 44.04 62.425 43.9338 62.577C43.8222 62.7488 43.6607 62.8825 43.471 62.96C43.2511 63.0517 43.0149 63.0978 42.7766 63.0957C42.4313 63.1131 42.0896 63.0179 41.803 62.8244C41.5771 62.6192 41.435 62.3378 41.404 62.0343Z" fill="#1A1A18"/>
<path d="M44.9154 63.0478V60.1667H44.4206V59.7358H44.9154V59.3926C44.908 59.2257 44.9268 59.0588 44.9712 58.8978C45.0259 58.7547 45.1235 58.6321 45.2506 58.5466C45.4236 58.4514 45.62 58.4071 45.8172 58.4189C45.9916 58.4195 46.1654 58.4382 46.3359 58.4748L46.2561 58.9537C46.1472 58.9469 46.0379 58.9469 45.9289 58.9537C45.8646 58.9471 45.7996 58.9536 45.7379 58.9728C45.6762 58.992 45.619 59.0235 45.5698 59.0654C45.4863 59.1806 45.4493 59.3231 45.466 59.4644V59.7677H46.1045V60.1986H45.49V63.0478H44.9154Z" fill="#1A1A18"/>
<path d="M46.3279 61.3718C46.3069 61.125 46.3412 60.8766 46.4281 60.6447C46.5151 60.4128 46.6526 60.2032 46.8307 60.031C47.1212 59.7771 47.4988 59.6455 47.8842 59.6639C48.0883 59.6555 48.2919 59.6903 48.4817 59.7659C48.6714 59.8415 48.8431 59.9564 48.9855 60.1029C49.1347 60.2676 49.2497 60.4605 49.3237 60.6701C49.3977 60.8797 49.4292 61.102 49.4165 61.3239C49.433 61.667 49.3674 62.009 49.2249 62.3215C49.102 62.559 48.91 62.7538 48.6743 62.8802C48.431 63.018 48.1558 63.0896 47.8762 63.0877C47.6703 63.0952 47.4651 63.0592 47.274 62.9822C47.0829 62.9052 46.9101 62.7889 46.7669 62.6407C46.615 62.4683 46.4993 62.2672 46.4266 62.0492C46.354 61.8312 46.3258 61.6009 46.3439 61.3718H46.3279ZM46.8946 61.3718C46.8691 61.7093 46.9685 62.0445 47.1739 62.3135C47.2593 62.4117 47.3648 62.4904 47.4831 62.5443C47.6015 62.5982 47.7301 62.6261 47.8602 62.6261C47.9903 62.6261 48.1189 62.5982 48.2373 62.5443C48.3557 62.4904 48.4612 62.4117 48.5466 62.3135C48.7531 62.0389 48.8524 61.6984 48.8259 61.3558C48.8492 61.0259 48.7497 60.6991 48.5466 60.4381C48.4621 60.3389 48.3568 60.2596 48.2382 60.2058C48.1195 60.152 47.9905 60.125 47.8602 60.1268C47.7298 60.1239 47.6004 60.1504 47.4816 60.2043C47.3628 60.2581 47.2576 60.338 47.1739 60.4381C46.9683 60.704 46.8688 61.0367 46.8946 61.3718Z" fill="#1A1A18"/>
<path d="M50.0389 63.0479V59.7758H50.5417V60.2467C50.6514 60.0727 50.8051 59.9309 50.9874 59.8356C51.1696 59.7403 51.3738 59.6949 51.5792 59.704C51.7679 59.7006 51.9554 59.7359 52.1299 59.8078C52.2746 59.8671 52.4012 59.9635 52.497 60.0871C52.5825 60.2124 52.6422 60.3535 52.6726 60.5021C52.6859 60.6801 52.6859 60.8588 52.6726 61.0368V63.0479H52.1139V61.0208C52.1204 60.8482 52.0989 60.6757 52.0501 60.5101C52.0077 60.397 51.9253 60.3033 51.8186 60.2467C51.704 60.1751 51.5707 60.1391 51.4356 60.143C51.2106 60.1417 50.9926 60.2209 50.8211 60.3664C50.723 60.4841 50.6498 60.6204 50.6059 60.7672C50.562 60.914 50.5483 61.0681 50.5657 61.2203V63.0479H50.0389Z" fill="#1A1A18"/>
<path d="M55.6733 63.0477V62.6407C55.5785 62.7953 55.4443 62.9219 55.2844 63.0074C55.1245 63.093 54.9447 63.1344 54.7635 63.1275C54.5042 63.1295 54.2506 63.0514 54.0373 62.9041C53.8155 62.7571 53.6409 62.5493 53.5345 62.3055C53.4086 62.0274 53.3459 61.7249 53.3509 61.4196C53.3471 61.1135 53.4041 60.8097 53.5185 60.5258C53.6114 60.2765 53.7821 60.0638 54.0053 59.9193C54.2205 59.7765 54.4734 59.7015 54.7316 59.7038C54.9154 59.6985 55.0973 59.7426 55.2583 59.8315C55.4077 59.9088 55.5384 60.0177 55.6414 60.1507V58.5546H56.1921V63.0477H55.6733ZM53.9176 61.4516C53.8946 61.7851 53.9908 62.116 54.1889 62.3853C54.2624 62.4808 54.3566 62.5585 54.4644 62.6124C54.5722 62.6663 54.6909 62.6951 54.8114 62.6966C54.9293 62.6958 55.0455 62.6689 55.1518 62.6178C55.258 62.5668 55.3516 62.4928 55.4259 62.4013C55.6275 62.1281 55.7187 61.789 55.6813 61.4516C55.712 61.1047 55.6218 60.7579 55.4259 60.4699C55.3507 60.3723 55.254 60.2934 55.1432 60.2394C55.0324 60.1854 54.9107 60.1578 54.7875 60.1587C54.669 60.1559 54.5515 60.1812 54.4447 60.2325C54.3379 60.2838 54.2448 60.3597 54.1729 60.454C53.9881 60.726 53.8984 61.0514 53.9176 61.3797V61.4516Z" fill="#1A1A18"/>
<path d="M57.0621 59.1293V58.4909H57.6208V59.1293H57.0621ZM57.0621 63.008V59.7359H57.6208V63.0479L57.0621 63.008Z" fill="#1A1A18"/>
<path d="M60.5896 63.0478V62.6408C60.4929 62.7954 60.3572 62.9219 60.196 63.0073C60.0349 63.0928 59.8541 63.1343 59.6718 63.1276C59.4148 63.1311 59.1633 63.0529 58.9536 62.9042C58.7276 62.7598 58.5498 62.5514 58.4428 62.3056C58.311 62.0153 58.2482 61.6984 58.2592 61.3798C58.2554 61.0737 58.3124 60.7699 58.4268 60.486C58.5225 60.2384 58.6926 60.0265 58.9137 59.8795C59.1317 59.7365 59.3872 59.6615 59.6479 59.664C59.8317 59.6587 60.0136 59.7028 60.1746 59.7917C60.3217 59.8691 60.4498 59.9781 60.5497 60.1109V58.5148H61.1004V63.0478H60.5896ZM58.8338 61.4517C58.8093 61.7842 58.9026 62.1147 59.0972 62.3854C59.1716 62.482 59.267 62.5602 59.3763 62.6142C59.4856 62.6682 59.6058 62.6964 59.7277 62.6966C59.8456 62.6959 59.9618 62.669 60.0681 62.6179C60.1743 62.5669 60.2679 62.4929 60.3422 62.4014C60.5403 62.1266 60.6312 61.7888 60.5976 61.4517C60.6267 61.1038 60.5335 60.7566 60.3342 60.47C60.2591 60.3724 60.1623 60.2935 60.0515 60.2395C59.9408 60.1855 59.819 60.1578 59.6958 60.1588C59.5779 60.1596 59.4616 60.1864 59.3554 60.2375C59.2491 60.2886 59.1555 60.3625 59.0812 60.4541C58.8993 60.7271 58.8123 61.0524 58.8338 61.3798V61.4517Z" fill="#1A1A18"/>
<path d="M62.1937 0H0V41.6035H62.1937V0Z" fill="#134094"/>
<path fill-rule="evenodd" clip-rule="evenodd" d="M31.5557 6.0575H33.3434L31.8989 7.14288L32.4575 8.85874L31.021 7.80528L29.5845 8.85874L30.1511 7.14288L28.6906 6.0575H30.4863L31.021 4.38155L31.5557 6.0575Z" fill="#FFED00"/>
<path fill-rule="evenodd" clip-rule="evenodd" d="M31.6274 33.7825H33.4231L31.9786 34.8679L32.5372 36.5838L31.1007 35.5223L29.6642 36.5838L30.2308 34.8679L28.7703 33.7825H30.558L31.1007 32.1066L31.6274 33.7825Z" fill="#FFED00"/>
<path fill-rule="evenodd" clip-rule="evenodd" d="M38.4909 31.947H40.2865L38.842 33.0244L39.4007 34.7402L37.9642 33.6868L36.5196 34.7402L37.0943 33.0244L35.6338 31.947H37.4215L37.9642 30.2631L38.4909 31.947Z" fill="#FFED00"/>
<path fill-rule="evenodd" clip-rule="evenodd" d="M38.4909 7.88519H40.2865L38.842 8.97056L39.4007 10.6864L37.9642 9.62498L36.5196 10.6864L37.0943 8.97056L35.6338 7.88519H37.4215L37.9642 6.20924L38.4909 7.88519Z" fill="#FFED00"/>
<path fill-rule="evenodd" clip-rule="evenodd" d="M43.5907 12.9768H45.3783L43.9338 14.0622L44.5005 15.778L43.056 14.7246L41.6194 15.778L42.1861 14.0622L40.7256 12.9768H42.5133L43.056 11.3008L43.5907 12.9768Z" fill="#FFED00"/>
<path fill-rule="evenodd" clip-rule="evenodd" d="M43.5907 26.9191H45.3783L43.9338 27.9965L44.5005 29.7203L43.056 28.6668L41.6194 29.7203L42.1861 27.9965L40.7256 26.9191H42.5133L43.056 25.2431L43.5907 26.9191Z" fill="#FFED00"/>
<path fill-rule="evenodd" clip-rule="evenodd" d="M45.4981 19.8401H47.2937L45.8492 20.9255L46.4079 22.6493L44.9713 21.5879L43.5268 22.6493L44.0935 20.9255L42.641 19.8401H44.4286L44.9713 18.1642L45.4981 19.8401Z" fill="#FFED00"/>
<path fill-rule="evenodd" clip-rule="evenodd" d="M24.5566 7.90111H26.3522L24.8997 8.98649L25.4664 10.7023L24.0298 9.64889L22.5853 10.7023L23.152 8.98649L21.6995 7.90111H23.4871L24.0298 6.22516L24.5566 7.90111Z" fill="#FFED00"/>
<path fill-rule="evenodd" clip-rule="evenodd" d="M19.6007 13.0006H21.3964L19.9519 14.078L20.5105 15.7938L19.074 14.7404L17.6375 15.7938L18.2041 14.078L16.7436 13.0006H18.5313L19.074 11.3246L19.6007 13.0006Z" fill="#FFED00"/>
<path fill-rule="evenodd" clip-rule="evenodd" d="M17.765 19.8641H19.5526L18.1161 20.9415L18.6748 22.6574L17.2382 21.6039L15.7937 22.6574L16.3604 20.9415L14.9079 19.8641H16.6876L17.2382 18.1882L17.765 19.8641Z" fill="#FFED00"/>
<path fill-rule="evenodd" clip-rule="evenodd" d="M19.6007 26.9351H21.3964L19.9519 28.0205L20.5105 29.7363L19.074 28.6829L17.6375 29.7363L18.2041 28.0205L16.7436 26.9351H18.5313L19.074 25.2591L19.6007 26.9351Z" fill="#FFED00"/>
<path fill-rule="evenodd" clip-rule="evenodd" d="M24.6285 31.9629H26.4162L24.9717 33.0483L25.5304 34.7562L24.0938 33.7027L22.6573 34.7562L23.2239 33.0483L21.7635 31.9629H23.5591L24.0938 30.279L24.6285 31.9629Z" fill="#FFED00"/>
<path fill-rule="evenodd" clip-rule="evenodd" d="M96.83 8.29216C101.519 8.72159 106.04 10.2559 110.022 12.7693L110.293 12.9449C107.918 9.58192 104.884 6.73681 101.375 4.58234C97.8668 2.42787 93.9569 1.00901 89.8832 0.411901C85.8094 -0.185204 81.6568 0.0519116 77.6775 1.10885C73.6982 2.16579 69.9752 4.02049 66.7347 6.56034C71.0567 7.42052 75.01 9.58801 78.0593 12.7693C83.6498 9.24423 90.2503 7.66987 96.83 8.29216Z" fill="#0076BE"/>
<path fill-rule="evenodd" clip-rule="evenodd" d="M115.537 27.7411C115.537 27.6453 115.497 27.2303 115.489 27.1505C115.038 22.038 113.246 17.135 110.294 12.9369L110.022 12.7613C105.236 9.74952 99.696 8.15154 94.0409 8.15154C88.3858 8.15154 82.8459 9.74952 78.0595 12.7613C81.4753 16.3172 83.5683 20.937 83.9892 25.8497C84.1009 27.1215 84.1009 28.4006 83.9892 29.6724C83.481 35.175 80.8782 40.272 76.7188 43.91L76.7666 43.8622C87.2088 37.9194 99.3493 35.6701 111.227 37.4776C109.977 38.5296 108.596 39.4149 107.117 40.1112C109.676 39.2974 112.182 38.3245 114.619 37.1983C115.463 34.1214 115.773 30.9228 115.537 27.7411Z" fill="black"/>
<path fill-rule="evenodd" clip-rule="evenodd" d="M115.01 27.0547C111.155 24.453 107.979 22.8728 101.275 22.2663C96.3578 21.8063 91.4032 22.5713 86.8538 24.4929C86.9695 25.7459 86.9695 27.0068 86.8538 28.2598C86.5846 31.1978 85.6765 34.0415 84.1932 36.5918C82.7099 39.1421 80.6871 41.3374 78.2665 43.0241C90.477 36.0011 101.578 35.0434 110.987 36.4959C111.61 36.5997 113.549 36.9269 114.435 37.1663C115.172 33.849 115.366 30.4341 115.01 27.0547Z" fill="white"/>
<path d="M90.3336 50.151V45.626H93.5977V46.1607H90.9321V47.5493H93.4301V48.076H90.9321V49.6163H93.7094V50.151H90.3336Z" fill="#1A1A18"/>
<path d="M96.7023 49.0895L97.2769 49.1613C97.2022 49.4756 97.0253 49.7563 96.7741 49.9594C96.4993 50.1533 96.1684 50.2514 95.8324 50.2387C95.6226 50.2486 95.4131 50.2139 95.2178 50.1368C95.0224 50.0598 94.8456 49.9422 94.6991 49.7918C94.5497 49.6242 94.4353 49.4284 94.3627 49.216C94.29 49.0035 94.2606 48.7787 94.2761 48.5548C94.2484 48.0882 94.3997 47.6287 94.6991 47.2699C94.8401 47.1205 95.0111 47.0027 95.201 46.9243C95.3908 46.8459 95.5951 46.8086 95.8004 46.815C96.0014 46.809 96.2014 46.8457 96.3871 46.9227C96.5729 46.9998 96.7401 47.1154 96.8778 47.2619C97.1714 47.6142 97.3198 48.065 97.2928 48.5228V48.6824H94.8507C94.8546 48.9759 94.962 49.2586 95.154 49.4805C95.2414 49.5745 95.3478 49.6487 95.4662 49.6983C95.5845 49.7478 95.7121 49.7715 95.8403 49.7678C96.0276 49.7746 96.2112 49.7153 96.3591 49.6002C96.5221 49.4683 96.6417 49.2903 96.7023 49.0895ZM94.8827 48.1956H96.7023C96.6989 47.9742 96.6264 47.7593 96.4948 47.5811C96.4134 47.4773 96.3091 47.3937 96.19 47.3369C96.0709 47.2801 95.9403 47.2517 95.8084 47.2539C95.6902 47.2508 95.5727 47.2719 95.4629 47.3158C95.3531 47.3597 95.2534 47.4256 95.17 47.5093C94.99 47.6929 94.8872 47.9385 94.8827 48.1956Z" fill="#1A1A18"/>
<path d="M97.7476 49.1693L98.2983 49.0815C98.3175 49.2774 98.4084 49.4594 98.5536 49.5923C98.7247 49.7165 98.9331 49.7785 99.1442 49.7679C99.346 49.7835 99.5469 49.7269 99.7108 49.6083C99.7672 49.5649 99.8129 49.5093 99.8447 49.4457C99.8765 49.3822 99.8935 49.3122 99.8944 49.2411C99.8946 49.1825 99.88 49.1248 99.8522 49.0732C99.8243 49.0216 99.7839 48.9778 99.7348 48.9459C99.5538 48.8626 99.3636 48.801 99.1682 48.7623C98.878 48.6996 98.5947 48.6087 98.3222 48.4909C98.1737 48.4261 98.0484 48.3175 97.9631 48.1797C97.8814 48.0481 97.8398 47.8956 97.8434 47.7408C97.842 47.6019 97.8749 47.4649 97.9391 47.3417C98.0052 47.219 98.0979 47.1127 98.2105 47.0305C98.3185 46.9574 98.4369 46.9009 98.5616 46.8629C98.9436 46.7636 99.3464 46.7803 99.7188 46.9108C99.8909 46.9639 100.042 47.07 100.15 47.214C100.254 47.3634 100.32 47.536 100.341 47.7168L99.7986 47.7966C99.7912 47.7191 99.7683 47.6438 99.7313 47.5753C99.6943 47.5067 99.6439 47.4463 99.5832 47.3976C99.4403 47.2928 99.2651 47.2419 99.0883 47.2539C98.8962 47.2406 98.7044 47.2851 98.5377 47.3816C98.4904 47.4155 98.4515 47.4597 98.4238 47.5109C98.3962 47.562 98.3805 47.6188 98.3781 47.6769C98.3795 47.7482 98.4017 47.8175 98.4419 47.8764C98.5017 47.9403 98.5754 47.9895 98.6574 48.0201C98.7133 48.0201 98.8729 48.0919 99.1442 48.1637C99.4153 48.2321 99.6819 48.3174 99.9423 48.4191C100.1 48.4815 100.234 48.5924 100.324 48.7359C100.415 48.8794 100.457 49.048 100.445 49.2172C100.444 49.4057 100.385 49.5893 100.277 49.7439C100.163 49.9115 100.002 50.0419 99.8146 50.119C99.5949 50.2113 99.3586 50.2575 99.1203 50.2547C98.7776 50.2616 98.4418 50.1581 98.1626 49.9594C97.9349 49.7536 97.7878 49.4736 97.7476 49.1693Z" fill="#1A1A18"/>
<path d="M102.337 49.6482L102.416 50.143C102.277 50.1729 102.136 50.189 101.993 50.1909C101.833 50.1992 101.674 50.1662 101.531 50.0951C101.426 50.0374 101.342 49.948 101.291 49.8397C101.236 49.6262 101.215 49.4054 101.227 49.1853V47.3098H100.82V46.8709H101.227V46.0728L101.778 45.7376V46.8789H102.337V47.3178H101.778V49.2252C101.759 49.3281 101.759 49.4335 101.778 49.5364C101.796 49.5815 101.83 49.6184 101.874 49.6402C101.93 49.6692 101.994 49.6829 102.057 49.6801L102.337 49.6482Z" fill="#1A1A18"/>
<path d="M102.879 46.2883V45.6498H103.438V46.2883H102.879ZM102.879 50.1749V46.8709H103.438V50.151L102.879 50.1749Z" fill="#1A1A18"/>
<path d="M78.4822 56.0646L78.562 56.5514C78.4266 56.5875 78.2872 56.6063 78.147 56.6072C77.9844 56.6166 77.8222 56.5836 77.6762 56.5115C77.5718 56.4557 77.49 56.3655 77.4447 56.2561C77.3822 56.0439 77.3579 55.8223 77.3729 55.6017V53.7182H76.9659V53.2873H77.4128V52.4892L77.9635 52.154V53.2952H78.5221V53.7262H77.9635V55.6416C77.9441 55.7417 77.9441 55.8447 77.9635 55.9448C77.9813 55.9922 78.0152 56.0317 78.0592 56.0566C78.1194 56.0721 78.1826 56.0721 78.2428 56.0566L78.4822 56.0646Z" fill="#1A1A18"/>
<path d="M81.1716 56.5595V56.0807C81.0587 56.2539 80.9034 56.3955 80.7204 56.4919C80.5375 56.5883 80.3329 56.6363 80.1261 56.6313C79.9426 56.6339 79.7606 56.5986 79.5914 56.5276C79.4449 56.4675 79.3159 56.3714 79.2163 56.2483C79.132 56.1232 79.0749 55.9818 79.0487 55.8332C79.0314 55.6608 79.0314 55.487 79.0487 55.3145V53.2874H79.6074V55.107C79.5896 55.3008 79.5896 55.4958 79.6074 55.6896C79.6398 55.8264 79.7188 55.9477 79.8308 56.0328C79.9509 56.1207 80.0971 56.1657 80.2458 56.1605C80.4111 56.1589 80.5733 56.1149 80.7167 56.0328C80.8533 55.9496 80.9617 55.8272 81.0279 55.6816C81.0982 55.4765 81.128 55.2597 81.1157 55.0432V53.2874H81.6744V56.5595H81.1716Z" fill="#1A1A18"/>
<path d="M83.071 52.0424H82.5204V56.5595H83.071V52.0424Z" fill="#1A1A18"/>
<path d="M86.1919 55.5059L86.7666 55.5777C86.6954 55.8935 86.5179 56.1752 86.2638 56.3758C85.9905 56.5658 85.6626 56.6611 85.33 56.6471C85.1196 56.6582 84.9093 56.6248 84.7127 56.5492C84.516 56.4736 84.3375 56.3574 84.1888 56.2082C83.8916 55.867 83.7398 55.423 83.7658 54.9712C83.7381 54.5047 83.8894 54.0451 84.1888 53.6863C84.3307 53.5359 84.503 53.4175 84.6943 53.339C84.8856 53.2606 85.0915 53.2239 85.2981 53.2314C85.4979 53.2255 85.6966 53.2623 85.8811 53.3394C86.0655 53.4165 86.2313 53.532 86.3675 53.6783C86.6636 54.0261 86.8124 54.4756 86.7825 54.9313V55.067H84.3404C84.3443 55.3604 84.4517 55.6431 84.6437 55.865C84.7317 55.9582 84.8382 56.0319 84.9564 56.0814C85.0746 56.1308 85.2019 56.155 85.33 56.1523C85.5163 56.1614 85.6998 56.1049 85.8488 55.9927C86.0118 55.8608 86.1314 55.6828 86.1919 55.482V55.5059ZM84.3723 54.6121H86.1919C86.1862 54.3886 86.1139 54.1718 85.9844 53.9896C85.8999 53.8879 85.7936 53.8065 85.6735 53.7512C85.5533 53.696 85.4223 53.6684 85.2901 53.6703C85.0519 53.6678 84.8224 53.7596 84.6517 53.9257C84.4673 54.1071 84.3613 54.3535 84.3564 54.6121H84.3723Z" fill="#1A1A18"/>
<path d="M88.3544 56.5595L87.1094 53.2874H87.692L88.3943 55.2507C88.4741 55.4582 88.5459 55.6816 88.6097 55.9051C88.6576 55.7375 88.7215 55.53 88.8172 55.2826L89.5435 53.2874H90.1101L88.8731 56.5595H88.3544Z" fill="#1A1A18"/>
<path d="M90.6051 52.673V52.0346H91.1558V52.673H90.6051ZM90.6051 56.5517V53.2796H91.1558V56.5517H90.6051Z" fill="#1A1A18"/>
<path d="M92.0019 56.5595V52.0424H92.5606V54.6202L93.8774 53.2874H94.5877L93.3427 54.5005L94.7154 56.5595H94.037L92.9516 54.8916L92.5606 55.2666V56.5595H92.0019Z" fill="#1A1A18"/>
<path d="M97.3006 56.5595V56.0807C97.1896 56.2539 97.0358 56.3955 96.8541 56.492C96.6723 56.5884 96.4688 56.6364 96.2631 56.6313C96.0771 56.6339 95.8925 56.5986 95.7205 56.5276C95.5761 56.4676 95.4497 56.3714 95.3533 56.2483C95.2632 56.1256 95.203 55.9834 95.1778 55.8333C95.1614 55.6607 95.1614 55.487 95.1778 55.3145V53.2874H95.7284V55.107C95.7093 55.3007 95.7093 55.4959 95.7284 55.6896C95.7548 55.8269 95.8317 55.9494 95.9439 56.0328C96.067 56.1208 96.2157 56.1657 96.3669 56.1605C96.532 56.1579 96.6939 56.114 96.8378 56.0328C96.9749 55.9525 97.0816 55.829 97.141 55.6816C97.2146 55.4772 97.2472 55.2602 97.2368 55.0432V53.2874H97.7875V56.5595H97.3006Z" fill="#1A1A18"/>
<path d="M100.421 56.5595V52.0424H100.972V53.6386C101.092 53.4966 101.243 53.3829 101.413 53.3056C101.582 53.2284 101.767 53.1895 101.953 53.1917C102.172 53.1854 102.389 53.2348 102.584 53.3353C102.755 53.4184 102.891 53.5599 102.967 53.7343C103.058 53.9651 103.099 54.2127 103.087 54.4606V56.5356H102.528V54.4606C102.549 54.2459 102.486 54.0315 102.352 53.862C102.285 53.7961 102.205 53.745 102.117 53.712C102.029 53.679 101.935 53.6648 101.842 53.6705C101.678 53.6684 101.518 53.7126 101.379 53.7982C101.243 53.8793 101.135 53.9987 101.067 54.1414C100.997 54.3354 100.964 54.5414 100.972 54.7479V56.5356L100.421 56.5595Z" fill="#1A1A18"/>
<path d="M106.143 55.506L106.718 55.5778C106.65 55.8949 106.472 56.1776 106.215 56.3759C105.898 56.578 105.524 56.6709 105.149 56.6407C104.775 56.6104 104.42 56.4586 104.14 56.2083C103.846 55.8658 103.697 55.422 103.725 54.9713C103.693 54.5042 103.845 54.0432 104.148 53.6864C104.288 53.5358 104.459 53.4171 104.649 53.3386C104.839 53.2601 105.044 53.2236 105.249 53.2315C105.449 53.2246 105.648 53.2609 105.833 53.3381C106.018 53.4152 106.183 53.5313 106.319 53.6784C106.617 54.0254 106.769 54.4747 106.742 54.9314C106.742 54.9314 106.742 55.0192 106.742 55.083H104.3C104.306 55.3775 104.416 55.6603 104.611 55.8811C104.697 55.974 104.803 56.0477 104.919 56.0972C105.036 56.1467 105.162 56.171 105.289 56.1684C105.476 56.1774 105.659 56.121 105.808 56.0088C105.976 55.8813 106.097 55.7016 106.151 55.498L106.143 55.506ZM104.324 54.6122H106.143C106.137 54.3887 106.065 54.1719 105.936 53.9897C105.853 53.8882 105.748 53.8068 105.629 53.7515C105.51 53.6962 105.38 53.6685 105.249 53.6704C105.13 53.6681 105.012 53.6895 104.901 53.7333C104.79 53.7772 104.688 53.8426 104.603 53.9258C104.439 54.1171 104.349 54.3603 104.348 54.6122H104.324Z" fill="#1A1A18"/>
<path d="M109.575 56.1604C109.399 56.3142 109.2 56.4382 108.984 56.5275C108.787 56.5986 108.579 56.6338 108.37 56.6313C108.082 56.6458 107.798 56.555 107.572 56.3759C107.478 56.29 107.404 56.185 107.354 56.068C107.305 55.9509 107.281 55.8246 107.284 55.6975C107.279 55.5435 107.317 55.391 107.396 55.2586C107.465 55.1331 107.56 55.0241 107.676 54.9394C107.802 54.8594 107.939 54.7976 108.083 54.7558C108.243 54.72 108.406 54.6934 108.569 54.676C108.904 54.6432 109.236 54.5791 109.559 54.4845C109.562 54.4366 109.562 54.3886 109.559 54.3408C109.567 54.2543 109.557 54.1671 109.529 54.0847C109.502 54.0023 109.458 53.9265 109.399 53.862C109.219 53.7251 108.994 53.6597 108.769 53.6784C108.565 53.6608 108.361 53.7083 108.186 53.8141C108.04 53.9385 107.944 54.1113 107.915 54.3009L107.372 54.2211C107.408 54.0189 107.49 53.8277 107.612 53.6624C107.742 53.5066 107.913 53.3905 108.106 53.3273C108.346 53.2503 108.597 53.2126 108.849 53.2155C109.079 53.2083 109.308 53.2407 109.527 53.3113C109.673 53.362 109.804 53.4468 109.91 53.5587C110 53.6695 110.06 53.8013 110.086 53.9418C110.098 54.1118 110.098 54.2825 110.086 54.4525V55.1868C110.077 55.5145 110.091 55.8424 110.126 56.1684C110.149 56.3064 110.198 56.4389 110.269 56.5594H109.687C109.626 56.4341 109.588 56.299 109.575 56.1604ZM109.527 54.9154C109.237 55.0255 108.934 55.0979 108.625 55.1309C108.458 55.1447 108.295 55.1824 108.138 55.2426C108.049 55.2757 107.973 55.3375 107.923 55.4182C107.869 55.4954 107.841 55.5876 107.843 55.6816C107.842 55.7525 107.856 55.8229 107.885 55.8877C107.914 55.9524 107.957 56.0101 108.011 56.0567C108.154 56.1615 108.329 56.2123 108.506 56.2003C108.703 56.2018 108.897 56.1552 109.072 56.0646C109.233 55.9762 109.361 55.8394 109.439 55.6736C109.51 55.4992 109.54 55.3108 109.527 55.1229V54.9154Z" fill="#1A1A18"/>
<path d="M110.956 56.5595V52.0424H111.506V54.6202L112.823 53.2874H113.534L112.289 54.5005L113.661 56.5595H112.983L111.898 54.8916L111.506 55.2666V56.5595H110.956Z" fill="#1A1A18"/>
<path d="M113.885 55.586L114.427 55.4982C114.436 55.5953 114.463 55.6897 114.508 55.776C114.554 55.8624 114.616 55.9388 114.691 56.001C114.865 56.1075 115.065 56.1638 115.269 56.1638C115.473 56.1638 115.674 56.1075 115.848 56.001C115.904 55.9576 115.95 55.902 115.982 55.8385C116.014 55.7749 116.03 55.7049 116.031 55.6338C116.032 55.5742 116.017 55.5153 115.988 55.4634C115.958 55.4115 115.915 55.3684 115.864 55.3386C115.684 55.2524 115.493 55.1907 115.297 55.155C115.007 55.091 114.724 55.0001 114.451 54.8837C114.306 54.8203 114.183 54.7151 114.098 54.5815C114.012 54.4479 113.969 54.2919 113.972 54.1335C113.973 53.9937 114.008 53.8561 114.073 53.7324C114.138 53.6088 114.232 53.5027 114.347 53.4232C114.456 53.3501 114.574 53.2937 114.699 53.2556C114.855 53.2138 115.016 53.1923 115.177 53.1917C115.408 53.1885 115.638 53.2263 115.856 53.3035C116.024 53.3612 116.172 53.4632 116.287 53.5988C116.389 53.752 116.455 53.9268 116.478 54.1095L115.936 54.1814C115.927 54.1052 115.904 54.0315 115.867 53.9644C115.83 53.8973 115.78 53.8381 115.72 53.7903C115.573 53.6873 115.396 53.6367 115.217 53.6466C115.027 53.6291 114.837 53.6739 114.675 53.7743C114.626 53.8063 114.585 53.8501 114.557 53.9017C114.529 53.9533 114.515 54.011 114.515 54.0696C114.512 54.1392 114.534 54.2075 114.579 54.2612C114.636 54.3303 114.71 54.3827 114.794 54.4128L115.281 54.5565C115.553 54.6223 115.82 54.7077 116.079 54.8118C116.239 54.8699 116.375 54.9803 116.465 55.125C116.555 55.2698 116.593 55.4406 116.574 55.6099C116.576 55.7953 116.521 55.9767 116.414 56.1287C116.303 56.3005 116.141 56.4342 115.952 56.5117C115.731 56.6006 115.495 56.6441 115.257 56.6394C114.913 56.6592 114.571 56.5668 114.284 56.3761C114.055 56.1733 113.912 55.8906 113.885 55.586Z" fill="#1A1A18"/>
</svg>
