<svg width="181" height="72" viewBox="0 0 181 72" fill="none" xmlns="http://www.w3.org/2000/svg">
<path d="M20.9092 53.0276C20.9092 53.1069 20.9092 53.2657 20.989 53.3451C21.1486 53.1863 21.4678 53.0276 21.7073 52.9482C21.7871 52.5513 22.1861 52.2337 22.6649 52.2337H22.7447C22.3457 52.3131 22.1063 52.6306 21.9467 52.9482C21.7073 53.0276 21.5476 53.1863 21.5476 53.5039C21.5476 53.6626 21.5476 53.742 21.6274 53.8214C21.8669 53.5832 22.1063 53.4245 22.4255 53.3451C22.5053 52.9482 22.9043 52.5513 23.3034 52.5513C22.9043 52.71 22.6649 53.1069 22.6649 53.5039C22.6649 53.6626 22.6649 53.8214 22.7447 53.9802C22.8245 53.742 23.064 53.5832 23.3034 53.5832C23.3832 53.5832 23.463 53.5832 23.463 53.5832C23.5428 53.5832 23.6226 53.6626 23.7024 53.6626C24.1014 53.6626 24.5005 53.3451 24.5005 52.8688C24.5005 52.7894 24.5005 52.71 24.5005 52.6307C24.7399 52.71 24.8197 52.8688 24.8197 53.1069C24.8197 53.1863 24.8197 53.2657 24.7399 53.3451C24.8197 53.3451 24.8197 53.3451 24.8995 53.3451C25.3783 53.3451 25.8572 52.9482 25.8572 52.4719C26.0966 52.3131 26.336 52.1544 26.4956 51.9162L26.6552 52.5513C26.6552 52.6306 26.6552 52.6307 26.6552 52.71C26.6552 52.7894 26.6552 52.7894 26.5754 52.7894L27.1341 52.2337L27.2139 52.1544C27.2139 52.075 27.2139 52.075 27.2139 51.9956L27.0543 51.2018C27.0543 51.1224 27.0543 51.1224 27.0543 51.043C27.0543 50.9636 27.0543 50.9636 27.1341 50.9636L27.6129 50.4873L27.5331 50.5667C27.5331 50.6461 27.5331 50.6461 27.5331 50.7255L27.6927 51.5193C27.6927 51.5987 27.6927 51.5987 27.6927 51.6781C27.6927 51.7574 27.6927 51.7574 27.6129 51.7574L28.0917 51.2018L28.1715 51.1224C28.1715 51.043 28.1715 51.043 28.1715 50.9636L28.0119 50.1698C28.0119 50.0904 28.0119 50.0904 28.0119 50.011C28.0119 49.9316 28.0119 49.9316 28.0917 49.9316L28.5706 49.4553L28.4908 49.5347C28.4908 49.6141 28.4908 49.6141 28.4908 49.6935L28.6504 50.4873C28.6504 50.5667 28.6504 50.5667 28.6504 50.6461C28.6504 50.7255 28.6504 50.7255 28.5706 50.7255L29.0494 50.1698L29.1292 50.0904C29.1292 50.011 29.1292 50.011 29.1292 49.9316L29.0494 49.5347C28.9696 49.0584 29.4484 48.5821 29.7677 48.5028C29.8475 48.4234 29.8475 48.344 29.8475 48.2646C29.8475 47.7883 29.2888 47.4708 28.6504 47.4708C28.3312 47.4708 28.0119 47.5502 27.8523 47.7089C27.9321 47.9471 27.9321 48.2646 27.1341 48.344C26.4956 48.4234 25.8572 48.5821 25.3783 48.9791C24.6601 49.5347 24.7399 50.3286 24.3408 50.6461C24.5005 50.7255 24.7399 50.7255 24.9793 50.6461C25.1389 50.6461 25.2985 50.5667 25.3783 50.4873C25.2985 50.6461 25.1389 50.7255 24.8995 50.8842C24.8197 51.1224 24.5803 51.4399 24.261 51.5193C24.0216 51.5987 23.862 51.5987 23.7024 51.5193L22.9043 51.2811C22.8245 51.2811 22.6649 51.2018 22.5851 51.2018C21.9467 51.2018 21.4678 51.6781 21.388 52.2337C21.1486 52.4719 20.9092 52.71 20.9092 53.0276ZM28.9696 20.8776C29.4484 20.4013 30.0071 20.0044 30.5657 19.7663C30.5657 19.6869 30.5657 19.6075 30.5657 19.5281C28.0917 19.925 25.8572 21.1951 23.7822 21.1951C23.2236 21.1951 22.7447 20.957 22.6649 20.6395C22.6649 20.5601 22.6649 20.4807 22.6649 20.4013C22.6649 20.2426 22.8245 20.1632 22.9841 20.1632C23.1438 20.1632 23.3034 20.3219 23.3034 20.4807C23.3034 20.5601 23.3034 20.6395 23.2236 20.7189C23.3034 20.7189 23.3034 20.7189 23.3832 20.7189C23.5428 20.7189 23.7024 20.7189 23.862 20.6395C24.1014 20.5601 24.261 20.4013 24.261 20.1632C24.261 19.8456 24.0216 19.6869 23.7822 19.6869C23.7822 19.6869 23.7822 19.6869 23.7024 19.6869C23.7822 19.6869 23.862 19.6075 23.9418 19.6075C24.261 19.6075 24.5005 19.8456 24.5005 20.1632C24.5005 20.1632 24.5005 20.1632 24.5005 20.2426C25.3783 20.2426 26.4158 19.4487 26.5754 19.1312C26.2562 19.2106 26.0168 19.2106 25.6976 19.2106C25.3783 19.2106 24.9793 19.1312 24.6601 19.0518C24.261 18.9724 23.7822 18.8931 23.463 18.8931C22.3457 18.8931 21.4678 19.6075 21.4678 20.4807C21.4678 21.1951 22.1063 21.8302 22.9043 21.989C24.8995 22.3859 27.1341 21.2745 28.9696 20.8776ZM18.3554 23.4972C18.4352 23.2591 18.4352 22.9416 18.4352 22.7034L18.116 23.0209C18.0362 22.9416 18.0362 22.8622 18.0362 22.7828C18.0362 22.7034 17.9564 22.7034 17.9564 22.7034C17.9564 22.7034 17.9564 22.7034 17.8766 22.7034H17.7968H17.717H17.6371C17.6371 22.7034 17.5573 22.7034 17.5573 22.7828C17.5573 22.8622 17.4775 22.9416 17.4775 23.0209L17.2381 22.7034C17.2381 22.9416 17.2381 23.1797 17.3179 23.4972C17.4775 23.4972 17.6371 23.4179 17.8766 23.4179C17.9564 23.4179 18.116 23.4179 18.3554 23.4972ZM18.4352 24.2117C18.4352 23.8942 18.116 23.8148 17.7968 23.8148C17.4775 23.8148 17.1583 23.8942 17.1583 24.2117C17.1583 24.6086 17.5573 24.3705 17.7968 24.3705C18.0362 24.3705 18.4352 24.5292 18.4352 24.2117ZM19.3131 21.989C19.2333 21.989 19.2333 22.0684 19.2333 22.0684C19.2333 22.3859 19.0737 22.5447 18.8342 22.624C18.8342 22.9416 18.7544 23.2591 18.6746 23.5766C18.914 24.1323 18.7544 24.5292 18.515 24.6086C18.2756 24.688 18.0362 24.6086 17.7968 24.6086C17.5573 24.6086 17.2381 24.688 17.0785 24.6086C16.8391 24.5292 16.6795 24.1323 16.9189 23.5766C16.8391 23.2591 16.7593 22.9416 16.7593 22.624C16.5199 22.5447 16.3603 22.3859 16.3603 22.0684C16.3603 21.989 16.2804 21.989 16.2804 21.989C15.4026 21.7508 15.3228 20.6395 15.7218 20.3219C15.642 20.7982 15.642 21.5127 16.6795 21.5921C16.6795 22.1477 16.9189 22.3065 17.1583 22.3065C17.3977 22.3065 17.4775 22.2271 17.5573 22.2271C17.717 22.1477 17.6371 21.989 17.5573 21.9096C17.3977 21.7508 17.3977 21.5921 17.3977 21.4333C17.3977 21.4333 17.3977 21.3539 17.4775 21.3539H17.7968H18.116C18.116 21.3539 18.1958 21.3539 18.1958 21.4333C18.1958 21.5921 18.1958 21.7508 18.0362 21.9096C17.9564 21.989 17.8766 22.1477 18.0362 22.2271C18.116 22.2271 18.1958 22.3065 18.4352 22.3065C18.6746 22.3065 18.9938 22.1477 18.914 21.5921C19.9515 21.5127 19.8717 20.7982 19.8717 20.3219C20.3506 20.6395 20.2707 21.7508 19.3131 21.989ZM19.6323 20.0838C19.6323 20.3219 19.4727 20.6395 19.2333 20.6395H19.0737C19.1535 20.7189 19.1535 20.7982 19.1535 20.8776C19.1535 21.0364 18.9938 21.1951 18.8342 21.1951C18.6746 21.1951 18.515 21.0364 18.515 20.8776C18.515 20.7982 18.515 20.7189 18.5948 20.6395H18.3554C18.2756 20.6395 18.1958 20.6395 18.1958 20.7189C18.1958 20.6395 18.1958 20.4807 18.1958 20.4013C18.1958 20.3219 18.2756 20.2426 18.3554 20.2426H19.2333C19.3929 20.2426 19.5525 20.1632 19.6323 20.0838ZM19.4727 19.6075H19.1535C18.9938 19.6075 18.914 19.5281 18.7544 19.4487L18.3554 18.9724C18.2756 18.8931 18.2756 18.8137 18.1958 18.8137H18.515C18.5948 18.8137 18.7544 18.8931 18.7544 18.9724L19.1535 19.4487C19.3929 19.5281 19.3929 19.6075 19.4727 19.6075ZM17.8766 18.8137L18.3554 19.4487C18.4352 19.5281 18.515 19.6075 18.5948 19.6869H18.1958C18.0362 19.6869 17.9564 19.6075 17.8766 19.5281L17.4775 18.9724C17.3179 18.7343 17.3179 18.7343 17.1583 18.6549H17.5573C17.6371 18.6549 17.7968 18.7343 17.8766 18.8137ZM16.7593 18.9724L17.1583 19.4487C17.2381 19.5281 17.2381 19.6075 17.3977 19.6075H17.0785C16.9189 19.6075 16.8391 19.5281 16.6795 19.4487L16.2804 18.9724C16.2006 18.8931 16.2006 18.8137 16.1208 18.8137H16.5199C16.5997 18.8137 16.7593 18.8931 16.7593 18.9724ZM16.5997 20.6395H16.4401C16.2006 20.6395 16.041 20.3219 16.041 20.0838C16.1208 20.2426 16.2804 20.2426 16.4401 20.2426H17.3179C17.3977 20.2426 17.4775 20.3219 17.4775 20.4013C17.4775 20.4807 17.4775 20.5601 17.4775 20.7189C17.4775 20.6395 17.3977 20.6395 17.3179 20.6395H17.0785C17.1583 20.7189 17.1583 20.7982 17.1583 20.8776C17.1583 21.0364 16.9987 21.1951 16.8391 21.1951C16.6795 21.1951 16.5199 21.0364 16.5199 20.8776C16.5199 20.7189 16.5199 20.6395 16.5997 20.6395ZM15.4824 24.9261L15.5622 24.688C15.5622 24.6086 15.5622 24.6086 15.5622 24.5292C15.5622 24.4498 15.5622 24.4498 15.5622 24.3705L15.8814 24.9261C15.8814 25.0055 15.8814 25.0055 15.8814 25.0849C15.8814 25.1643 15.8814 25.1643 15.8814 25.2437V25.323C15.7218 25.72 15.5622 26.355 15.7218 26.7519C15.243 26.5932 15.1632 26.1962 15.1632 25.8787C14.2853 25.0849 14.1257 24.2911 14.6843 23.5766L15.0035 23.1797L15.0834 23.1003C15.0834 23.0209 15.0834 23.0209 15.0834 22.9416L15.243 23.5766C15.243 23.656 15.243 23.656 15.243 23.7354C15.243 23.8148 15.243 23.8148 15.1632 23.8148L15.0834 23.8942C14.7641 24.2911 14.8439 24.7674 15.3228 25.1643C15.3228 25.0849 15.4026 25.0055 15.4824 24.9261ZM36.1521 27.1488C36.1521 27.0695 36.2319 26.9901 36.2319 26.9107C36.2319 26.5138 35.9127 26.1963 35.5137 26.1963H34.7954C34.7156 26.1963 34.7156 26.1963 34.6358 26.1963L34.556 26.1169L34.2368 25.6406L34.3166 25.72C34.3166 25.72 34.3964 25.72 34.4762 25.72H35.3541C35.4339 25.72 35.4339 25.72 35.5137 25.72L35.5935 25.7993L35.1945 25.1643L35.1147 25.0849C35.1147 25.0849 35.0349 25.0849 34.955 25.0849H34.0772C33.9974 25.0849 33.9974 25.0849 33.9176 25.0849L33.8378 25.0055L33.4387 24.4498L33.5185 24.5292C33.5185 24.5292 33.5983 24.5292 33.6782 24.5292H34.556C34.6358 24.5292 34.6358 24.5292 34.7156 24.5292L34.7954 24.6086L34.3964 23.9735L34.3166 23.8942C34.3166 23.8942 34.2368 23.8942 34.157 23.8942H33.4387C33.3589 23.8942 33.3589 23.8942 33.2791 23.8942L33.1993 23.8148L32.7205 23.1003C33.6782 23.0209 34.4762 22.4653 34.6358 21.7508C34.8752 20.7982 33.9176 19.925 32.5609 19.6869C32.3214 19.6869 32.1618 19.4487 32.1618 19.2106C32.1618 18.9724 32.3214 18.8137 32.4811 18.7343C32.3214 18.6549 32.1618 18.6549 32.0022 18.6549C31.3638 18.6549 30.8849 19.0518 30.8849 19.6075C30.8849 19.6869 30.8849 19.7663 30.9647 19.8456C30.3263 20.1632 29.6879 20.6395 29.209 21.1951C29.6879 21.0364 30.2465 20.957 30.8051 20.957V20.8776C30.8051 20.4807 31.1244 20.1632 31.5234 20.1632C31.284 20.3219 31.1244 20.5601 31.1244 20.7189C31.1244 20.957 31.284 21.1158 31.5234 21.1158C31.6032 21.1158 31.683 21.1158 31.7628 21.0364C31.7628 20.957 31.7628 20.957 31.7628 20.8776C31.7628 20.5601 32.0022 20.3219 32.3214 20.3219H32.4013C32.1618 20.4013 32.082 20.6395 32.082 20.8776C32.082 21.1951 32.3215 21.4333 32.6407 21.4333H32.7205V21.3539C32.7205 21.1158 32.8801 20.957 33.1195 20.957C33.3589 20.957 33.5185 21.1158 33.5185 21.3539C33.5185 21.8302 32.9599 21.9096 32.5609 21.8302C31.3638 21.5127 30.2465 21.3539 29.209 21.5127C27.8523 21.6714 25.6177 22.624 23.2236 22.5447C22.6649 22.5447 22.1063 22.4653 21.5476 22.3065C21.6274 22.3859 21.6274 22.4653 21.7073 22.4653C21.9467 22.8622 22.0265 23.1797 21.7871 23.656C21.7871 23.1003 21.388 22.7034 20.989 22.3859C20.8294 22.3065 20.7496 22.1477 20.8294 22.0684L20.9092 21.4333C20.9092 21.5127 20.9092 21.5127 20.9092 21.5921C20.9092 21.6714 20.9092 21.6714 20.989 21.6714L21.2284 21.9096C21.3082 21.2745 21.1486 20.7189 20.8294 20.1632C20.989 19.7663 20.989 19.29 20.9092 18.8137C20.8294 19.1312 20.6698 19.29 20.5102 19.3693C20.1909 19.5281 20.1909 19.8456 20.3506 20.0838C20.1111 19.925 19.7919 19.5281 19.9515 19.2106C20.1909 18.8931 20.7496 19.0518 20.8294 18.5755C20.4304 18.4961 20.0313 18.5755 19.9515 18.5755C19.7121 18.3374 19.4727 18.1786 19.0737 18.1786C18.7544 17.9405 18.4352 17.7817 17.9564 17.8611C17.4775 17.7817 17.1583 17.9405 16.8391 18.1786C16.4401 18.1786 16.2006 18.3374 15.9612 18.5755C15.8814 18.5755 15.4824 18.4961 15.0834 18.5755C15.1632 19.0518 15.7218 18.8931 15.9612 19.2106C16.1208 19.4487 15.8016 19.925 15.5622 20.0838C15.7218 19.8456 15.642 19.6075 15.4026 19.3693C15.243 19.29 15.0834 19.1312 15.0035 18.8137C14.9237 19.29 14.9237 19.6869 15.0834 20.1632C14.6843 20.7189 14.6045 21.2745 14.6843 21.9096L14.9237 21.6714L15.0035 21.5921C15.0035 21.5127 15.0035 21.5127 15.0035 21.4333L15.0834 22.0684C15.0834 22.2271 15.0834 22.3065 14.9237 22.3859C14.5247 22.624 14.1257 23.1003 14.1257 23.656C13.8863 23.1797 13.9661 22.7828 14.2055 22.4653C13.4872 22.0684 13.0084 21.5127 12.8488 21.3539C12.6094 21.1158 12.6892 20.7982 12.8488 20.5601C13.2478 20.0044 13.3276 19.4487 12.8488 19.0518V18.9724C12.8488 18.6549 12.6094 18.3374 12.2901 18.258C12.37 18.3374 12.37 18.4961 12.37 18.5755C12.37 18.7343 12.2901 18.8137 12.2103 18.9724C12.2901 19.0518 12.2901 19.1312 12.2901 19.29C12.2901 19.4487 12.2103 19.6075 12.1305 19.6869C12.1305 19.6075 12.1305 19.6075 12.1305 19.5281C12.1305 19.1312 11.8911 18.8931 11.5719 18.8137C11.4921 18.5755 11.3325 18.3374 11.0132 18.3374C10.8536 18.3374 10.694 18.4168 10.6142 18.4961C10.8536 18.4961 11.0132 18.6549 11.0132 18.8931C10.9334 18.9724 10.8536 19.0518 10.7738 19.2106C11.1729 19.2106 11.4123 19.5281 11.4123 19.8456C11.4123 19.925 11.4123 19.925 11.4123 20.0044C11.4123 19.8456 11.3325 19.6869 11.1729 19.6075C10.9334 19.3693 10.694 19.3693 10.3748 19.4487C10.295 19.29 10.1354 19.2106 9.89597 19.2106C9.65655 19.2106 9.49694 19.29 9.41713 19.4487C9.65655 19.4487 9.81616 19.5281 9.89597 19.6869C9.57674 20.0838 9.57674 20.5601 9.89597 20.8776C10.1354 21.0364 10.3748 21.1158 10.6142 21.0364C10.6142 21.0364 10.6142 21.0364 10.694 21.0364C10.7738 21.0364 10.8536 21.1158 10.8536 21.1951C10.8536 21.2745 10.7738 21.3539 10.694 21.3539C10.6142 21.3539 10.6142 21.3539 10.6142 21.2745C10.5344 21.1951 10.4546 21.1951 10.3748 21.1951C10.1354 21.1951 9.97577 21.3539 9.97577 21.5921C9.97577 21.5921 9.97577 21.5921 9.97577 21.6714H9.89597C9.81616 21.6714 9.65655 21.5921 9.65655 21.5921C9.65655 21.6714 9.65655 21.6714 9.65655 21.7508C9.65655 21.989 9.89597 22.2271 10.1354 22.3065C10.295 22.624 10.5344 22.7828 10.9334 22.7828C11.0931 22.7828 11.2527 22.7034 11.4123 22.624C11.4921 22.5447 11.5719 22.5447 11.6517 22.5447C11.8113 22.5447 12.0507 22.7034 12.0507 22.9416C12.0507 23.1003 11.8911 23.2591 11.7315 23.2591L11.4123 23.3385C11.3325 23.3385 11.3325 23.3385 11.2527 23.3385C11.1729 23.3385 11.1729 23.3385 11.1729 23.2591L11.8113 23.8942L11.8911 23.9735C11.9709 23.9735 11.9709 23.9735 12.0507 23.9735L12.6094 23.8942C12.6892 23.8942 12.6892 23.8942 12.769 23.8942C12.8488 23.8942 12.8488 23.8942 12.8488 23.9735L13.3276 24.3705L13.2478 24.2911C13.168 24.2911 13.168 24.2911 13.0882 24.2911L12.5296 24.3705C12.4498 24.3705 12.4498 24.3705 12.37 24.3705C12.2901 24.3705 12.2901 24.3705 12.2901 24.2911L12.8488 24.8467L12.9286 24.9261C13.0084 24.9261 13.0084 24.9261 13.0882 24.9261L13.6468 24.8467C13.7267 24.8467 13.7267 24.8467 13.8065 24.8467C13.8863 24.8467 13.8863 24.8467 13.8863 24.9261L14.3651 25.323L14.2853 25.2437C14.2055 25.2437 14.2055 25.2437 14.1257 25.2437L13.4872 25.4024C13.4074 25.4024 13.4074 25.4024 13.3276 25.4024C13.2478 25.4024 13.2478 25.4024 13.2478 25.323L13.8065 25.8787L13.8863 25.9581C13.9661 25.9581 13.9661 25.9581 14.0459 25.9581L14.6843 25.7993C14.0459 26.1169 13.4074 26.5138 12.6892 26.9901C12.2901 27.2282 11.8113 27.3076 11.3325 27.0695C11.0931 26.9901 10.7738 26.9107 10.5344 26.9901C10.295 27.0695 10.0556 27.1488 9.97577 27.387C10.0556 27.387 10.2152 27.3076 10.295 27.3076C10.5344 27.3076 10.694 27.387 10.8536 27.5458C10.6142 27.4664 10.295 27.4664 10.0556 27.5458C9.57674 27.7045 9.25752 28.1808 9.33732 28.6571C9.17771 28.7365 9.0181 28.8953 9.0181 29.1334C9.0181 29.2922 9.09791 29.3716 9.17771 29.5303C9.25752 29.2922 9.41713 29.1334 9.65655 29.1334C9.73635 29.2128 9.89597 29.2128 9.97577 29.2922C9.97577 29.2128 10.0556 29.1334 10.1354 29.1334C10.1354 29.054 10.1354 29.054 10.1354 28.9746C10.1354 28.4983 10.5344 28.1014 11.0132 28.1014H11.0931C10.694 28.1808 10.4546 28.4983 10.4546 28.8953C10.4546 28.9746 10.4546 28.9746 10.4546 29.054C10.2152 29.1334 10.1354 29.2922 10.1354 29.5303C10.1354 29.6891 10.2152 29.7685 10.295 29.8478C10.4546 29.5303 10.694 29.3716 11.0931 29.3716C11.2527 29.3716 11.3325 29.4509 11.4921 29.4509C11.5719 29.4509 11.6517 29.4509 11.7315 29.4509C11.6517 29.3716 11.6517 29.2128 11.6517 29.054C11.6517 28.6571 11.9709 28.419 12.2901 28.419H12.37C12.0507 28.5777 11.8113 28.8953 11.8911 29.1334C11.9709 29.2922 12.1305 29.4509 12.37 29.5303C12.37 29.6891 12.2901 29.8478 12.2901 29.9272C12.6094 29.9272 12.8488 29.6891 13.0084 29.4509C13.4074 29.2922 13.567 28.9746 13.4872 28.7365C13.4872 28.6571 13.4074 28.5777 13.3276 28.4983C13.3276 28.3396 13.4872 28.1808 13.6468 28.1808C13.8065 28.1808 13.9661 28.3396 13.9661 28.4983C13.9661 28.5777 13.9661 28.6571 13.8863 28.7365H14.6045C14.6843 28.7365 14.6843 28.7365 14.7641 28.7365L14.8439 28.6571L15.3228 27.9427L15.4026 27.8633H15.4824H16.041H15.9612C15.9612 27.8633 15.8814 27.8633 15.8814 27.9427L15.4026 28.5777L15.3228 28.6571C15.3228 28.6571 15.243 28.6571 15.1632 28.6571H16.041C16.1208 28.6571 16.1208 28.6571 16.2006 28.6571L16.2804 28.5777L16.8391 27.7839C16.4401 27.5458 16.3603 27.2282 16.3603 26.7519C16.3603 26.4344 16.5199 26.1169 16.5199 25.8787V25.7993C16.5199 25.72 16.5199 25.72 16.5199 25.6406C16.5199 25.6406 16.5199 25.5612 16.4401 25.5612L16.9189 26.0375L16.9987 26.1169C16.9987 26.1963 16.9987 26.1962 16.9987 26.2756V26.355C16.9987 26.5138 16.7593 26.9107 17.1583 27.3076C17.1583 27.3076 17.2381 27.387 17.3179 27.387L17.6371 27.5458V26.4344H18.0362V27.7045C18.0362 27.7839 18.0362 27.7839 18.0362 27.8633L18.116 27.9427L18.515 28.1808C18.5948 28.1808 18.5948 28.1808 18.6746 28.2602C18.7544 28.2602 18.7544 28.2602 18.8342 28.2602L19.6323 27.9427C19.5525 27.9427 19.5525 27.9427 19.4727 27.9427C19.3929 27.9427 19.3929 27.9427 19.3131 27.8633L18.4352 27.3076C18.8342 26.9107 18.5948 26.5138 18.5948 26.355V26.2756C18.5948 26.1962 18.5948 26.1963 18.5948 26.1169C18.5948 26.0375 18.6746 26.0375 18.6746 26.0375L19.1535 25.5612L19.0737 25.6406C19.0737 25.72 19.0737 25.72 19.0737 25.7993V25.8787C19.0737 26.1962 19.3929 26.7519 19.1535 27.0695L19.9515 27.5458C20.0313 27.5458 20.0313 27.5458 20.1111 27.6251C20.1909 27.6251 20.1909 27.6251 20.2707 27.6251L21.0688 27.3076C20.989 27.3076 20.989 27.3076 20.9092 27.3076C20.8294 27.3076 20.8294 27.3076 20.7496 27.2282L19.9515 26.6725C20.1111 26.2756 19.9515 25.6406 19.7919 25.323V25.2437C19.7919 25.1643 19.7919 25.1643 19.7919 25.0849C19.7919 25.0055 19.7919 25.0055 19.7919 24.9261L20.1111 24.3705C20.1111 24.3705 20.1111 24.4498 20.1111 24.5292C20.1111 24.6086 20.1111 24.6086 20.1111 24.688L20.1909 24.9261C20.2707 25.0055 20.2707 25.0849 20.3506 25.2437C20.8294 24.7674 20.989 24.3705 20.6698 23.9735L20.59 23.8942L20.5102 23.8148C20.5102 23.7354 20.5102 23.7354 20.5102 23.656L20.6698 23.0209C20.6698 23.1003 20.6698 23.1003 20.6698 23.1797C20.6698 23.2591 20.6698 23.2591 20.7496 23.2591L21.0688 23.656C21.7073 24.3705 21.3082 25.2437 20.59 25.8787C20.59 26.0375 20.6698 26.2756 20.6698 26.355L21.6274 26.9901C21.6274 26.9901 21.7073 26.9901 21.7871 27.0695C21.8669 27.0695 21.8669 27.0695 21.9467 27.0695L22.6649 26.7519C22.6649 26.7519 22.5851 26.7519 22.5053 26.7519C22.3457 26.7519 22.1861 26.5932 22.1861 26.4344C22.1861 26.2756 22.2659 26.1963 22.4255 26.1169C25.0591 25.323 27.4533 23.2591 29.0494 23.2591C29.8475 23.2591 30.4859 23.7354 30.4859 24.2911C30.4859 24.3705 30.4859 24.4498 30.4061 24.5292C30.0869 25.4818 30.5657 26.355 31.8426 26.7519C32.082 26.8313 32.2416 26.9901 32.2416 27.2282C32.2416 27.3076 32.2416 27.3076 32.2416 27.387H32.3214C32.6407 27.387 32.9599 27.2282 33.1993 26.9107C33.4387 26.9107 33.6782 26.9107 33.9176 26.8313C33.9176 26.9107 33.9974 26.9901 33.9974 27.0695C34.0772 27.3076 33.9176 27.6251 33.758 27.6251C33.4387 27.7045 33.1195 27.6251 32.8003 27.6251C32.2416 27.6251 31.8426 28.1014 31.8426 28.5777C31.8426 28.6571 31.8426 28.6571 31.8426 28.7365C31.683 28.8159 31.5234 29.054 31.5234 29.2128C31.5234 29.2922 31.5234 29.4509 31.6032 29.5303C31.7628 29.3716 32.0022 29.2128 32.2416 29.1334C32.2416 28.6571 32.6407 28.2602 33.1195 28.2602C33.1993 28.2602 33.2791 28.2602 33.3589 28.2602C32.8801 28.3396 32.4811 28.7365 32.4811 29.2128V29.2922C32.4013 29.3716 32.4013 29.4509 32.4013 29.5303C32.4013 29.6891 32.4811 29.7685 32.5609 29.8478C32.6407 29.6891 32.8801 29.4509 33.1195 29.3716C33.1195 29.3716 33.3589 29.3716 33.5185 29.3716C33.5185 29.2922 33.5185 29.2128 33.5185 29.1334C33.5185 28.7365 33.8378 28.3396 34.3166 28.3396H34.3964C34.0772 28.3396 33.8378 28.6571 33.8378 28.9746C33.8378 29.2128 33.9176 29.3716 34.0772 29.4509C34.0772 29.6097 34.157 29.7685 34.2368 29.8478C34.3166 29.5303 34.556 29.3716 34.7954 29.3716C35.0349 29.3716 35.2743 29.3716 35.4339 29.2922C35.6733 29.2128 35.9127 28.9746 35.9127 28.6571C35.9127 28.419 35.8329 28.2602 35.6733 28.1808C35.7531 27.8633 35.7531 27.3076 35.5935 26.9107H35.6733C35.9127 26.9107 36.0723 26.9901 36.1521 27.1488ZM22.7447 32.7056C22.7447 32.6262 22.7447 32.5469 22.7447 32.4675C22.7447 32.3087 22.9043 32.2293 23.064 32.2293C23.2236 32.2293 23.3832 32.3881 23.3832 32.5469C23.3832 32.6262 23.3832 32.7056 23.3034 32.785C23.3832 32.785 23.3832 32.785 23.463 32.785C23.6226 32.785 23.7822 32.785 23.9418 32.7056C24.1812 32.6262 24.3408 32.4675 24.3408 32.2293C24.3408 31.9118 24.1014 31.753 23.862 31.753C23.862 31.753 23.862 31.753 23.7822 31.753C23.862 31.753 23.9418 31.6736 24.0216 31.6736C24.3409 31.6736 24.5803 31.9118 24.5803 32.2293C24.5803 32.2293 24.5803 32.2293 24.5803 32.3087C25.4581 32.3087 26.4956 31.5149 26.6552 31.1974C26.336 31.2767 26.0966 31.2767 25.7774 31.2767C25.4581 31.2767 25.0591 31.1974 24.7399 31.118C24.3408 31.0386 23.862 30.9592 23.5428 30.9592C22.4255 30.9592 21.5476 31.6736 21.5476 32.5469C21.5476 33.2613 22.1861 33.8964 22.9841 34.0551C24.8995 34.452 27.1341 33.3407 28.9696 32.9438C29.4484 32.4675 30.0071 32.0706 30.5657 31.8324C30.5657 31.753 30.5657 31.6736 30.5657 31.5943C28.0917 31.9912 25.8572 33.2613 23.7822 33.2613C23.2236 33.2613 22.8245 33.0232 22.7447 32.7056ZM22.6649 28.1014H22.7447C22.3457 28.1808 22.1063 28.4983 21.9467 28.8159C21.7073 28.8953 21.5476 29.1334 21.5476 29.3716C21.5476 29.5303 21.5476 29.6097 21.6274 29.6891C21.8669 29.4509 22.1063 29.2922 22.4255 29.2128C22.5053 28.8159 22.9043 28.419 23.3034 28.419C22.9043 28.5777 22.6649 28.9746 22.6649 29.3716C22.6649 29.5303 22.6649 29.6891 22.7447 29.8478C22.8245 29.6097 23.064 29.4509 23.3034 29.4509C23.3832 29.4509 23.463 29.4509 23.463 29.4509C23.5428 29.4509 23.6226 29.5303 23.7024 29.5303C24.1014 29.5303 24.5005 29.2128 24.5005 28.7365C24.5005 28.6571 24.5005 28.5777 24.5005 28.4983C24.7399 28.5777 24.8197 28.7365 24.8197 28.9746C24.8197 29.054 24.8197 29.1334 24.7399 29.2128C24.8197 29.2128 24.8197 29.2128 24.8995 29.2128C25.3783 29.2128 25.8572 28.8159 25.8572 28.3396C26.0966 28.1808 26.336 28.0221 26.4956 27.7839L26.6552 28.419C26.6552 28.4983 26.6552 28.4983 26.6552 28.5777C26.6552 28.6571 26.6552 28.6571 26.5754 28.6571L27.1341 28.1014L27.2139 28.022C27.2139 27.9427 27.2139 27.9427 27.2139 27.8633L27.0543 27.0695C27.0543 26.9901 27.0543 26.9901 27.0543 26.9107C27.0543 26.8313 27.0543 26.8313 27.1341 26.8313L27.6129 26.355L27.5331 26.4344C27.5331 26.5138 27.5331 26.5138 27.5331 26.5932L27.6927 27.387C27.6927 27.4664 27.6927 27.4664 27.6927 27.5458C27.6927 27.6251 27.6927 27.6251 27.6129 27.6251L28.0917 27.0695L28.1715 26.9901C28.1715 26.9107 28.1715 26.9107 28.1715 26.8313L28.0119 26.0375C28.0119 25.9581 28.0119 25.9581 28.0119 25.8787C28.0119 25.7993 28.0119 25.7993 28.0917 25.7993L28.5706 25.323L28.4908 25.4024C28.4908 25.4818 28.4908 25.4818 28.4908 25.5612L28.6504 26.355C28.6504 26.4344 28.6504 26.4344 28.6504 26.5138C28.6504 26.5932 28.6504 26.5932 28.5706 26.5932L29.0494 26.0375L29.1292 25.9581C29.1292 25.8787 29.1292 25.8787 29.1292 25.7993L29.0494 25.4024C28.9696 24.9261 29.4484 24.4498 29.7677 24.3705C29.8475 24.2911 29.8475 24.2117 29.8475 24.1323C29.8475 23.656 29.2888 23.3385 28.6504 23.3385C28.3312 23.3385 28.0119 23.4179 27.8523 23.5766C27.9321 23.8148 27.9321 24.1323 27.1341 24.2117C26.4956 24.2911 25.8572 24.4498 25.3783 24.8467C24.6601 25.4024 24.7399 26.1963 24.3408 26.5138C24.5005 26.5932 24.7399 26.5932 24.9793 26.5138C25.1389 26.5138 25.2985 26.4344 25.3783 26.355C25.2985 26.5138 25.1389 26.5932 24.8995 26.7519C24.8197 27.0695 24.5803 27.3076 24.261 27.387C24.0216 27.4664 23.862 27.4664 23.7024 27.387L22.9043 27.1488C22.8245 27.1488 22.6649 27.0695 22.5851 27.0695C21.9467 27.0695 21.4678 27.5458 21.388 28.1014C21.0688 28.1014 20.9092 28.419 20.9092 28.6571C20.9092 28.7365 20.9092 28.8953 20.989 28.9746C21.1486 28.8159 21.4678 28.6571 21.7073 28.5777C21.8669 28.419 22.1861 28.1014 22.6649 28.1014ZM18.3554 35.484C18.4352 35.2459 18.4352 34.9283 18.4352 34.6902L18.1958 35.0077C18.116 34.9283 18.116 34.849 18.116 34.7696C18.116 34.6902 18.0362 34.6902 18.0362 34.6902C18.0362 34.6902 18.0362 34.6902 17.9564 34.6902H17.8766H17.7968H17.717C17.717 34.6902 17.6371 34.6902 17.6371 34.7696C17.6371 34.849 17.5573 34.9283 17.5573 35.0077L17.3179 34.6902C17.3179 34.9283 17.3179 35.1665 17.3977 35.484C17.5573 35.484 17.717 35.4046 17.9564 35.4046C17.9564 35.484 18.116 35.484 18.3554 35.484ZM18.4352 36.1985C18.4352 35.8809 18.116 35.8015 17.7968 35.8015C17.4775 35.8015 17.1583 35.8809 17.1583 36.1985C17.1583 36.5954 17.5573 36.3572 17.7968 36.3572C18.0362 36.4366 18.4352 36.5954 18.4352 36.1985ZM19.3131 34.0551C19.2333 34.0551 19.2333 34.1345 19.2333 34.1345C19.2333 34.452 19.0737 34.6108 18.8342 34.6902C18.8342 35.0077 18.7544 35.3252 18.6746 35.6428C18.914 36.1985 18.7544 36.5954 18.515 36.6748C18.2756 36.7541 18.0362 36.6748 17.7968 36.6748C17.5573 36.6748 17.2381 36.7541 17.0785 36.6748C16.8391 36.5954 16.6795 36.1985 16.9189 35.6428C16.8391 35.3252 16.7593 35.0077 16.7593 34.6902C16.5199 34.6108 16.3603 34.452 16.3603 34.1345C16.3603 34.0551 16.2804 34.0551 16.2804 34.0551C15.4026 33.817 15.3228 32.7056 15.7218 32.3881C15.642 32.8644 15.642 33.5788 16.6795 33.6582C16.6795 34.2139 16.9189 34.3727 17.1583 34.3727C17.3977 34.3727 17.4775 34.2933 17.5573 34.2933C17.717 34.2139 17.6371 34.0551 17.5573 33.9757C17.3977 33.817 17.3977 33.6582 17.3977 33.4994C17.3977 33.4994 17.3977 33.4201 17.4775 33.4201H17.7968H18.116C18.116 33.4201 18.1958 33.4201 18.1958 33.4994C18.1958 33.6582 18.1958 33.817 18.0362 33.9757C17.9564 34.0551 17.8766 34.2139 18.0362 34.2933C18.116 34.2933 18.1958 34.3727 18.4352 34.3727C18.6746 34.3727 18.9938 34.2139 18.914 33.6582C19.9515 33.5788 19.8717 32.8644 19.8717 32.3881C20.3506 32.7056 20.2707 33.817 19.3131 34.0551ZM19.6323 32.0706C19.6323 32.3087 19.4727 32.6262 19.2333 32.6262H19.0737C19.1535 32.7056 19.1535 32.785 19.1535 32.8644C19.1535 33.0232 18.9938 33.1819 18.8342 33.1819C18.6746 33.1819 18.515 33.0232 18.515 32.8644C18.515 32.785 18.515 32.7056 18.5948 32.6262H18.3554C18.2756 32.6262 18.1958 32.6262 18.1958 32.7056C18.1958 32.6262 18.1958 32.4675 18.1958 32.3881C18.1958 32.3087 18.2756 32.2293 18.3554 32.2293H19.2333C19.3929 32.3087 19.5525 32.2293 19.6323 32.0706ZM19.4727 31.6736H19.1535C18.9938 31.6736 18.914 31.5943 18.7544 31.5149L18.3554 31.0386C18.2756 30.9592 18.2756 30.8798 18.1958 30.8798H18.515C18.5948 30.8798 18.7544 30.9592 18.7544 31.0386L19.1535 31.5149C19.3929 31.5943 19.3929 31.6736 19.4727 31.6736ZM17.8766 30.8798L18.3554 31.5149C18.4352 31.5943 18.515 31.6736 18.5948 31.753H18.1958C18.0362 31.753 17.9564 31.6736 17.8766 31.5943L17.3977 30.9592C17.2381 30.7211 17.2381 30.7211 17.0785 30.6417H17.4775C17.6371 30.6417 17.7968 30.8004 17.8766 30.8798ZM16.7593 31.0386L17.1583 31.5149C17.2381 31.5943 17.2381 31.6736 17.3977 31.6736H17.0785C16.9189 31.6736 16.8391 31.5943 16.6795 31.5149L16.2804 31.0386C16.2006 30.9592 16.2006 30.8798 16.1208 30.8798H16.5199C16.5997 30.8798 16.7593 30.8798 16.7593 31.0386ZM16.5997 32.6262H16.4401C16.2006 32.6262 16.041 32.3087 16.041 32.0706C16.1208 32.2293 16.2804 32.2293 16.4401 32.2293H17.3179C17.3977 32.2293 17.4775 32.3087 17.4775 32.3881C17.4775 32.4675 17.4775 32.5469 17.4775 32.7056C17.3977 32.6262 17.3977 32.6262 17.3179 32.6262H17.0785C17.1583 32.7056 17.1583 32.785 17.1583 32.8644C17.1583 33.0232 16.9987 33.1819 16.8391 33.1819C16.6795 33.1819 16.5199 33.0232 16.5199 32.8644C16.5199 32.785 16.5199 32.7056 16.5997 32.6262ZM15.4824 36.9923L15.5622 36.7541C15.5622 36.6748 15.5622 36.6748 15.5622 36.5954C15.5622 36.516 15.5622 36.516 15.5622 36.4366L15.8814 36.9923C15.8814 37.0717 15.8814 37.0717 15.8814 37.151C15.8814 37.2304 15.8814 37.2304 15.8814 37.3098V37.3892C15.7218 37.7861 15.5622 38.4212 15.7218 38.8181C15.243 38.6593 15.1632 38.2624 15.1632 37.9449C14.2853 37.151 14.1257 36.3572 14.6843 35.6428L15.0035 35.2459L15.0834 35.1665C15.0834 35.0871 15.0834 35.0871 15.0834 35.0077L15.243 35.6428C15.243 35.7222 15.243 35.7222 15.243 35.8015C15.243 35.8809 15.243 35.8809 15.1632 35.8809L15.0834 35.9603C14.7641 36.3572 14.8439 36.8335 15.3228 37.2304C15.3228 37.151 15.4026 37.0717 15.4824 36.9923ZM36.1521 39.215C36.1521 39.1356 36.2319 39.0562 36.2319 38.9768C36.2319 38.5799 35.9127 38.2624 35.5137 38.2624H34.7954C34.7156 38.2624 34.7156 38.2624 34.6358 38.2624L34.556 38.183L34.2368 37.7067L34.3166 37.7861C34.3166 37.7861 34.3964 37.7861 34.4762 37.7861H35.3541C35.4339 37.7861 35.4339 37.7861 35.5137 37.7861L35.5935 37.8655L35.1945 37.3098L35.1147 37.2304C35.1147 37.2304 35.0349 37.2304 34.955 37.2304H34.0772C33.9974 37.2304 33.9974 37.2304 33.9176 37.2304L33.8378 37.151L33.4387 36.5954L33.5185 36.6748C33.5185 36.6748 33.5983 36.6748 33.6782 36.6748H34.556C34.6358 36.6748 34.6358 36.6748 34.7156 36.6748L34.7954 36.7541L34.3964 36.1191L34.3166 36.0397C34.3166 36.0397 34.2368 36.0397 34.157 36.0397H33.4387C33.3589 36.0397 33.3589 36.0397 33.2791 36.0397L33.1993 35.9603L32.7205 35.1665C33.6782 35.0871 34.4762 34.5314 34.6358 33.817C34.8752 32.8644 33.9176 31.9912 32.5609 31.753C32.3214 31.753 32.1618 31.5149 32.1618 31.2767C32.1618 31.0386 32.3214 30.8798 32.4811 30.8004C32.3214 30.7211 32.1618 30.7211 32.0022 30.7211C31.3638 30.7211 30.8849 31.118 30.8849 31.6736C30.8849 31.753 30.8849 31.8324 30.9647 31.9118C30.3263 32.2293 29.6879 32.7056 29.209 33.2613C29.6879 33.1025 30.2465 33.0232 30.8051 33.0232V32.9438C30.8051 32.5469 31.1244 32.2293 31.5234 32.2293C31.284 32.3881 31.1244 32.6262 31.1244 32.785C31.1244 33.0232 31.284 33.1819 31.5234 33.1819C31.6032 33.1819 31.683 33.1819 31.7628 33.1025C31.7628 33.0232 31.7628 33.0232 31.7628 32.9438C31.7628 32.6262 32.0022 32.3881 32.3214 32.3881H32.4013C32.082 32.5469 31.9224 32.785 31.9224 33.0232C31.9224 33.3407 32.1618 33.5788 32.4811 33.5788H32.5609V33.4994C32.5609 33.2613 32.7205 33.1025 32.9599 33.1025C33.1993 33.1025 33.3589 33.2613 33.3589 33.4994C33.3589 33.9757 32.8003 34.0551 32.4013 33.9757C31.2042 33.6582 30.0869 33.4994 29.0494 33.6582C27.6927 33.817 25.4581 34.7696 23.064 34.6902C22.5053 34.6902 21.9467 34.6108 21.388 34.452C21.4678 34.5314 21.4678 34.6108 21.5476 34.6108C21.7871 35.0077 21.8669 35.3252 21.6274 35.8015C21.6274 35.2459 21.2284 34.849 20.8294 34.5314C20.6698 34.452 20.59 34.2933 20.6698 34.2139L20.7496 33.5788C20.7496 33.6582 20.7496 33.6582 20.7496 33.7376C20.7496 33.817 20.7496 33.817 20.8294 33.817L21.0688 34.0551C21.1486 33.4201 20.989 32.8644 20.6698 32.3087C20.8294 31.9118 20.8294 31.4355 20.7496 30.9592C20.6698 31.2767 20.5102 31.4355 20.3506 31.5149C20.0313 31.6736 20.0313 31.9912 20.1909 32.2293C19.9515 32.0706 19.6323 31.6736 19.7919 31.3561C20.0313 31.0386 20.59 31.1974 20.6698 30.7211C20.2707 30.6417 19.8717 30.7211 19.7919 30.7211C19.5525 30.4829 19.3131 30.3241 18.914 30.3241C18.5948 30.086 18.2756 29.9272 17.7968 30.0066C17.3179 29.9272 16.9987 30.086 16.6795 30.3241C16.2804 30.3241 16.041 30.4829 15.8016 30.7211C15.7218 30.7211 15.3228 30.6417 14.9237 30.7211C15.0035 31.1974 15.5622 31.0386 15.8016 31.3561C15.9612 31.5943 15.642 32.0706 15.4026 32.2293C15.5622 31.9912 15.4824 31.753 15.243 31.5149C15.0834 31.4355 14.9237 31.2767 14.8439 30.9592C14.7641 31.4355 14.7641 31.8324 14.9237 32.3087C14.5247 32.8644 14.4449 33.4201 14.5247 34.0551L14.7641 33.817L14.8439 33.7376C14.8439 33.6582 14.8439 33.6582 14.8439 33.5788L14.9237 34.2139C14.9237 34.3727 14.9237 34.452 14.7641 34.5314C14.3651 34.7696 13.9661 35.2459 13.9661 35.8015C13.7267 35.3252 13.8065 34.9283 14.0459 34.6108C13.3276 34.2139 12.8488 33.6582 12.6892 33.4994C12.4498 33.2613 12.5296 32.9438 12.6892 32.7056C13.0882 32.1499 13.168 31.5943 12.6892 31.1974V31.118C12.6892 30.8004 12.4498 30.4829 12.1305 30.4035C12.2103 30.4829 12.2103 30.6417 12.2103 30.7211C12.2103 30.8798 12.1305 30.9592 12.0507 31.118C12.1305 31.1974 12.1305 31.2767 12.1305 31.4355C12.1305 31.5943 12.0507 31.753 11.9709 31.8324C11.9709 31.753 11.9709 31.753 11.9709 31.6736C11.9709 31.2767 11.7315 31.0386 11.4123 30.9592C11.3325 30.7211 11.1729 30.4829 10.8536 30.4829C10.694 30.4829 10.5344 30.5623 10.4546 30.6417C10.694 30.6417 10.8536 30.8004 10.8536 31.0386C10.7738 31.118 10.694 31.1974 10.6142 31.3561C11.0132 31.3561 11.2527 31.6736 11.2527 31.9912C11.2527 32.0706 11.2527 32.0706 11.2527 32.1499C11.2527 31.9912 11.1729 31.8324 11.0132 31.753C10.7738 31.5149 10.5344 31.5149 10.2152 31.5943C10.1354 31.4355 9.97577 31.3561 9.73635 31.3561C9.49694 31.3561 9.33732 31.4355 9.25752 31.5943C9.49694 31.5943 9.65655 31.6736 9.73635 31.8324C9.41713 32.2293 9.41713 32.7056 9.73635 33.0232C9.97577 33.1819 10.2152 33.2613 10.4546 33.1819C10.4546 33.1819 10.4546 33.1819 10.5344 33.1819C10.6142 33.1819 10.694 33.2613 10.694 33.3407C10.694 33.4201 10.6142 33.4994 10.5344 33.4994C10.4546 33.4994 10.4546 33.4994 10.4546 33.4201C10.3748 33.3407 10.295 33.3407 10.2152 33.3407C9.97577 33.3407 9.81616 33.4994 9.81616 33.7376C9.81616 33.7376 9.81616 33.7376 9.81616 33.817H9.73635C9.65655 33.817 9.49694 33.7376 9.49694 33.7376C9.49694 33.817 9.49694 33.817 9.49694 33.8964C9.49694 34.1345 9.73635 34.3727 9.97577 34.452C10.1354 34.7696 10.3748 34.9283 10.7738 34.9283C10.9334 34.9283 11.0931 34.849 11.2527 34.7696C11.3325 34.6902 11.4123 34.6902 11.4921 34.6902C11.6517 34.6902 11.8911 34.849 11.8911 35.0871C11.8911 35.2459 11.7315 35.4046 11.5719 35.4046L11.2527 35.484C11.1729 35.484 11.1729 35.484 11.0931 35.484C11.0132 35.484 11.0132 35.484 11.0132 35.4046L11.6517 36.0397L11.7315 36.1191C11.8113 36.1191 11.8113 36.1191 11.8911 36.1191L12.4498 36.0397C12.5296 36.0397 12.5296 36.0397 12.6094 36.0397C12.6892 36.0397 12.6892 36.0397 12.6892 36.1191L13.168 36.516L13.0882 36.4366C13.0084 36.4366 13.0084 36.4366 12.9286 36.4366L12.37 36.516C12.2901 36.516 12.2901 36.516 12.2103 36.516C12.1305 36.516 12.1305 36.516 12.1305 36.4366L12.6892 36.9923L12.769 37.0717C12.8488 37.0717 12.8488 37.0717 12.9286 37.0717L13.4872 36.9923C13.567 36.9923 13.567 36.9923 13.6468 36.9923C13.7267 36.9923 13.7267 36.9923 13.7267 37.0717L14.2055 37.4686L14.1257 37.3892C14.0459 37.3892 14.0459 37.3892 13.9661 37.3892L13.4074 37.4686C13.3276 37.4686 13.3276 37.4686 13.2478 37.4686C13.168 37.4686 13.168 37.4686 13.168 37.3892L13.7267 37.9449L13.8065 38.0243C13.8863 38.0243 13.8863 38.0243 13.9661 38.0243L14.6045 37.8655C13.9661 38.183 13.3276 38.5799 12.6094 39.0562C12.2103 39.2944 11.7315 39.3738 11.2527 39.1356C11.0132 39.0562 10.694 38.9768 10.4546 39.0562C10.2152 39.1356 9.97577 39.215 9.89597 39.4531C9.97577 39.4531 10.1354 39.3738 10.2152 39.3738C10.4546 39.3738 10.6142 39.4531 10.7738 39.6119C10.5344 39.5325 10.2152 39.5325 9.97577 39.6119C9.49694 39.7707 9.17771 40.247 9.25752 40.7233C9.09791 40.8026 8.93829 40.9614 8.93829 41.1996C8.93829 41.3583 9.0181 41.4377 9.09791 41.5965C9.17771 41.3583 9.33732 41.1996 9.57674 41.1996C9.65655 41.2789 9.81616 41.2789 9.89597 41.3583C9.89597 41.2789 9.97577 41.1996 10.0556 41.1996C10.0556 41.1202 10.0556 41.1202 10.0556 41.0408C10.0556 40.5645 10.4546 40.1676 10.9334 40.1676H11.0132C10.6142 40.247 10.3748 40.5645 10.3748 40.9614C10.3748 41.0408 10.3748 41.0408 10.3748 41.1202C10.1354 41.1996 10.0556 41.3583 10.0556 41.5965C10.0556 41.7552 10.1354 41.8346 10.2152 41.914C10.3748 41.5965 10.6142 41.4377 11.0132 41.4377C11.1729 41.4377 11.2527 41.5171 11.4123 41.5171C11.4921 41.5171 11.5719 41.5171 11.6517 41.5171C11.5719 41.4377 11.5719 41.2789 11.5719 41.1202C11.5719 40.7233 11.8911 40.4851 12.2103 40.4851H12.2901C11.9709 40.6439 11.7315 40.9614 11.8113 41.1996C11.8911 41.3583 12.0507 41.5171 12.2901 41.5965C12.2901 41.7552 12.2103 41.914 12.2103 41.9934C12.5296 41.9934 12.769 41.7552 12.9286 41.5171C13.3276 41.3583 13.4872 41.0408 13.4074 40.8026C13.4074 40.7233 13.3276 40.6439 13.2478 40.5645C13.2478 40.4057 13.4074 40.247 13.567 40.247C13.7267 40.247 13.8863 40.4057 13.8863 40.5645C13.8863 40.6439 13.8863 40.7233 13.8065 40.8026H14.5247C14.6045 40.8026 14.6045 40.8026 14.6843 40.8026L14.7641 40.7233L15.243 40.0088L15.3228 39.9294H15.4026H15.9612H15.8814C15.8814 39.9294 15.8016 39.9294 15.8016 40.0088L15.3228 40.7233L15.243 40.8026C15.243 40.8026 15.1632 40.8026 15.0834 40.8026H15.9612C16.041 40.8026 16.041 40.8026 16.1208 40.8026L16.2006 40.7233L16.7593 39.9294C16.3603 39.6913 16.2804 39.3738 16.2804 38.8975C16.2804 38.5799 16.4401 38.2624 16.4401 38.0243V37.9449C16.4401 37.8655 16.4401 37.8655 16.4401 37.7861C16.4401 37.7861 16.4401 37.7067 16.3603 37.7067L16.8391 38.183L16.9189 38.2624C16.9189 38.3418 16.9189 38.3418 16.9189 38.4212V38.5006C16.9189 38.6593 16.6795 39.0562 17.0785 39.4531C17.0785 39.4531 17.1583 39.5325 17.2381 39.5325L17.5573 39.6913V38.5799H17.9564V39.8501C17.9564 39.9294 17.9564 39.9294 17.9564 40.0088L18.0362 40.0882L18.4352 40.3263C18.515 40.3263 18.515 40.3264 18.5948 40.4057C18.6746 40.4057 18.6746 40.4057 18.7544 40.4057L19.5525 40.0882C19.4727 40.0882 19.4727 40.0882 19.3929 40.0882C19.3131 40.0882 19.3131 40.0882 19.2333 40.0088L18.3554 39.4531C18.7544 39.0562 18.515 38.6593 18.515 38.5006V38.4212C18.515 38.3418 18.515 38.3418 18.515 38.2624C18.515 38.183 18.5948 38.183 18.5948 38.183L19.0737 37.7067L18.9938 37.7861C18.9938 37.8655 18.9938 37.8655 18.9938 37.9449V38.0243C18.9938 38.3418 19.3131 38.8975 19.0737 39.215L19.8717 39.6913C19.9515 39.6913 19.9515 39.6913 20.0313 39.7707C20.1111 39.7707 20.1111 39.7707 20.1909 39.7707L20.989 39.4531C20.9092 39.4531 20.9092 39.4531 20.8294 39.4531C20.7496 39.4531 20.7496 39.4531 20.6698 39.3738L19.9515 38.7387C20.1111 38.3418 19.9515 37.7067 19.7919 37.3892V37.3098C19.7919 37.2304 19.7919 37.2304 19.7919 37.151C19.7919 37.0717 19.7919 37.0717 19.7919 36.9923L20.1111 36.4366C20.1111 36.4366 20.1111 36.516 20.1111 36.5954C20.1111 36.6748 20.1111 36.6748 20.1111 36.7541L20.1909 36.9923C20.2707 37.0717 20.2707 37.151 20.3506 37.3098C20.8294 36.8335 20.989 36.4366 20.6698 36.0397L20.59 35.9603L20.5102 35.8809C20.5102 35.8015 20.5102 35.8015 20.5102 35.7222L20.6698 35.0871C20.6698 35.1665 20.6698 35.1665 20.6698 35.2459C20.6698 35.3252 20.6698 35.3252 20.7496 35.3252L21.0688 35.7222C21.7073 36.4366 21.3082 37.2304 20.59 37.9449C20.59 38.1036 20.6698 38.3418 20.6698 38.4212L21.6274 39.0562C21.6274 39.0562 21.7073 39.0562 21.7871 39.1356C21.8669 39.1356 21.8669 39.1356 21.9467 39.1356L22.6649 38.8181C22.6649 38.8181 22.5851 38.8181 22.5053 38.8181C22.3457 38.8181 22.1861 38.6593 22.1861 38.5006C22.1861 38.3418 22.2659 38.2624 22.4255 38.183C25.0591 37.3892 27.4533 35.3252 29.0494 35.3252C29.8475 35.3252 30.4859 35.8015 30.4859 36.3572C30.4859 36.4366 30.4859 36.516 30.4061 36.5954C30.0869 37.548 30.5657 38.4212 31.8426 38.8181C32.082 38.8975 32.2416 39.0562 32.2416 39.2944C32.2416 39.3738 32.2416 39.3738 32.2416 39.4531H32.3214C32.6407 39.4531 32.9599 39.2944 33.1993 38.9768C33.4387 38.9768 33.6782 38.9768 33.9176 38.8975C33.9176 38.9768 33.9974 39.0562 33.9974 39.1356C34.0772 39.3738 33.9176 39.6913 33.758 39.6913C33.4387 39.7707 33.1195 39.6913 32.8003 39.6913C32.2416 39.6913 31.8426 40.1676 31.8426 40.6439C31.8426 40.7233 31.8426 40.7233 31.8426 40.8026C31.683 40.882 31.5234 41.1202 31.5234 41.2789C31.5234 41.3583 31.5234 41.5171 31.6032 41.5965C31.7628 41.4377 32.0022 41.2789 32.2416 41.1996C32.2416 40.7233 32.6407 40.3263 33.1195 40.3263C33.1993 40.3263 33.2791 40.3263 33.3589 40.3263C32.8801 40.4057 32.4811 40.8026 32.4811 41.2789V41.3583C32.4013 41.4377 32.4013 41.5171 32.4013 41.5965C32.4013 41.7552 32.4811 41.8346 32.5609 41.914C32.6407 41.7552 32.8801 41.5171 33.1195 41.4377C33.2791 41.3583 33.5185 41.3583 33.6782 41.3583C33.6782 41.2789 33.6782 41.1996 33.6782 41.1202C33.6782 40.7233 33.9974 40.3263 34.4762 40.3263H34.556C34.2368 40.4057 33.9974 40.6439 33.9974 40.9614C33.9974 41.1996 34.0772 41.3583 34.2368 41.4377C34.2368 41.5965 34.3166 41.7552 34.3964 41.8346C34.4762 41.5171 34.7156 41.3583 34.955 41.3583C35.1945 41.3583 35.4339 41.3583 35.5935 41.2789C35.8329 41.1996 36.0723 40.9614 36.0723 40.6439C36.0723 40.4057 35.9925 40.247 35.8329 40.1676C35.9127 39.8501 35.9127 39.2944 35.7531 38.8975H35.8329C35.9127 38.9768 36.0723 39.0562 36.1521 39.215ZM22.7447 44.6924C22.7447 44.613 22.7447 44.5336 22.7447 44.4542C22.7447 44.2955 22.9043 44.2161 23.064 44.2161C23.2236 44.2161 23.3832 44.3749 23.3832 44.5336C23.3832 44.613 23.3832 44.6924 23.3034 44.7718C23.3832 44.7718 23.3832 44.7718 23.463 44.7718C23.6226 44.7718 23.7822 44.7718 23.9418 44.6924C24.1812 44.613 24.3408 44.4542 24.3408 44.2161C24.3408 43.8986 24.1014 43.7398 23.862 43.7398C23.862 43.7398 23.862 43.7398 23.7822 43.7398C23.862 43.7398 23.9418 43.6604 24.0216 43.6604C24.3409 43.6604 24.5803 43.8986 24.5803 44.2161C24.5803 44.2161 24.5803 44.2161 24.5803 44.2955C25.4581 44.2955 26.4956 43.5017 26.6552 43.1841C26.336 43.2635 26.0966 43.2635 25.7774 43.2635C25.4581 43.2635 25.0591 43.1841 24.7399 43.1047C24.3408 43.0254 23.862 42.946 23.5428 42.946C22.4255 42.946 21.5476 43.6604 21.5476 44.5336C21.5476 45.2481 22.1861 45.8831 22.9841 46.0419C24.8995 46.4388 27.1341 45.3275 28.9696 44.9305C29.4484 44.4542 30.0071 44.0573 30.5657 43.8192C30.5657 43.7398 30.5657 43.6604 30.5657 43.581C28.0917 43.9779 25.8572 45.2481 23.7822 45.2481C23.2236 45.3275 22.8245 45.0893 22.7447 44.6924ZM22.6649 40.1676H22.7447C22.3457 40.247 22.1063 40.5645 21.9467 40.882C21.7073 40.9614 21.5476 41.1996 21.5476 41.4377C21.5476 41.5965 21.5476 41.6759 21.6274 41.7552C21.8669 41.5171 22.1063 41.3583 22.4255 41.2789C22.5053 40.882 22.9043 40.4851 23.3034 40.4851C22.9043 40.6439 22.6649 41.0408 22.6649 41.4377C22.6649 41.5965 22.6649 41.7552 22.7447 41.914C22.8245 41.6759 23.064 41.5171 23.3034 41.5171C23.3832 41.5171 23.463 41.5171 23.463 41.5171C23.5428 41.5171 23.6226 41.5965 23.7024 41.5965C24.1014 41.5965 24.5005 41.2789 24.5005 40.8026C24.5005 40.7233 24.5005 40.6439 24.5005 40.5645C24.7399 40.6439 24.8197 40.8026 24.8197 41.0408C24.8197 41.1202 24.8197 41.1996 24.7399 41.2789C24.8197 41.2789 24.8197 41.2789 24.8995 41.2789C25.3783 41.2789 25.8572 40.882 25.8572 40.4057C26.0966 40.247 26.336 40.0882 26.4956 39.8501L26.6552 40.4851C26.6552 40.5645 26.6552 40.5645 26.6552 40.6439C26.6552 40.7233 26.6552 40.7233 26.5754 40.7233L27.1341 40.1676L27.2139 40.0882C27.2139 40.0088 27.2139 40.0088 27.2139 39.9294L27.0543 39.1356C27.0543 39.0562 27.0543 39.0562 27.0543 38.9768C27.0543 38.8975 27.0543 38.8975 27.1341 38.8975L27.6129 38.4212L27.5331 38.5006C27.5331 38.5799 27.5331 38.5799 27.5331 38.6593L27.6927 39.4531C27.6927 39.5325 27.6927 39.5325 27.6927 39.6119C27.6927 39.6913 27.6927 39.6913 27.6129 39.6913L28.0917 39.1356L28.1715 39.0562C28.1715 38.9768 28.1715 38.9768 28.1715 38.8975L28.0119 38.1036C28.0119 38.0243 28.0119 38.0243 28.0119 37.9449C28.0119 37.8655 28.0119 37.8655 28.0917 37.8655L28.5706 37.3892L28.4908 37.4686C28.4908 37.548 28.4908 37.548 28.4908 37.6273L28.6504 38.4212C28.6504 38.5006 28.6504 38.5005 28.6504 38.5799C28.6504 38.6593 28.6504 38.6593 28.5706 38.6593L29.0494 38.1036L29.1292 38.0243C29.1292 37.9449 29.1292 37.9449 29.1292 37.8655L29.0494 37.4686C28.9696 36.9923 29.4484 36.516 29.7677 36.4366C29.8475 36.3572 29.8475 36.2778 29.8475 36.1985C29.8475 35.7222 29.2888 35.4046 28.6504 35.4046C28.3312 35.4046 28.0119 35.484 27.8523 35.6428C27.9321 35.8809 27.9321 36.1985 27.1341 36.2778C26.4956 36.3572 25.8572 36.516 25.3783 36.9129C24.6601 37.4686 24.7399 38.2624 24.3408 38.5799C24.5005 38.6593 24.7399 38.6593 24.9793 38.5799C25.1389 38.5799 25.2985 38.5006 25.3783 38.4212C25.2985 38.5799 25.1389 38.6593 24.8995 38.8181C24.8197 39.0562 24.5803 39.3738 24.261 39.4531C24.0216 39.5325 23.862 39.5325 23.7024 39.4531L22.9043 39.215C22.8245 39.215 22.6649 39.1356 22.5851 39.1356C21.9467 39.1356 21.4678 39.6119 21.388 40.1676C21.0688 40.247 20.9092 40.4851 20.9092 40.7233C20.9092 40.8026 20.9092 40.9614 20.989 41.0408C21.1486 40.882 21.4678 40.7233 21.7073 40.6439C21.8669 40.4057 22.1861 40.1676 22.6649 40.1676ZM18.3554 47.5502C18.4352 47.312 18.4352 46.9945 18.4352 46.7563L18.1958 47.0739C18.116 46.9945 18.116 46.9151 18.116 46.8357C18.116 46.7563 18.0362 46.7563 18.0362 46.7563C18.0362 46.7563 18.0362 46.7563 17.9564 46.7563H17.8766H17.7968H17.717C17.717 46.7563 17.6371 46.7563 17.6371 46.8357C17.6371 46.9151 17.5573 46.9945 17.5573 47.0739L17.3179 46.7563C17.3179 46.9945 17.3179 47.2326 17.3977 47.5502C17.5573 47.5502 17.717 47.4708 17.9564 47.4708C17.9564 47.4708 18.116 47.5502 18.3554 47.5502ZM18.4352 48.2646C18.4352 47.9471 18.116 47.8677 17.7968 47.8677C17.4775 47.8677 17.1583 47.9471 17.1583 48.2646C17.1583 48.6615 17.5573 48.4234 17.7968 48.4234C18.0362 48.4234 18.4352 48.6615 18.4352 48.2646ZM19.3131 46.1213C19.2333 46.1213 19.2333 46.2007 19.2333 46.28C19.2333 46.5976 19.0737 46.7563 18.8342 46.8357C18.8342 47.2326 18.7544 47.4708 18.6746 47.7883C18.914 48.344 18.7544 48.7409 18.515 48.8203C18.2756 48.8997 18.0362 48.8203 17.7968 48.8203C17.5573 48.8203 17.2381 48.8997 17.0785 48.8203C16.8391 48.7409 16.6795 48.344 16.9189 47.7883C16.8391 47.4708 16.7593 47.1533 16.7593 46.8357C16.5199 46.7563 16.3603 46.5976 16.3603 46.28C16.3603 46.2007 16.2804 46.2007 16.2804 46.1213C15.4026 45.8831 15.3228 44.7718 15.7218 44.4542C15.642 44.9305 15.642 45.645 16.6795 45.7244C16.6795 46.28 16.9189 46.4388 17.1583 46.4388C17.3977 46.4388 17.4775 46.3594 17.5573 46.3594C17.717 46.28 17.6371 46.1213 17.5573 46.0419C17.3977 45.8831 17.3977 45.7244 17.3977 45.5656C17.3977 45.5656 17.3977 45.4862 17.4775 45.4862H17.7968H18.116C18.116 45.4862 18.1958 45.4862 18.1958 45.5656C18.1958 45.7244 18.1958 45.8831 18.0362 46.0419C17.9564 46.1213 17.8766 46.28 18.0362 46.3594C18.116 46.3594 18.1958 46.4388 18.4352 46.4388C18.6746 46.4388 18.9938 46.28 18.914 45.7244C19.9515 45.645 19.8717 44.9305 19.8717 44.4542C20.3506 44.6924 20.2707 45.8831 19.3131 46.1213ZM19.6323 44.1367C19.6323 44.3749 19.4727 44.6924 19.2333 44.6924H19.0737C19.1535 44.7718 19.1535 44.8512 19.1535 44.9305C19.1535 45.0893 18.9938 45.2481 18.8342 45.2481C18.6746 45.2481 18.515 45.0893 18.515 44.9305C18.515 44.8512 18.515 44.7718 18.5948 44.6924H18.3554C18.2756 44.6924 18.1958 44.6924 18.1958 44.7718C18.1958 44.6924 18.1958 44.5336 18.1958 44.4542C18.1958 44.3749 18.2756 44.2955 18.3554 44.2955H19.2333C19.3929 44.2955 19.5525 44.2955 19.6323 44.1367ZM19.4727 43.7398H19.1535C18.9938 43.7398 18.914 43.6604 18.7544 43.581L18.3554 43.1047C18.2756 43.0254 18.2756 42.946 18.1958 42.946H18.515C18.5948 42.946 18.7544 43.0254 18.7544 43.1047L19.1535 43.581C19.3929 43.6604 19.3929 43.6604 19.4727 43.7398ZM17.8766 42.946L18.3554 43.581C18.4352 43.6604 18.515 43.7398 18.5948 43.8192H18.1958C18.0362 43.8192 17.9564 43.7398 17.8766 43.6604L17.4775 43.1047C17.3179 42.8666 17.3179 42.8666 17.1583 42.7872H17.5573C17.6371 42.7078 17.7968 42.7872 17.8766 42.946ZM16.7593 43.0254L17.1583 43.5017C17.2381 43.581 17.2381 43.6604 17.3977 43.6604H17.0785C16.9189 43.6604 16.8391 43.581 16.6795 43.5017L16.2804 43.0254C16.2006 42.946 16.2006 42.8666 16.1208 42.8666H16.5199C16.5997 42.8666 16.7593 42.946 16.7593 43.0254ZM16.5997 44.6924H16.4401C16.2006 44.6924 16.041 44.3749 16.041 44.1367C16.1208 44.2955 16.2804 44.2955 16.4401 44.2955H17.3179C17.3977 44.2955 17.4775 44.3749 17.4775 44.4542C17.4775 44.5336 17.4775 44.613 17.4775 44.7718C17.3977 44.6924 17.3977 44.6924 17.3179 44.6924H17.0785C17.1583 44.7718 17.1583 44.8512 17.1583 44.9305C17.1583 45.0893 16.9987 45.2481 16.8391 45.2481C16.6795 45.2481 16.5199 45.0893 16.5199 44.9305C16.5199 44.8512 16.5199 44.7718 16.5997 44.6924ZM15.4824 48.9791L15.5622 48.7409C15.5622 48.6615 15.5622 48.6615 15.5622 48.5821C15.5622 48.5028 15.5622 48.5028 15.5622 48.4234L15.8814 48.9791C15.8814 49.0584 15.8814 49.0584 15.8814 49.1378C15.8814 49.2172 15.8814 49.2172 15.8814 49.2966V49.376C15.7218 49.7729 15.5622 50.4079 15.7218 50.8049C15.243 50.6461 15.1632 50.2492 15.1632 49.9316C14.2853 49.1378 14.1257 48.344 14.6843 47.6295L15.0035 47.2326L15.0834 47.1533C15.0834 47.0739 15.0834 47.0739 15.0834 46.9945L15.1632 47.6295C15.1632 47.7089 15.1632 47.7089 15.1632 47.7883C15.1632 47.8677 15.1632 47.8677 15.0834 47.9471L15.0035 48.0265C14.6843 48.4234 14.7641 48.8997 15.243 49.2966C15.3228 49.1378 15.4026 49.1378 15.4824 48.9791ZM36.1521 51.2811C36.1521 51.2018 36.2319 51.1224 36.2319 51.043C36.2319 50.6461 35.9127 50.3286 35.5137 50.3286H34.7954C34.7156 50.3286 34.7156 50.3286 34.6358 50.3286L34.556 50.2492L34.2368 49.7729L34.3166 49.8523C34.3166 49.8523 34.3964 49.8523 34.4762 49.8523H35.3541C35.4339 49.8523 35.4339 49.8523 35.5137 49.8523L35.5935 49.9316L35.1945 49.2966L35.1147 49.2172C35.1147 49.2172 35.0349 49.2172 34.955 49.2172H34.0772C33.9974 49.2172 33.9974 49.2172 33.9176 49.2172L33.8378 49.1378L33.4387 48.5821L33.5185 48.6615C33.5185 48.6615 33.5983 48.6615 33.6782 48.6615H34.556C34.6358 48.6615 34.6358 48.6615 34.7156 48.6615L34.7954 48.7409L34.3964 48.1058L34.3166 48.0265C34.3166 48.0265 34.2368 48.0265 34.157 48.0265H33.4387C33.3589 48.0265 33.3589 48.0265 33.2791 48.0265L33.1993 47.9471L32.7205 47.1533C33.6782 47.0739 34.4762 46.5182 34.6358 45.8037C34.8752 44.8512 33.9176 43.9779 32.5609 43.7398C32.3214 43.7398 32.1618 43.5017 32.1618 43.2635C32.1618 43.0254 32.3214 42.8666 32.4811 42.7872C32.3214 42.7078 32.1618 42.7078 32.0022 42.7078C31.3638 42.7078 30.8849 43.1047 30.8849 43.6604C30.8849 43.7398 30.8849 43.8192 30.9647 43.8986C30.3263 44.2161 29.6879 44.6924 29.209 45.2481C29.6879 45.0893 30.2465 45.0099 30.8051 45.0099V44.9305C30.8051 44.5336 31.1244 44.2161 31.5234 44.2161C31.284 44.3749 31.1244 44.613 31.1244 44.7718C31.1244 45.0099 31.284 45.1687 31.5234 45.1687C31.6032 45.1687 31.683 45.1687 31.7628 45.0893C31.7628 45.0099 31.7628 45.0099 31.7628 44.9305C31.7628 44.613 32.0022 44.3749 32.3214 44.3749H32.4013C32.1618 44.4542 32.082 44.6924 32.082 44.9305C32.082 45.2481 32.3215 45.4862 32.6407 45.4862H32.7205V45.4068C32.7205 45.1687 32.8801 45.0099 33.1195 45.0099C33.3589 45.0099 33.5185 45.1687 33.5185 45.4068C33.5185 45.8831 32.9599 45.9625 32.5609 45.8831C31.3638 45.5656 30.2465 45.4068 29.209 45.5656C27.8523 45.7244 25.6177 46.677 23.2236 46.5976C22.6649 46.5976 22.1063 46.5182 21.5476 46.3594C21.6274 46.4388 21.6274 46.5182 21.7073 46.5182C21.9467 46.9151 22.0265 47.2326 21.7871 47.7089C21.7871 47.1533 21.388 46.7563 20.989 46.5182C20.8294 46.4388 20.7496 46.28 20.8294 46.2007L20.9092 45.5656C20.9092 45.645 20.9092 45.645 20.9092 45.7244C20.9092 45.8037 20.9092 45.8037 20.989 45.8037L21.2284 46.0419C21.3082 45.4068 21.1486 44.8512 20.8294 44.2955C20.989 43.8986 20.989 43.4223 20.9092 42.946C20.8294 43.2635 20.6698 43.4223 20.5102 43.5017C20.1909 43.6604 20.1909 43.9779 20.3506 44.2161C20.1111 44.0573 19.7919 43.6604 19.9515 43.3429C20.1909 43.0254 20.7496 43.1841 20.8294 42.7078C20.4304 42.6284 20.0313 42.7078 19.9515 42.7078C19.7121 42.4697 19.4727 42.3109 19.0737 42.3109C18.7544 42.0728 18.4352 41.914 17.9564 41.9934C17.4775 41.914 17.1583 42.0728 16.8391 42.3109C16.4401 42.3109 16.2006 42.4697 15.9612 42.7078C15.8814 42.7078 15.4824 42.6284 15.0834 42.7078C15.1632 43.1841 15.7218 43.0254 15.9612 43.3429C16.1208 43.581 15.8016 44.0573 15.5622 44.2161C15.7218 43.9779 15.642 43.7398 15.4026 43.5017C15.243 43.4223 15.0834 43.2635 15.0035 42.946C14.9237 43.4223 14.9237 43.8192 15.0834 44.2955C14.6843 44.8512 14.6045 45.4068 14.6843 46.0419L14.9237 45.8037L15.0035 45.7244C15.0035 45.645 15.0035 45.645 15.0035 45.5656L15.0834 46.2007C15.0834 46.3594 15.0834 46.4388 14.9237 46.5182C14.5247 46.7563 14.1257 47.2326 14.1257 47.7089C13.8863 47.2326 13.9661 46.8357 14.2055 46.5182C13.4872 46.1213 13.0084 45.5656 12.8488 45.4068C12.6094 45.1687 12.6892 44.8512 12.8488 44.613C13.2478 44.0573 13.3276 43.5017 12.8488 43.1047V43.0254C12.8488 42.7078 12.6094 42.3903 12.2901 42.3109C12.37 42.3903 12.37 42.5491 12.37 42.6284C12.37 42.7872 12.2901 42.8666 12.2103 43.0254C12.2901 43.1047 12.2901 43.1841 12.2901 43.3429C12.2901 43.5017 12.2103 43.6604 12.1305 43.7398C12.1305 43.6604 12.1305 43.6604 12.1305 43.581C12.1305 43.1841 11.8911 42.946 11.5719 42.8666C11.4921 42.6284 11.3325 42.3903 11.0132 42.3903C10.8536 42.3903 10.694 42.4697 10.6142 42.5491C10.8536 42.5491 11.0132 42.7078 11.0132 42.946C10.9334 43.0254 10.8536 43.1047 10.7738 43.2635C11.1729 43.2635 11.4123 43.581 11.4123 43.8986C11.4123 43.9779 11.4123 43.9779 11.4123 44.0573C11.4123 43.8986 11.3325 43.7398 11.1729 43.6604C10.9334 43.4223 10.694 43.4223 10.3748 43.5017C10.295 43.3429 10.1354 43.2635 9.89597 43.2635C9.65655 43.2635 9.49694 43.3429 9.41713 43.5017C9.65655 43.5017 9.81616 43.581 9.89597 43.7398C9.57674 44.1367 9.57674 44.613 9.89597 44.9305C10.1354 45.0893 10.3748 45.1687 10.6142 45.0893C10.6142 45.0893 10.6142 45.0893 10.694 45.0893C10.7738 45.0893 10.8536 45.1687 10.8536 45.2481C10.8536 45.3275 10.7738 45.4068 10.694 45.4068C10.6142 45.4068 10.6142 45.4068 10.6142 45.3275C10.5344 45.2481 10.4546 45.2481 10.3748 45.2481C10.1354 45.2481 9.97577 45.4068 9.97577 45.645C9.97577 45.645 9.97577 45.645 9.97577 45.7244H9.89597C9.81616 45.7244 9.65655 45.645 9.65655 45.645C9.65655 45.7244 9.65655 45.7244 9.65655 45.8037C9.65655 46.0419 9.89597 46.28 10.1354 46.3594C10.295 46.677 10.5344 46.8357 10.9334 46.8357C11.0931 46.8357 11.2527 46.7563 11.4123 46.677C11.4921 46.5976 11.5719 46.5976 11.6517 46.5976C11.8113 46.5976 12.0507 46.7563 12.0507 46.9945C12.0507 47.1533 11.8911 47.312 11.7315 47.312L11.4123 47.3914C11.3325 47.3914 11.3325 47.3914 11.2527 47.3914C11.1729 47.3914 11.1729 47.3914 11.1729 47.312L11.8113 47.9471L11.8911 48.0265C11.9709 48.0265 11.9709 48.0265 12.0507 48.0265L12.6094 47.9471C12.6892 47.9471 12.6892 47.9471 12.769 47.9471C12.8488 47.9471 12.8488 47.9471 12.8488 48.0265L13.3276 48.4234L13.2478 48.344C13.168 48.344 13.168 48.344 13.0882 48.344L12.5296 48.4234C12.4498 48.4234 12.4498 48.4234 12.37 48.4234C12.2901 48.4234 12.2901 48.4234 12.2901 48.344L12.8488 48.8997L12.9286 48.9791C13.0084 48.9791 13.0084 48.9791 13.0882 48.9791L13.6468 48.8997C13.7267 48.8997 13.7267 48.8997 13.8065 48.8997C13.8863 48.8997 13.8863 48.8997 13.8863 48.9791L14.3651 49.376L14.2853 49.2966C14.2055 49.2966 14.2055 49.2966 14.1257 49.2966L13.567 49.376C13.4872 49.376 13.4872 49.376 13.4074 49.376C13.3276 49.376 13.3276 49.376 13.3276 49.2966L13.8863 49.8523L13.9661 49.9316C14.0459 49.9316 14.0459 49.9316 14.1257 49.9316L14.7641 49.7729C14.1257 50.0904 13.4872 50.4873 12.769 50.9636C12.37 51.2018 11.8911 51.2811 11.4123 51.043C11.1729 50.9636 10.8536 50.8842 10.6142 50.9636C10.3748 51.043 10.1354 51.1224 10.0556 51.3605C10.1354 51.3605 10.295 51.2811 10.3748 51.2811C10.6142 51.2811 10.7738 51.3605 10.9334 51.5193C10.694 51.4399 10.3748 51.4399 10.1354 51.5193C9.65655 51.6781 9.33732 52.1544 9.41713 52.6307C9.25752 52.71 9.09791 52.8688 9.09791 53.1069C9.09791 53.2657 9.17771 53.3451 9.25752 53.5039C9.33732 53.2657 9.49694 53.1069 9.73635 53.1069C9.81616 53.1863 9.97577 53.1863 10.0556 53.2657C10.0556 53.1863 10.1354 53.1069 10.2152 53.1069C10.2152 53.0276 10.2152 53.0276 10.2152 52.9482C10.2152 52.4719 10.6142 52.075 11.0931 52.075H11.1729C10.7738 52.1544 10.5344 52.4719 10.5344 52.8688C10.5344 52.9482 10.5344 52.9482 10.5344 53.0276C10.295 53.1069 10.2152 53.2657 10.2152 53.5039C10.2152 53.6626 10.295 53.742 10.3748 53.8214C10.5344 53.5039 10.7738 53.3451 11.1729 53.3451C11.3325 53.3451 11.4123 53.4245 11.5719 53.4245C11.6517 53.4245 11.7315 53.4245 11.8113 53.4245C11.7315 53.3451 11.7315 53.1863 11.7315 53.0276C11.7315 52.6307 12.0507 52.3925 12.37 52.3925H12.4498C12.1305 52.5513 11.8911 52.8688 11.9709 53.1069C12.0507 53.2657 12.2103 53.4245 12.4498 53.5039C12.4498 53.6626 12.37 53.8214 12.37 53.9008C12.6892 53.9008 12.9286 53.6626 13.0882 53.4245C13.4872 53.2657 13.6468 52.9482 13.567 52.71C13.567 52.6307 13.4872 52.5513 13.4074 52.4719C13.4074 52.3131 13.567 52.1544 13.7267 52.1544C13.8863 52.1544 14.0459 52.3131 14.0459 52.4719C14.0459 52.5513 14.0459 52.6307 13.9661 52.71H14.6843C14.7641 52.71 14.7641 52.71 14.8439 52.71L14.9237 52.6307L15.4026 51.9162L15.4824 51.8368H15.5622H16.1208H16.041C16.041 51.8368 15.9612 51.8368 15.9612 51.9162L15.4824 52.6307L15.4026 52.71C15.4026 52.71 15.3228 52.71 15.243 52.71H16.1208C16.2006 52.71 16.2006 52.71 16.2804 52.71L16.3603 52.6307L16.9189 51.8368C16.5199 51.5987 16.4401 51.2811 16.4401 50.8049C16.4401 50.4873 16.5997 50.1698 16.5997 49.9316V49.8523C16.5997 49.7729 16.5997 49.7729 16.5997 49.6935C16.5997 49.6935 16.5997 49.6141 16.5199 49.6141L16.9987 50.0904L17.0785 50.1698C17.0785 50.2492 17.0785 50.2492 17.0785 50.3286V50.4079C17.0785 50.5667 16.8391 50.9636 17.2381 51.3605C17.2381 51.3605 17.3179 51.4399 17.3977 51.4399L17.717 51.5987V50.4873H18.116V51.7574C18.116 51.8368 18.116 51.8368 18.116 51.9162L18.1958 51.9956L18.5948 52.2337C18.6746 52.2337 18.6746 52.2337 18.7544 52.3131C18.8342 52.3131 18.8342 52.3131 18.914 52.3131L19.7121 51.9956C19.6323 51.9956 19.6323 51.9956 19.5525 51.9956C19.4727 51.9956 19.4727 51.9956 19.3929 51.9162L18.515 51.3605C18.914 50.9636 18.6746 50.5667 18.6746 50.4079V50.3286C18.6746 50.2492 18.6746 50.2492 18.6746 50.1698C18.6746 50.0904 18.7544 50.0904 18.7544 50.0904L19.2333 49.6141L19.1535 49.6935C19.1535 49.7729 19.1535 49.7729 19.1535 49.8523V49.9316C19.1535 50.2492 19.4727 50.8049 19.2333 51.1224L20.0313 51.5987C20.1111 51.5987 20.1111 51.5987 20.1909 51.6781C20.2707 51.6781 20.2707 51.6781 20.3506 51.6781L21.1486 51.3605C21.0688 51.3605 21.0688 51.3605 20.989 51.3605C20.9092 51.3605 20.9092 51.3605 20.8294 51.2811L19.9515 50.7255C20.1111 50.3286 19.9515 49.6935 19.7919 49.376V49.2966C19.7919 49.2172 19.7919 49.2172 19.7919 49.1378C19.7919 49.0584 19.7919 49.0584 19.7919 48.9791L20.1111 48.4234C20.1111 48.5028 20.1111 48.5028 20.1111 48.5821C20.1111 48.6615 20.1111 48.6615 20.1111 48.7409L20.1909 48.9791C20.2707 49.0584 20.2707 49.1378 20.3506 49.2966C20.8294 48.8203 20.989 48.4234 20.6698 48.0265L20.59 47.9471C20.59 47.9471 20.5102 47.8677 20.5102 47.7883C20.5102 47.7089 20.5102 47.7089 20.5102 47.6295L20.6698 46.9945C20.6698 47.0739 20.6698 47.0739 20.6698 47.1533C20.6698 47.2326 20.6698 47.2326 20.7496 47.2326L21.0688 47.6295C21.7073 48.344 21.3082 49.2172 20.59 49.8523C20.59 50.011 20.6698 50.2492 20.6698 50.3286L21.6274 50.9636C21.6274 50.9636 21.7073 50.9636 21.7871 51.043C21.8669 51.043 21.8669 51.043 21.9467 51.043L22.6649 50.7255C22.6649 50.7255 22.5851 50.7255 22.5053 50.7255C22.3457 50.7255 22.1861 50.5667 22.1861 50.4079C22.1861 50.2492 22.2659 50.1698 22.4255 50.0904C25.0591 49.2966 27.4533 47.2326 29.0494 47.2326C29.8475 47.2326 30.4859 47.7089 30.4859 48.2646C30.4859 48.344 30.4859 48.4234 30.4061 48.5028C30.0869 49.4553 30.5657 50.3286 31.8426 50.7255C32.082 50.8049 32.2416 50.9636 32.2416 51.2018C32.2416 51.2811 32.2416 51.2811 32.2416 51.3605H32.3214C32.6407 51.3605 32.9599 51.2018 33.1993 50.8842C33.4387 50.8842 33.6782 50.8842 33.9176 50.8049C33.9176 50.8842 33.9974 50.9636 33.9974 51.043C34.0772 51.2811 33.9176 51.5987 33.758 51.5987C33.4387 51.6781 33.1195 51.5987 32.8003 51.5987C32.2416 51.5987 31.8426 52.075 31.8426 52.5513C31.8426 52.6306 31.8426 52.6307 31.8426 52.71C31.683 52.7894 31.5234 53.0276 31.5234 53.1863C31.5234 53.2657 31.5234 53.4245 31.6032 53.5039C31.7628 53.3451 32.0022 53.1863 32.2416 53.1069C32.2416 52.6307 32.6407 52.2337 33.1195 52.2337C33.1993 52.2337 33.2791 52.2337 33.3589 52.2337C32.8801 52.3131 32.4811 52.71 32.4811 53.1863V53.2657C32.4013 53.3451 32.4013 53.4245 32.4013 53.5039C32.4013 53.6626 32.4811 53.742 32.5609 53.8214C32.6407 53.6626 32.8801 53.4245 33.1195 53.3451C33.2791 53.2657 33.5185 53.2657 33.6782 53.2657C33.6782 53.1863 33.6782 53.1069 33.6782 53.0276C33.6782 52.6307 33.9974 52.2337 34.4762 52.2337H34.556C34.2368 52.3131 33.9974 52.5513 33.9974 52.8688C33.9974 53.1069 34.0772 53.2657 34.2368 53.3451C34.2368 53.5039 34.3166 53.6626 34.3964 53.742C34.4762 53.4245 34.7156 53.2657 34.955 53.2657C35.1945 53.2657 35.4339 53.2657 35.5935 53.1863C35.8329 53.1069 36.0723 52.8688 36.0723 52.5513C36.0723 52.3131 35.9925 52.1544 35.8329 52.075C35.9127 51.7574 35.9127 51.2018 35.7531 50.8049H35.8329C35.9127 51.043 36.0723 51.1224 36.1521 51.2811ZM45.7289 8.97023H44.851V62.9504H45.7289V8.97023Z" fill="#0077C0"/>
<path d="M102.231 39.215H101.194V44.9305H102.231V39.215ZM65.9197 42.946L66.638 40.6439L67.3563 42.946H65.9197ZM66.0794 39.215L64.164 44.9305H65.2015L65.6005 43.6604H67.5957L67.9947 44.9305H69.0322L67.1168 39.215H66.0794ZM63.5256 39.215H60.0141V44.9305H63.5256V44.1367H61.0516V42.3109H63.2063V41.5171H61.0516V39.9294H63.5256V39.215ZM58.9766 37.7861H54.2681V38.5799H56.1036V45.0099H57.1411V38.5799H58.9766V37.7861V37.7861ZM58.0988 34.2139H59.0564V27.0695H58.0189V30.3241H55.2257V26.9901H54.2681V34.1345H55.3055V30.9592H58.0988V34.2139ZM63.1265 32.1499H61.6102L62.3285 29.8479L63.1265 32.1499ZM63.765 34.2139H64.8025L62.8871 28.4983H61.8496L59.9343 34.2139H60.9718L61.3708 32.9438H63.366L63.765 34.2139ZM68.5533 30.1654C68.5533 30.4829 68.4735 30.7211 68.3139 30.8798C68.1543 31.0386 67.9149 31.118 67.6755 31.118H66.7178V29.2128H67.6755C67.9947 29.2128 68.1543 29.2922 68.3139 29.4509C68.4735 29.6097 68.5533 29.8479 68.5533 30.1654ZM68.6331 34.2139H69.6706V34.1345C69.5908 34.0551 69.5908 33.9757 69.5908 33.817C69.5908 33.6582 69.5908 33.4995 69.5908 33.3407V32.785C69.5908 32.4675 69.511 32.1499 69.3514 31.9118C69.1918 31.6737 68.9524 31.5149 68.713 31.4355C68.9524 31.2767 69.1918 31.118 69.3514 30.8798C69.511 30.6417 69.5908 30.4035 69.5908 30.086C69.5908 29.5303 69.4312 29.1334 69.112 28.8159C68.7928 28.4983 68.3139 28.3396 67.7553 28.3396H65.8399V34.0551H66.8774V31.753H67.9149C68.1543 31.753 68.3937 31.8324 68.5533 31.9912C68.713 32.1499 68.7928 32.3881 68.7928 32.7056V33.3407C68.7928 33.4995 68.7928 33.6582 68.7928 33.817C68.6331 33.9757 68.6331 34.1345 68.6331 34.2139ZM71.0273 34.2139H72.0648V28.4983H71.0273V34.2139ZM72.9427 42.6285C72.9427 43.1047 72.8629 43.5017 72.6234 43.7398C72.384 44.0573 72.1446 44.2161 71.8254 44.2161H71.0273V40.0088H71.8254C72.1446 40.0088 72.384 40.1676 72.6234 40.4851C72.8629 40.8027 72.9427 41.1996 72.9427 41.5965V42.6285ZM73.9801 41.5965C73.9801 40.882 73.7407 40.3264 73.3417 39.9294C72.9427 39.4531 72.4638 39.2944 71.8254 39.2944H69.9898V45.0099H71.8254C72.4638 45.0099 72.9427 44.7718 73.3417 44.3749C73.7407 43.8986 73.9801 43.3429 73.9801 42.7078V41.5965ZM76.4541 31.8324C76.4541 32.3087 76.3743 32.7056 76.1349 32.9438C75.8955 33.2613 75.6561 33.4201 75.3369 33.4201H74.5388V29.2128H75.3369C75.6561 29.2128 75.8955 29.3716 76.1349 29.6891C76.3743 30.0066 76.4541 30.4035 76.4541 30.8004V31.8324ZM76.8532 33.4995C77.2522 33.0232 77.4916 32.4675 77.4916 31.8324V30.8004C77.4916 30.086 77.2522 29.5303 76.8532 29.1334C76.4541 28.6571 75.9753 28.4983 75.3369 28.4983H73.5013V34.2139H75.3369C75.9753 34.2139 76.4541 33.9757 76.8532 33.4995ZM78.5291 39.215V42.946C78.5291 43.3429 78.4493 43.6604 78.2099 43.8986C77.9704 44.1367 77.731 44.2161 77.4118 44.2161C77.0926 44.2161 76.7734 44.1367 76.6137 43.8986C76.3743 43.6604 76.2945 43.3429 76.2945 42.946V39.215H75.257V42.946C75.257 43.581 75.4167 44.1367 75.8157 44.4542C76.2147 44.8512 76.6936 45.0099 77.332 45.0099C77.9704 45.0099 78.4493 44.8512 78.8483 44.4542C79.2473 44.0573 79.407 43.581 79.407 42.946V39.215H78.5291ZM82.4396 33.7376C82.8386 33.3407 82.9982 32.8644 82.9982 32.2293V28.4983H81.9607V32.2293C81.9607 32.6262 81.8809 32.9438 81.6415 33.1819C81.4021 33.4201 81.1627 33.4995 80.8435 33.4995C80.5242 33.4995 80.205 33.4201 80.0454 33.1819C79.806 32.9438 79.7262 32.6262 79.7262 32.2293V28.4983H78.6887V32.2293C78.6887 32.8644 78.8483 33.4201 79.2473 33.7376C79.6464 34.1345 80.1252 34.2933 80.7637 34.2933C81.5617 34.2933 82.0406 34.1345 82.4396 33.7376ZM84.6741 40.882C84.6741 40.3264 84.5145 39.9294 84.1953 39.6119C83.8761 39.2944 83.3973 39.1356 82.7588 39.1356C82.2002 39.1356 81.7213 39.2944 81.4021 39.6119C81.0829 39.9294 80.9233 40.3264 80.9233 40.8027C80.9233 41.2789 81.0829 41.6759 81.3223 41.914C81.6415 42.1522 82.0406 42.3903 82.679 42.5491C83.078 42.7078 83.3973 42.7872 83.5569 42.946C83.7165 43.1047 83.7963 43.2635 83.7963 43.5017C83.7963 43.7398 83.7165 43.978 83.5569 44.1367C83.3973 44.2955 83.1578 44.3749 82.8386 44.3749C82.5194 44.3749 82.28 44.2955 82.1204 44.1367C81.9607 43.978 81.8011 43.7398 81.8011 43.3429H80.8435C80.8435 43.8986 81.0031 44.3749 81.4021 44.6924C81.8011 45.0099 82.28 45.0893 82.9184 45.0893C83.5569 45.0893 84.0357 44.9305 84.3549 44.6924C84.754 44.3749 84.9136 44.0573 84.9136 43.5017C84.9136 43.0254 84.754 42.6285 84.5145 42.3903C84.1953 42.1522 83.7963 41.914 83.1578 41.7552C82.679 41.5965 82.4396 41.5171 82.28 41.3583C82.1204 41.1996 82.0406 41.0408 82.0406 40.8027C82.0406 40.5645 82.1204 40.4057 82.28 40.247C82.4396 40.0882 82.679 40.0088 82.9184 40.0088C83.2376 40.0088 83.4771 40.0882 83.6367 40.3264C83.7963 40.4851 83.8761 40.7233 83.8761 41.0408L84.6741 40.882ZM85.6318 30.4829C85.4722 30.3241 85.3924 30.1654 85.3924 29.9272C85.3924 29.6891 85.4722 29.5303 85.6318 29.3716C85.7914 29.2128 86.0309 29.1334 86.2703 29.1334C86.5895 29.1334 86.8289 29.2128 86.9885 29.3716C87.1481 29.5303 87.2279 29.7685 87.2279 30.086H88.1856C88.1856 29.5303 88.026 29.1334 87.7068 28.8159C87.3876 28.4983 86.9087 28.3396 86.2703 28.3396C85.7116 28.3396 85.2328 28.4983 84.9136 28.8159C84.5943 29.1334 84.4347 29.5303 84.4347 30.0066C84.4347 30.4829 84.5943 30.8798 84.8338 31.118C85.153 31.3561 85.552 31.5943 86.1905 31.753C86.5895 31.9118 86.9087 31.9912 87.0683 32.1499C87.2279 32.3087 87.3077 32.4675 87.3077 32.7056C87.3077 32.9438 87.2279 33.1819 87.0683 33.3407C86.9087 33.4995 86.6693 33.5788 86.3501 33.5788C86.0308 33.5788 85.7914 33.4995 85.6318 33.3407C85.4722 33.1819 85.3126 32.9438 85.3126 32.5469H84.3549C84.3549 33.1025 84.5145 33.5788 84.9136 33.8964C85.3126 34.2139 85.7914 34.2933 86.4299 34.2933C87.0683 34.2933 87.5472 34.1345 87.8664 33.8964C88.2654 33.5788 88.425 33.2613 88.425 32.7056C88.425 32.2293 88.2654 31.8324 88.026 31.5943C87.7068 31.3561 87.3077 31.118 86.6693 30.9592C86.0309 30.8004 85.7914 30.6417 85.6318 30.4829ZM89.9413 39.215L88.5846 43.7398L87.2279 39.215H85.951V44.9305H86.9885V41.1202L88.2654 44.9305H88.9837L90.2606 41.1202V44.8512H91.298V39.1356H89.9413V39.215ZM89.2231 31.5149H91.4577V30.7211H89.2231V31.5149ZM92.7346 45.0099H93.772V39.2944H92.7346V45.0099ZM97.8421 33.7376C98.1614 33.4201 98.321 32.9438 98.321 32.3881V28.419H97.2835V32.3881C97.2835 32.7056 97.2037 33.0232 97.0441 33.1819C96.8845 33.4201 96.7249 33.4995 96.4854 33.4995C96.246 33.4995 96.0066 33.4201 95.847 33.2613C95.6874 33.1025 95.6076 32.8644 95.6076 32.4675H94.6499C94.6499 33.0232 94.8095 33.4995 95.1287 33.7376C95.448 34.0551 95.9268 34.2139 96.4854 34.2139C97.0441 34.2933 97.5229 34.1345 97.8421 33.7376ZM98.4806 39.215V43.1841L96.246 39.215H95.2085V44.9305H96.246V40.9614L98.4806 44.9305H99.5181V39.215H98.4806ZM102.471 32.1499H100.955L101.673 29.8479L102.471 32.1499ZM103.109 34.2139H104.147L102.231 28.4983H101.194L99.2786 34.2139H100.316L100.715 32.9438H102.71L103.109 34.2139ZM104.865 41.2789C104.705 41.1202 104.626 40.9614 104.626 40.7233C104.626 40.4851 104.705 40.3264 104.865 40.1676C105.025 40.0088 105.264 39.9294 105.504 39.9294C105.823 39.9294 106.062 40.0088 106.222 40.247C106.381 40.4057 106.461 40.6439 106.461 40.9614H107.419C107.419 40.4057 107.259 40.0088 106.94 39.6913C106.621 39.3738 106.142 39.215 105.504 39.215C104.945 39.215 104.466 39.3738 104.147 39.6913C103.828 40.0088 103.668 40.4057 103.668 40.882C103.668 41.3583 103.828 41.7552 104.067 41.9934C104.386 42.2315 104.785 42.4697 105.424 42.6285C105.823 42.7872 106.142 42.8666 106.302 43.0254C106.461 43.1841 106.541 43.3429 106.541 43.581C106.541 43.8192 106.461 44.0573 106.302 44.2161C106.142 44.3749 105.903 44.4542 105.583 44.4542C105.264 44.4542 105.025 44.3749 104.865 44.2161C104.705 44.0573 104.546 43.8192 104.546 43.4223H103.588C103.588 43.978 103.748 44.4543 104.147 44.7718C104.546 45.0893 105.025 45.1687 105.663 45.1687C106.302 45.1687 106.78 45.0099 107.1 44.7718C107.499 44.4543 107.658 44.1367 107.658 43.581C107.658 43.1047 107.499 42.7078 107.259 42.4697C106.94 42.2315 106.541 41.9934 105.903 41.8346C105.344 41.5965 105.025 41.4377 104.865 41.2789ZM110.531 40.0088H112.048V39.215H108.057V40.0088H109.494V45.0099H110.531V40.0088V40.0088ZM112.925 45.0099H116.437V44.2161H113.963V42.3903H116.118V41.5965H113.963V40.0088H116.437V39.215H112.925V45.0099ZM117.794 45.0099H121.305V44.2161H118.831V42.3903H120.986V41.5965H118.831V40.0088H121.305V39.215H117.794V45.0099ZM125.455 40.9614C125.455 41.2789 125.375 41.5171 125.216 41.6759C125.056 41.8346 124.817 41.914 124.577 41.914H123.699V40.0088H124.657C124.976 40.0088 125.136 40.0882 125.295 40.247C125.375 40.4057 125.455 40.6439 125.455 40.9614ZM125.615 45.0099H126.652V44.9305C126.572 44.8512 126.572 44.7718 126.572 44.613C126.572 44.4543 126.572 44.2955 126.572 44.1367V43.581C126.572 43.2635 126.492 42.946 126.333 42.7078C126.173 42.4697 125.934 42.3109 125.694 42.2315C125.934 42.0728 126.173 41.914 126.333 41.6759C126.492 41.4377 126.572 41.1996 126.572 40.882C126.572 40.3264 126.413 39.9294 126.093 39.6119C125.774 39.2944 125.295 39.1356 124.737 39.1356H122.821V44.8512H123.859V42.5491H124.896C125.136 42.5491 125.375 42.6285 125.535 42.7872C125.694 42.946 125.774 43.1841 125.774 43.5017V44.0573C125.774 44.2161 125.774 44.3749 125.774 44.5336C125.535 44.7718 125.535 44.9305 125.615 45.0099ZM128.168 45.0099H129.206V39.2944H128.168V45.0099ZM134.313 44.5336C134.713 44.1367 134.872 43.6604 134.872 43.0254V39.2944H133.835V43.0254C133.835 43.4223 133.755 43.7398 133.515 43.978C133.276 44.2161 133.037 44.2955 132.717 44.2955C132.398 44.2955 132.079 44.2161 131.919 43.978C131.68 43.7398 131.6 43.4223 131.6 43.0254V39.2944H130.563V43.0254C130.563 43.6604 130.722 44.2161 131.121 44.5336C131.52 44.9305 131.999 45.0893 132.638 45.0893C133.356 45.0893 133.914 44.9305 134.313 44.5336ZM141.576 45.0099V39.2944H140.299L138.942 43.8192L137.586 39.2944H136.309V45.0099H137.346V41.1996L138.623 45.0099H139.341L140.618 41.1996V44.9305H141.576V45.0099Z" fill="black"/>
</svg>
