<?xml version="1.0" encoding="utf-8"?>
<!-- Generator: Adobe Illustrator 24.0.1, SVG Export Plug-In . SVG Version: 6.00 Build 0)  -->
<svg version="1.1" id="Layer_1" xmlns="http://www.w3.org/2000/svg" xmlns:xlink="http://www.w3.org/1999/xlink" x="0px" y="0px"
	 viewBox="0 0 128 128" style="enable-background:new 0 0 128 128;" xml:space="preserve">
<style type="text/css">
	.st0{fill:none;}
	.st1{fill:#0053B3;}
</style>
<path class="st0" d="z"/>
<g>
	<path id="XMLID_5_" class="st1" d="M9.7,62.8c-0.1-3.1,2.3-5.6,5.4-5.8s5.6,2.3,5.8,5.4c0,0,0,1.3,0.1,3.5c0.1,0.5,0.1,1.2,0.1,1.8
		c0.1,0.5,0.1,1.2,0.3,1.8s0.1,1.4,0.3,2.2c0.3,0.8,0.4,1.7,0.6,2.6c0.3,1.8,1.2,3.7,1.8,5.9c0.4,1,0.9,2,1.4,3.2
		c0.1,0.4,0.3,0.6,0.4,0.9c0.3,0.3,0.4,0.5,0.5,0.8c0.4,0.5,0.6,1.2,1,1.7c2.7,4.4,6.5,9.1,11.6,12.9l1,0.8c0.3,0.3,0.6,0.4,1,0.6
		c0.8,0.4,1.4,0.8,2.2,1.3c0.6,0.5,1.4,0.9,2.2,1.3l2.3,1.2c0.8,0.4,1.7,0.6,2.4,1c0.9,0.3,1.7,0.6,2.6,0.9c1.8,0.4,3.5,1,5.4,1.3
		c0.9,0.1,1.9,0.4,2.8,0.5c0.9,0.1,1.9,0.1,2.8,0.3l1.4,0.1h1.4c1,0,2.2-0.1,3.2-0.1h0.8c0.3,0,0.5-0.1,0.8-0.1l1.4-0.3
		c0.9-0.1,1.8-0.1,2.8-0.4c1.9-0.5,4-0.9,5.9-1.7c7.9-2.6,15.2-7.7,20.9-14.2c2.8-3.5,5.1-7.3,7-11.3c1.7-4.1,2.9-8.4,3.6-12.9
		c0.1-1,0.1-2.2,0.3-3.3l0.1-1.7v-0.3c0-0.1,0,0.1,0,0v-1.4l-0.1-3.6l-0.6-2.8c-0.1-0.6-0.1-1.2-0.3-1.7l-0.4-1.7
		c-0.3-1.2-0.4-2.3-0.8-3.3l-1.2-3.2l-0.3-0.8l-0.4-0.8l-0.6-1.5c-0.9-2-2.2-4-3.2-5.9l-1.9-2.7c-0.4-0.4-0.6-0.9-1-1.3l-1.2-1.3
		c-2.8-3.5-6.1-6.3-9.7-8.7c-0.9-0.5-1.8-1.2-2.7-1.7c-0.9-0.5-1.9-0.9-2.8-1.4l-1.4-0.8c-0.4-0.3-0.9-0.4-1.4-0.6
		c-1-0.4-1.9-0.8-2.9-1.2c-4-1.3-7.9-2.2-11.9-2.4c-1-0.1-1.9-0.1-2.9-0.3c-0.9,0.1-1.9,0.1-2.9,0.1h-1.5c-0.5,0-0.9,0.1-1.4,0.1
		c-0.9,0.1-1.9,0.3-2.8,0.4c-0.9,0.1-1.8,0.4-2.7,0.5c-0.5,0.1-1,0.1-1.4,0.3s-0.9,0.3-1.3,0.4c-0.9,0.3-1.7,0.5-2.6,0.8
		c-0.8,0.3-1.7,0.6-2.4,0.9c-6.5,2.6-11.9,6.4-16,10.4c-4.2,4-7,8.2-9.1,11.8c-2,3.7-3.2,6.7-3.8,8.8c-0.5,2.2-0.9,3.3-0.9,3.3
		s0.4-1.2,0.9-3.3c0.5-2.2,1.7-5.4,3.5-9.1c1.9-3.7,4.6-8.1,8.7-12.3c4-4.2,9.3-8.3,16-11.3c0.9-0.3,1.7-0.6,2.6-1
		c0.9-0.3,1.8-0.6,2.7-0.9c0.5-0.3,0.9-0.4,1.4-0.5c0.5-0.1,0.9-0.3,1.4-0.4c0.9-0.1,1.9-0.4,2.8-0.6c0.9-0.3,1.9-0.4,2.9-0.5
		c0.5,0,1-0.1,1.7-0.4c0.5-0.1,1-0.1,1.5-0.1c0.9,0,1.9-0.1,2.9-0.1c1.2,0,2.2,0.1,3.2,0.1c4.1,0,8.4,0.9,12.7,2
		c1.2,0.4,2.2,0.8,3.2,1.2c0.5,0.3,1,0.4,1.5,0.6l1.5,0.8c1,0.4,2,0.9,3.1,1.4c0.9,0.6,1.9,1.2,2.9,1.8c4,2.4,7.7,5.4,10.9,9
		l1.3,1.3c0.4,0.4,0.8,0.9,1.2,1.4c0.6,0.9,1.4,1.9,2.2,2.8c1.3,2,2.7,4.1,3.7,6.3l0.8,1.7l0.4,0.8l0.4,0.9c0.4,1.2,0.9,2.3,1.3,3.5
		c0.4,1.2,0.6,2.4,1,3.6l0.4,1.7l0.4,1.9l0.6,3.8l0.3,3.6v1.7v2.2c0,1.2,0,2.4-0.1,3.7c-0.5,5-1.7,9.9-3.8,14.7
		c-1.9,4.7-4.4,9.1-7.4,13.1c-6.1,7.8-14.5,14-23.4,17.3c-2.2,1-4.5,1.5-6.8,2.2c-1.2,0.3-2.4,0.4-3.6,0.6l-1.8,0.3
		c-0.3,0-0.6,0.1-0.9,0.1h-0.8c-1,0.1-2.2,0.1-3.2,0.3h-3.5c-1,0-2.2-0.1-3.3-0.1c-1.2-0.1-2.2-0.3-3.3-0.4
		c-2.2-0.1-4.4-0.8-6.4-1.3c-1-0.3-2-0.6-3.1-1c-0.9-0.4-1.9-0.6-2.9-1c-0.9-0.4-1.9-0.9-2.8-1.3c-0.9-0.5-1.8-0.9-2.7-1.4
		c-0.9-0.5-1.7-1-2.6-1.5c-0.4-0.3-0.9-0.5-1.3-0.8c-0.4-0.4-0.8-0.6-1.2-0.9c-6.4-4.5-11.3-9.9-14.7-15.2c-0.5-0.8-0.9-1.4-1.3-2
		c-0.3-0.4-0.4-0.6-0.6-1c-0.1-0.4-0.4-0.6-0.5-1l-1.9-3.8c-1-2.6-2-4.9-2.6-7.2c-0.4-1.2-0.6-2.2-0.9-3.2c-0.1-1-0.4-2-0.5-2.9
		c-0.1-0.9-0.3-1.8-0.4-2.6c0-0.8-0.1-1.4-0.1-1.9C10,64,9.9,62.8,9.9,62.8C9.9,62.7,9.9,62.7,9.7,62.8z"/>
</g>
<path class="st0" d="z"/>
</svg>
