<svg xmlns="http://www.w3.org/2000/svg" viewBox="0 0 165 42.49"><defs><style>.cls-1{fill:none;}.cls-2{fill:#0053b3;}.cls-3{fill:#0e1013;}</style></defs><title>Asset 1</title><g id="Layer_2" data-name="Layer 2"><g id="Layer_1-2" data-name="Layer 1"><rect class="cls-1" width="165" height="42.49"/><path class="cls-2" d="M31,7.17h4.9v1H32.09v2.62h3.55v1H32.09v2.83h3.83v1H31Z"/><path class="cls-2" d="M38.44,12h2.62v-.5c0-.86-.29-1.33-1.28-1.33s-1.34.47-1.34,1.33Zm1.46,2.74a7.38,7.38,0,0,0,1.92-.29l.14.84a6.59,6.59,0,0,1-2.15.35c-1.8,0-2.4-.86-2.4-2.24v-1.8a2.09,2.09,0,0,1,2.4-2.28,2,2,0,0,1,2.29,2.31v1.25H38.5v.5C38.44,14.34,38.71,14.73,39.9,14.73Z"/><path class="cls-2" d="M45.41,15.63a6.3,6.3,0,0,1-1.93-.32l.13-.83a6.9,6.9,0,0,0,1.74.25c1,0,1.13-.17,1.13-.83s0-.72-1.28-1c-1.51-.38-1.65-.69-1.65-2,0-1.12.5-1.64,2.1-1.64a7.13,7.13,0,0,1,1.73.22l-.08.86a9.5,9.5,0,0,0-1.69-.18c-.9,0-1,.22-1,.77s0,.8,1,1.05c1.76.44,1.89.65,1.89,1.87S47.15,15.63,45.41,15.63Z"/><path class="cls-2" d="M52.4,15.4a3.71,3.71,0,0,1-1.28.23c-1,0-1.51-.38-1.51-1.39v-4H48.53V9.41h1.08V7.91l1-.15V9.41h1.72l-.08.88H50.66v3.77c0,.45.06.68.6.68a3.27,3.27,0,0,0,1-.15l.14.81"/><path class="cls-2" d="M54.89,15.5H53.83V9.41h1.06Zm0-7.07H53.83V6.92h1.06Z"/><path class="cls-2" d="M62.2,11.26l3.3,4.24H64.21L61,11.26l3-4.09h1.26l-3,4.09ZM60.74,15.5H59.65V7.17h1.09Z"/><path class="cls-2" d="M67.34,12H70v-.5c0-.86-.29-1.33-1.28-1.33s-1.33.47-1.33,1.33Zm1.45,2.74a7.32,7.32,0,0,0,1.92-.29l.14.84a6.82,6.82,0,0,1-2.15.35c-1.8,0-2.4-.86-2.4-2.24v-1.8a2.09,2.09,0,0,1,2.4-2.28A2,2,0,0,1,71,11.62v1.25h-3.6v.5c0,1,.22,1.36,1.4,1.36Z"/><path class="cls-2" d="M73.33,12H76v-.5c0-.86-.29-1.33-1.28-1.33s-1.35.47-1.35,1.33Zm1.46,2.74a7.45,7.45,0,0,0,1.93-.29l.13.84a6.82,6.82,0,0,1-2.15.35c-1.8,0-2.4-.86-2.4-2.24v-1.8a2.09,2.09,0,0,1,2.4-2.28A2,2,0,0,1,77,11.62v1.25H73.33v.5c0,1,.29,1.36,1.49,1.36Z"/><path class="cls-2" d="M78.64,15.5V6.92l1-.15V15.5Z"/><path class="cls-2" d="M82.43,12h2.62v-.5c0-.86-.29-1.33-1.27-1.33s-1.35.47-1.35,1.33Zm1.45,2.74a7.46,7.46,0,0,0,1.94-.29l.13.84a6.82,6.82,0,0,1-2.15.35c-1.8,0-2.4-.86-2.4-2.24v-1.8a2.09,2.09,0,0,1,2.4-2.28,2,2,0,0,1,2.29,2.31v1.25H82.46v.5C82.43,14.34,82.7,14.73,83.88,14.73Z"/><path class="cls-2" d="M91.6,7.17H90.53V15.5H91.6Z"/><path class="cls-2" d="M97.42,15.5V10.85c0-.4-.2-.56-.6-.56a5.54,5.54,0,0,0-2,.6V15.5h-1V9.41h.84l.1.53a6.62,6.62,0,0,1,2.46-.66c1,0,1.32.6,1.32,1.56V15.5h-1"/><path class="cls-2" d="M102.12,15.63a6.3,6.3,0,0,1-1.93-.32l.13-.83a6.9,6.9,0,0,0,1.74.25c1,0,1.13-.17,1.13-.83s0-.72-1.28-1c-1.51-.38-1.65-.69-1.65-2,0-1.12.5-1.64,2.1-1.64a7.13,7.13,0,0,1,1.73.22l-.08.86a9.49,9.49,0,0,0-1.68-.18c-.9,0-1,.22-1,.77s0,.8,1,1.05c1.75.44,1.89.65,1.89,1.87S103.86,15.63,102.12,15.63Z"/><path class="cls-2" d="M109.08,15.4a3.71,3.71,0,0,1-1.28.23c-1,0-1.51-.38-1.51-1.39v-4h-1.08V9.41h1.11V7.91l1.05-.15V9.41h1.73l-.09.88h-1.67v3.77c0,.45.06.68.6.68a3.64,3.64,0,0,0,1-.15l.14.81"/><path class="cls-2" d="M111.57,15.5h-1V9.41h1Zm0-7.07h-1V6.92h1Z"/><path class="cls-2" d="M116.75,15.4a3.71,3.71,0,0,1-1.28.23c-1,0-1.51-.38-1.51-1.39v-4h-1.08V9.41H114V7.91L115,7.76V9.41h1.73l-.09.88H115v3.77c0,.45.06.68.6.68a3.64,3.64,0,0,0,1-.15l.14.81"/><path class="cls-2" d="M119.18,9.41v4.65c0,.41.2.57.6.57a5.85,5.85,0,0,0,2-.6V9.41h1.05V15.5H122l-.1-.52a6.75,6.75,0,0,1-2.45.65c-1,0-1.33-.6-1.33-1.55V9.41h1"/><path class="cls-2" d="M125.85,9.41v4.65c0,.41.2.57.6.57a5.79,5.79,0,0,0,2-.6V9.41h1V15.5h-.85l-.1-.52a6.47,6.47,0,0,1-2.48.65c-1,0-1.33-.6-1.33-1.55V9.41h1.06"/><path class="cls-2" d="M134.71,15.4a3.71,3.71,0,0,1-1.28.23c-1,0-1.51-.38-1.51-1.39v-4h-1.08V9.41h1.08V7.91L133,7.76V9.41h1.73l-.09.88H133v3.77c0,.45.07.68.6.68a3.64,3.64,0,0,0,1-.15l.14.81"/><path class="cls-3" d="M17.4,27.94c0-1.62-1.12-3.27-4.13-3.27s-4.13,1.65-4.13,3.27v4.45c0,1.61,1.12,3.26,4.13,3.26S17.4,34,17.4,32.39ZM15,32.18c0,.83-.53,1.34-1.73,1.34s-1.73-.51-1.73-1.34v-4c0-.84.53-1.35,1.73-1.35S15,27.31,15,28.15ZM14.3,24A1.8,1.8,0,0,0,16,22.48L14.9,22c-.09.43-.25.65-.6.65a1.65,1.65,0,0,1-.82-.37,1.71,1.71,0,0,0-1-.33c-.74,0-1.31.67-1.68,1.39l.93.72c.19-.29.43-.72.8-.72a1.21,1.21,0,0,1,.73.35A1.66,1.66,0,0,0,14.3,24Zm12.93,5.23V27.86c0-2-1-3-3.56-3H19.32V35.49h2.4V32.26h1.83C26.14,32.26,27.23,31.25,27.23,29.25ZM24.83,29c0,.77-.23,1.17-1.28,1.17H21.72V27h1.83c1,0,1.28.35,1.28,1.12Zm10.62,6.48V33.36h-4.3V31h4V28.91h-4V27h4.3V24.83h-6.7V35.49ZM44.65,27V24.83H36.53V27h2.86v8.53h2.4V27Zm6.09-2.13h-3.2L44.29,35.49h2.5l.57-2.08h3.57l.58,2.08H54ZM49.14,27l1.22,4.46H47.91Zm6.27,11.92c1.43-1.11,2.27-2,2.27-3v-11h-2.4V35.49c0,.56-.12.74-1.29,1.68Zm9.93-14h-3.2L58.89,35.49h2.5L62,33.41h3.57l.58,2.08H68.6ZM63.74,27,65,31.41H62.51ZM80.6,27V24.83H72.47V27h2.87v8.53h2.4V27Zm9.18,1c0-1.62-1.12-3.27-4.13-3.27s-4.13,1.65-4.13,3.27v4.45c0,1.61,1.12,3.26,4.13,3.26s4.13-1.65,4.13-3.26Zm-2.4,4.24c0,.83-.53,1.34-1.73,1.34s-1.73-.51-1.73-1.34v-4c0-.84.53-1.35,1.73-1.35s1.73.51,1.73,1.35Zm-2.44-8.32V22.11H83.12v1.75Zm3.24,0V22.11H86.35v1.75Zm11.54,4.08c0-1.62-1.12-3.27-4.13-3.27s-4.13,1.65-4.13,3.27v4.45c0,1.61,1.12,3.26,4.13,3.26s4.13-1.65,4.13-3.26Zm-2.4,4.24c0,.83-.53,1.34-1.73,1.34s-1.73-.51-1.73-1.34v-4c0-.84.53-1.35,1.73-1.35s1.73.51,1.73,1.35Zm-2.44-8.32V22.11H93.06v1.75Zm3.24,0V22.11H96.29v1.75Zm9.68,11.63h2.85l-2.58-3.65a2.57,2.57,0,0,0,1.55-2.67V27.86c0-2-1-3-3.55-3h-4.43V35.49H104V32.18h1.41Zm-.58-6.56c0,.8-.25,1.17-1.28,1.17H104V27h1.9c1,0,1.28.32,1.28,1.12Zm7.26,6.56V24.83h-2.4V35.49Zm4.72,0V24.83h-2.4V35.49Zm9.26-3c0-2.1-.14-2.66-3-3.35-1.68-.4-1.73-.41-1.73-1.44,0-.78.24-1,1.32-1a16.1,16.1,0,0,1,3,.3l.24-2a15.4,15.4,0,0,0-3.24-.36c-2.92,0-3.68.85-3.68,3,0,2.3.39,2.82,3,3.38,1.75.38,1.8.49,1.8,1.45s-.25,1.14-1.48,1.14a10.29,10.29,0,0,1-3.07-.51l-.4,1.85a8.71,8.71,0,0,0,3.44.69C127.78,35.65,128.46,34.61,128.46,32.5Zm9-5.54V24.83h-8.12V27h2.86v8.53h2.4V27Zm6.09-2.13h-3.2l-3.25,10.66h2.5l.57-2.08h3.57l.58,2.08h2.49ZM142,27l1.22,4.46h-2.45Zm13.87,5.77V27.6c0-1.44-1-2.77-3.6-2.77h-4.13V35.49h4.13C154.89,35.49,155.86,34.15,155.86,32.72Zm-2.4-.65c0,.83-.29,1.29-1.49,1.29h-1.44V27H152c1.2,0,1.49.47,1.49,1.3Z"/></g></g></svg>